<svg width="246" height="246" viewBox="0 0 246 246" fill="none" xmlns="http://www.w3.org/2000/svg">
<g clip-path="url(#clip0_54_7217)">
<mask id="mask0_54_7217" style="mask-type:luminance" maskUnits="userSpaceOnUse" x="50" y="38" width="147" height="170">
<path d="M197 38.0041H50V207.004H197V38.0041Z" fill="white"/>
</mask>
<g mask="url(#mask0_54_7217)">
<path d="M117.553 109.259C118.149 110.776 122.864 119.744 122.378 120.66C121.998 120.848 121.481 120.992 121.062 120.992C106.489 120.993 82.661 121.45 81.3325 100.841C80.2951 84.7455 86.0864 69.1599 94.0746 55.7498C94.2964 55.3774 94.6662 55.2215 95.0544 55.2006C95.8097 55.7593 95.7525 56.9414 96.07 57.786C97.9005 62.654 99.1665 67.7078 101.068 72.5474C102.079 75.1214 103.114 77.6844 104.113 80.263C104.409 81.0305 104.821 81.8644 105 82.6474L105.029 82.7817C105.152 85.437 111.02 95.9461 112.415 98.9781C113.221 100.731 116.564 108.369 117.553 109.259Z" fill="#00E5C8"/>
<path d="M131.817 138.215L131.812 138.063C131.701 134.731 126.142 127.299 127.456 125.276C128.064 124.885 129.114 124.848 129.822 124.913C133.815 125.277 137.973 125.013 141.944 125.441C144.191 125.665 146.42 126.044 148.619 126.576C168.064 131.433 168.602 143.927 165.386 162.04C164.999 164.22 164.015 166.226 163.433 168.272C161.418 175.356 158.269 181.884 154.289 187.973C153.873 188.609 152.699 190.612 152.18 191.006C150.251 191.169 149.829 184.176 149.374 182.568C147.886 177.306 146.565 171.019 144.408 166.033C144.84 163.612 134.739 141.498 132.817 138.137C132.32 137.923 132.453 137.996 131.817 138.215Z" fill="#00E5C8"/>
<path d="M105.029 82.7817C105.278 82.2069 105.283 81.2093 105.589 80.8478C108.355 77.5734 112.238 75.6101 115.512 72.9587C115.885 72.6568 116.306 72.3941 116.696 72.1194C124.356 67.4101 132.534 63.2086 141.034 60.4536C142.844 59.866 144.604 58.9437 146.432 58.3927C150.824 57.1015 155.338 56.1851 159.877 55.709C160.936 55.5978 162.855 55.2762 163.812 55.7673C164.232 57.2923 157.032 64.2776 155.631 65.815L137.335 85.9261C136.197 87.1989 135.188 88.7376 134.06 90.0454L117.553 109.259C116.564 108.369 113.22 100.731 112.415 98.9781C111.02 95.9461 105.152 85.437 105.029 82.7817Z" fill="#001A2E"/>
<path d="M131.816 138.215C132.453 137.996 132.32 137.923 132.816 138.137C134.739 141.498 144.84 163.612 144.408 166.033C143.776 166.5 142.987 167.337 142.382 167.887C128.899 180.156 109.966 188.28 92.0163 188.372C91.4698 188.375 90.0246 188.426 89.6455 188.197L89.5786 187.913C89.7476 186.874 91.0195 185.375 91.7128 184.612C95.3438 180.614 99.4243 177.277 102.945 173.135C104.242 171.608 105.388 169.951 106.671 168.502C109.375 165.45 112.354 162.656 114.926 159.446C118.416 154.783 121.994 150.379 125.864 146.051C127.044 144.731 128.096 142.901 129.245 141.498C130.069 140.493 131.126 139.379 131.781 138.276L131.816 138.215Z" fill="#001A2E"/>
<path d="M159.939 88.5422C161.703 88.456 164.614 89.8185 166.294 90.5463C171.008 92.5206 175.402 95.9594 179.452 99.0704C181.759 100.842 193.616 115.29 192.628 117.651C191.602 118.005 181.953 115.974 179.962 115.589C175.759 114.776 172.858 114.954 168.648 114.935C165.167 114.885 161.685 114.905 158.204 114.993C157.521 115.009 156.57 115.223 155.857 115.321C151.86 115.866 147.817 116.515 143.841 117.19C138.953 118.019 134.088 119.21 129.225 120.183C128.611 120.306 127.913 120.378 127.65 119.713C127.95 118.563 129.59 117.014 130.343 116.027C132.905 112.669 135.699 109.547 138.767 106.691C141.774 103.91 144.15 100.445 147.267 97.8008C150.641 94.9377 154.039 91.741 157.752 89.3702C158.397 88.959 159.21 88.7336 159.939 88.5422Z" fill="#4A0072"/>
<path d="M120.677 125.212L121.054 125.375L121.186 125.725C121.087 127.174 113.854 137.32 112.482 138.709C111.368 139.839 108.693 143.66 107.585 144.883C104.425 148.373 101.081 152.303 97.5833 155.381C96.4646 155.929 94.2239 158.35 93.3143 158.738C87.9154 161.043 74.0796 149.578 71.1743 147.032C70.4341 146.423 69.6999 145.806 68.9715 145.181C67.6186 144.003 59.8611 135.155 59.7427 133.786C60.4939 132.95 64.3655 133.795 65.5303 133.865C67.5641 133.986 69.5879 134.061 71.6231 134.121C81.2773 134.405 90.9238 133.323 100.301 130.904C102.226 130.428 104.106 129.706 106.015 129.216C110.869 127.971 115.876 126.652 120.677 125.212Z" fill="#4A0072"/>
<path d="M113.757 38.3558C116.294 38.5734 117.935 38.9676 119.903 40.7693C121.966 42.6208 123.218 45.2734 123.37 48.1139C123.52 50.5567 122.812 53.3218 121.197 55.0961C118.69 57.8502 117.162 58.5065 113.619 58.7164C105.463 58.809 101.277 49.4632 105.578 42.5853C107.467 39.5644 110.621 38.9165 113.757 38.3558Z" fill="#FF2D78"/>
<path d="M186.315 125.545C189.704 125.361 192.925 127.104 194.745 130.104C196.564 133.105 196.7 136.899 195.099 140.034C193.499 143.169 190.412 145.159 187.019 145.241C181.875 145.366 177.589 141.142 177.396 135.756C177.204 130.371 181.177 125.823 186.315 125.545Z" fill="#001A2E"/>
<path d="M134.439 187.524C147.467 188.264 146.464 205.272 135.738 206.391C123.077 207.073 122.694 188.513 134.439 187.524Z" fill="#FF2D78"/>
<path d="M50 115.063C50.5838 114.352 51.0274 112.819 51.3721 111.886C53.4358 106.302 61.2384 104.924 65.497 108.459C69.5644 111.835 70.3515 118.256 67.0595 122.529C65.5524 124.495 63.349 125.737 60.9524 125.972C58.1199 126.274 56.0884 125.622 53.7634 123.89C51.2571 122.023 51.3695 119.175 50 117.375V115.063Z" fill="#001A2E"/>
</g>
</g>
<line y1="122.504" x2="246.008" y2="122.504" stroke="black" stroke-dasharray="2 2"/>
<line x1="122.504" y1="246.008" x2="122.504" y2="-1.52588e-05" stroke="black" stroke-dasharray="2 2"/>
<line x1="35.6735" y1="209.627" x2="209.628" y2="35.6735" stroke="black" stroke-dasharray="2 2"/>
<line x1="36.3806" y1="35.6734" x2="210.335" y2="209.627" stroke="black" stroke-dasharray="2 2"/>
<defs>
<clipPath id="clip0_54_7217">
<rect width="147" height="169" fill="white" transform="translate(50 38.0041)"/>
</clipPath>
</defs>
</svg>
