<svg width="147" height="169" viewBox="0 0 147 169" fill="none" xmlns="http://www.w3.org/2000/svg">
<g clip-path="url(#clip0_10_16)">
<path d="M67.5527 71.2553C68.1493 72.7716 72.8643 81.7395 72.3783 82.6562C71.9981 82.8435 71.4811 82.9882 71.0619 82.9882C56.4893 82.9886 32.661 83.4454 31.3325 62.837C30.2951 46.7414 36.0864 31.1558 44.0746 17.7457C44.2964 17.3733 44.6662 17.2174 45.0544 17.1965C45.8097 17.7552 45.7525 18.9373 46.07 19.7819C47.9005 24.6499 49.1665 29.7037 51.0679 34.5433C52.0792 37.1173 53.1141 39.6803 54.1127 42.2589C54.409 43.0264 54.8208 43.8603 54.9997 44.6433L55.0295 44.7776C55.152 47.4329 61.0204 57.942 62.4146 60.974C63.2205 62.7268 66.5637 70.3646 67.5527 71.2553Z" fill="#208149"/>
<path d="M81.8166 100.211L81.8124 100.059C81.7011 96.7265 76.1423 89.2954 77.4565 87.2718C78.0636 86.881 79.1144 86.8443 79.8217 86.9088C83.8151 87.2733 87.9735 87.0087 91.9442 87.4372C94.1906 87.6608 96.4202 88.04 98.6188 88.5722C118.064 93.429 118.602 105.923 115.386 124.036C114.999 126.216 114.015 128.222 113.433 130.268C111.418 137.352 108.269 143.88 104.289 149.969C103.873 150.605 102.699 152.608 102.18 153.002C100.251 153.165 99.829 146.172 99.3742 144.564C97.8865 139.302 96.5655 133.015 94.4078 128.029C94.8403 125.608 84.7395 103.494 82.8166 100.133C82.3202 99.9187 82.4528 99.9918 81.8166 100.211Z" fill="#208349"/>
<path d="M55.0295 44.7776C55.2785 44.2028 55.2833 43.2052 55.5887 42.8437C58.3553 39.5693 62.2384 37.606 65.5123 34.9546C65.8853 34.6527 66.3058 34.39 66.6961 34.1153C74.3559 29.406 82.5339 25.2045 91.0345 22.4495C92.8439 21.8619 94.6045 20.9396 96.4319 20.3886C100.824 19.0974 105.338 18.181 109.877 17.7049C110.936 17.5937 112.855 17.2721 113.812 17.7632C114.232 19.2882 107.032 26.2735 105.631 27.8109L87.3348 47.922C86.197 49.1948 85.1876 50.7335 84.0599 52.0413L67.5527 71.2553C66.5637 70.3646 63.2205 62.7268 62.4146 60.974C61.0204 57.942 55.152 47.4329 55.0295 44.7776Z" fill="#012E63"/>
<path d="M81.8165 100.211C82.4528 99.9918 82.3201 99.9187 82.8165 100.133C84.7395 103.494 94.8403 125.608 94.4077 128.029C93.7758 128.496 92.9868 129.333 92.3823 129.883C78.8988 142.152 59.9658 150.276 42.0163 150.368C41.4698 150.371 40.0246 150.422 39.6455 150.193L39.5786 149.909C39.7476 148.87 41.0195 147.371 41.7128 146.608C45.3438 142.61 49.4243 139.273 52.9448 135.131C54.2421 133.604 55.388 131.947 56.6714 130.498C59.3755 127.446 62.3544 124.652 64.9256 121.442C68.4157 116.779 71.994 112.375 75.8638 108.047C77.0439 106.727 78.0959 104.897 79.2455 103.494C80.0688 102.489 81.1256 101.375 81.7807 100.272L81.8165 100.211Z" fill="#012E63"/>
<path d="M109.939 50.5381C111.703 50.4519 114.614 51.8144 116.294 52.5422C121.008 54.5165 125.402 57.9553 129.452 61.0663C131.759 62.8382 143.616 77.2864 142.628 79.6468C141.602 80.0012 131.953 77.9703 129.962 77.5851C125.759 76.7719 122.858 76.9497 118.648 76.9306C115.167 76.8812 111.685 76.9009 108.204 76.9894C107.521 77.0049 106.57 77.2193 105.857 77.3167C101.86 77.8624 97.8169 78.5112 93.8408 79.1858C88.9529 80.015 84.0882 81.2056 79.2253 82.1793C78.6113 82.3021 77.9126 82.374 77.6497 81.7089C77.9498 80.5587 79.5896 79.0102 80.3433 78.0225C82.9054 74.6645 85.6993 71.5425 88.7668 68.6866C91.7737 65.9055 94.1502 62.4414 97.2669 59.7967C100.641 56.9336 104.039 53.7369 107.752 51.3661C108.397 50.9549 109.21 50.7295 109.939 50.5381Z" fill="#07509B"/>
<path d="M70.6768 87.2081L71.0545 87.3713L71.1856 87.7208C71.0874 89.1699 63.8537 99.3155 62.4825 100.705C61.3676 101.835 58.6928 105.656 57.5851 106.879C54.4253 110.369 51.0805 114.299 47.5833 117.377C46.4646 117.925 44.2239 120.346 43.3143 120.734C37.9154 123.039 24.0796 111.574 21.1743 109.028C20.4341 108.419 19.6999 107.802 18.9715 107.177C17.6186 105.999 9.86114 97.1512 9.74272 95.7822C10.4939 94.9458 14.3655 95.7913 15.5303 95.8606C17.5641 95.9818 19.5879 96.0568 21.6231 96.1165C31.2773 96.4011 40.9238 95.319 50.3014 92.8996C52.2258 92.4242 54.1056 91.7019 56.0153 91.212C60.8689 89.9672 65.8761 88.6477 70.6768 87.2081Z" fill="#07509D"/>
<path d="M63.7569 0.35173C66.2937 0.569249 67.9347 0.963461 69.9034 2.76516C71.9657 4.61669 73.2176 7.26927 73.3699 10.1098C73.5199 12.5526 72.8118 15.3177 71.1969 17.092C68.6903 19.8461 67.1618 20.5024 63.6191 20.7123C55.4629 20.8049 51.2767 11.4591 55.5781 4.58115C57.4674 1.56027 60.6211 0.912361 63.7569 0.35173Z" fill="#28914F"/>
<path d="M136.315 87.5405C139.704 87.3572 142.925 89.0995 144.745 92.1003C146.564 95.101 146.7 98.8954 145.099 102.03C143.499 105.165 140.412 107.155 137.019 107.237C131.875 107.362 127.589 103.138 127.396 97.7524C127.204 92.3671 131.177 87.8185 136.315 87.5405Z" fill="#28914F"/>
<path d="M84.4386 149.52C97.4672 150.26 96.4639 167.268 85.7379 168.387C73.077 169.069 72.6938 150.509 84.4386 149.52Z" fill="#0661B0"/>
<path d="M0 77.0584C0.583784 76.3474 1.02741 74.8147 1.37207 73.882C3.43577 68.2978 11.2384 66.9196 15.497 70.4545C19.5644 73.8306 20.3515 80.2517 17.0595 84.5245C15.5524 86.4904 13.349 87.7327 10.9524 87.9678C8.11991 88.2703 6.08844 87.6182 3.76337 85.886C1.25712 84.0189 1.36951 81.1704 0 79.3706V77.0584Z" fill="#012E63"/>
</g>
<defs>
<clipPath id="clip0_10_16">
<rect width="147" height="169" fill="white"/>
</clipPath>
</defs>
</svg>
