<svg width="150" height="173" viewBox="0 0 150 173" fill="none" xmlns="http://www.w3.org/2000/svg">
<g clip-path="url(#clip0_30_1239)">
<mask id="mask0_30_1239" style="mask-type:luminance" maskUnits="userSpaceOnUse" x="0" y="0" width="150" height="173">
<path d="M150 0H0V173H150V0Z" fill="white"/>
</mask>
<g mask="url(#mask0_30_1239)">
<path d="M68.9313 72.9418C69.5401 74.494 74.3514 83.6741 73.8554 84.6125C73.4675 84.8043 72.9399 84.9524 72.5121 84.9524C57.6422 84.9528 33.3275 85.4204 31.972 64.3243C30.9133 47.8477 36.8228 31.8933 44.9741 18.1658C45.2004 17.7845 45.5777 17.6249 45.9738 17.6035C46.7446 18.1755 46.6862 19.3855 47.0102 20.2501C48.878 25.2334 50.1699 30.4067 52.1101 35.3609C53.1421 37.9958 54.1981 40.6194 55.217 43.2591C55.5193 44.0448 55.9396 44.8984 56.1221 45.7L56.1526 45.8375C56.2775 48.5556 62.2657 59.3134 63.6883 62.4171C64.5107 64.2115 67.9222 72.03 68.9313 72.9418Z" fill="#00E5C8"/>
<path d="M83.4863 102.583L83.4821 102.428C83.3685 99.0159 77.6962 91.409 79.0373 89.3374C79.6568 88.9374 80.729 88.8999 81.4508 88.9659C85.5257 89.339 89.7689 89.0681 93.8206 89.5067C96.1128 89.7356 98.388 90.1238 100.631 90.6686C120.473 95.6404 121.023 108.43 117.741 126.972C117.346 129.203 116.342 131.257 115.748 133.351C113.692 140.603 110.479 147.285 106.417 153.519C105.993 154.17 104.795 156.22 104.266 156.624C102.297 156.79 101.866 149.632 101.402 147.985C99.8842 142.599 98.5363 136.164 96.3344 131.06C96.7758 128.581 86.4689 105.943 84.5067 102.503C84.0002 102.284 84.1355 102.358 83.4863 102.583Z" fill="#00E5C8"/>
<path d="M56.1526 45.8375C56.4066 45.2491 56.4116 44.2278 56.7231 43.8578C59.5462 40.5059 63.5086 38.4961 66.8493 35.7819C67.2299 35.4729 67.6589 35.204 68.0572 34.9228C75.8733 30.102 84.2183 25.801 92.8923 22.9808C94.7386 22.3794 96.5353 21.4352 98.3999 20.8711C102.881 19.5495 107.487 18.6114 112.12 18.1239C113.2 18.0102 115.158 17.681 116.134 18.1836C116.564 19.7448 109.216 26.8954 107.787 28.4691L89.1171 49.0563C87.9561 50.3592 86.9262 51.9343 85.7754 53.2731L68.9313 72.9418C67.9222 72.03 64.5107 64.2115 63.6883 62.4172C62.2657 59.3135 56.2775 48.5556 56.1526 45.8375Z" fill="white"/>
<path d="M83.4863 102.583C84.1355 102.358 84.0001 102.284 84.5067 102.503C86.4688 105.943 96.7758 128.581 96.3344 131.059C95.6896 131.538 94.8845 132.394 94.2677 132.957C80.509 145.516 61.1896 153.833 42.8738 153.927C42.3161 153.93 40.8414 153.982 40.4546 153.748L40.3863 153.458C40.5587 152.393 41.8566 150.859 42.5641 150.078C46.2691 145.986 50.4329 142.57 54.0253 138.329C55.3491 136.766 56.5184 135.07 57.8279 133.587C60.5872 130.462 63.6269 127.602 66.2506 124.316C69.812 119.543 73.4632 115.035 77.412 110.605C78.6163 109.253 79.6897 107.38 80.8627 105.944C81.7028 104.915 82.7812 103.775 83.4496 102.646L83.4863 102.583Z" fill="white"/>
<path d="M112.183 51.7342C113.983 51.646 116.954 53.0408 118.668 53.7857C123.478 55.8068 127.961 59.327 132.094 62.5116C134.448 64.3255 146.547 79.1156 145.539 81.5319C144.491 81.8947 134.646 79.8158 132.614 79.4215C128.326 78.5889 125.366 78.771 121.069 78.7515C117.517 78.7008 113.964 78.721 110.413 78.8116C109.716 78.8275 108.745 79.047 108.017 79.1467C103.939 79.7053 99.8131 80.3694 95.756 81.06C90.7683 81.9089 85.8043 83.1276 80.8421 84.1243C80.2156 84.2501 79.5026 84.3236 79.2344 83.6429C79.5406 82.4654 81.2139 80.8803 81.9829 79.8692C84.5974 76.4317 87.4483 73.2358 90.5783 70.3123C93.6466 67.4654 96.0716 63.9193 99.252 61.212C102.695 58.2811 106.163 55.0088 109.951 52.5818C110.609 52.1609 111.439 51.9301 112.183 51.7342Z" fill="#4A0072"/>
<path d="M72.1192 89.2722L72.5046 89.4393L72.6384 89.797C72.5382 91.2804 65.1568 101.666 63.7576 103.089C62.62 104.245 59.8906 108.156 58.7603 109.409C55.536 112.982 52.1229 117.005 48.5544 120.155C47.4129 120.716 45.1264 123.194 44.1983 123.592C38.6892 125.951 24.571 114.215 21.6064 111.609C20.8512 110.985 20.1019 110.353 19.3586 109.714C17.9782 108.507 10.0624 99.4507 9.94156 98.0493C10.708 97.1931 14.6587 98.0585 15.8473 98.1295C17.9225 98.2535 19.9876 98.3303 22.0644 98.3914C31.9156 98.6828 41.759 97.5751 51.328 95.0984C53.2916 94.6118 55.2098 93.8724 57.1585 93.3709C62.1111 92.0966 67.2205 90.7459 72.1192 89.2722Z" fill="#4A0072"/>
<path d="M65.0581 0.360046C67.6466 0.582713 69.3211 0.986256 71.33 2.8306C73.4344 4.72595 74.7119 7.44131 74.8673 10.3491C75.0204 12.8497 74.2977 15.6802 72.6499 17.4965C70.0922 20.3158 68.5324 20.9876 64.9175 21.2025C56.5948 21.2973 52.3232 11.7304 56.7123 4.68957C58.6402 1.59719 61.8583 0.933946 65.0581 0.360046Z" fill="#FF2D78"/>
<path d="M139.097 89.6125C142.555 89.4248 145.842 91.2084 147.699 94.2802C149.555 97.3519 149.694 101.236 148.061 104.445C146.428 107.654 143.277 109.691 139.815 109.775C134.566 109.903 130.193 105.579 129.996 100.066C129.8 94.5533 133.854 89.8971 139.097 89.6125Z" fill="white"/>
<path d="M86.1618 153.059C99.4563 153.817 98.4325 171.227 87.4877 172.372C74.5683 173.071 74.1774 154.072 86.1618 153.059Z" fill="#FF2D78"/>
<path d="M0 78.8823C0.595698 78.1545 1.04838 76.5855 1.40007 75.6307C3.50588 69.9143 11.4678 68.5036 15.8133 72.1221C19.9636 75.5781 20.7668 82.1512 17.4076 86.5251C15.8698 88.5375 13.6214 89.8092 11.1759 90.0499C8.28562 90.3596 6.2127 89.6921 3.84018 87.9188C1.28278 86.0075 1.39746 83.0916 0 81.2492V78.8823Z" fill="white"/>
</g>
</g>
<defs>
<clipPath id="clip0_30_1239">
<rect width="150" height="173" fill="white"/>
</clipPath>
</defs>
</svg>
