<svg width="150" height="173" viewBox="0 0 150 173" fill="none" xmlns="http://www.w3.org/2000/svg">
<g clip-path="url(#clip0_27_384)">
<mask id="mask0_27_384" style="mask-type:luminance" maskUnits="userSpaceOnUse" x="0" y="0" width="150" height="173">
<path d="M150 0H0V173H150V0Z" fill="white"/>
</mask>
<g mask="url(#mask0_27_384)">
<path d="M68.9312 72.9417C69.54 74.4939 74.3513 83.674 73.8553 84.6124C73.4674 84.8042 72.9398 84.9523 72.512 84.9523C57.6421 84.9527 33.3274 85.4203 31.9719 64.3242C30.9132 47.8476 36.8227 31.8932 44.974 18.1657C45.2003 17.7844 45.5776 17.6248 45.9737 17.6034C46.7445 18.1754 46.6861 19.3854 47.0101 20.25C48.8779 25.2333 50.1698 30.4066 52.11 35.3608C53.142 37.9957 54.198 40.6193 55.2169 43.259C55.5192 44.0447 55.9395 44.8983 56.122 45.6999L56.1525 45.8374C56.2774 48.5555 62.2656 59.3133 63.6882 62.417C64.5106 64.2114 67.9221 72.0299 68.9312 72.9417Z" fill="#00E5C8"/>
<path d="M83.4863 102.583L83.4821 102.428C83.3685 99.0159 77.6962 91.409 79.0373 89.3374C79.6568 88.9374 80.729 88.8999 81.4508 88.9659C85.5257 89.339 89.7689 89.0681 93.8206 89.5067C96.1128 89.7356 98.388 90.1238 100.631 90.6686C120.473 95.6404 121.023 108.43 117.741 126.972C117.346 129.203 116.342 131.257 115.748 133.351C113.692 140.603 110.479 147.285 106.417 153.519C105.993 154.17 104.795 156.22 104.266 156.624C102.297 156.79 101.866 149.632 101.402 147.985C99.8842 142.599 98.5363 136.164 96.3344 131.06C96.7758 128.581 86.4689 105.943 84.5067 102.503C84.0002 102.284 84.1355 102.358 83.4863 102.583Z" fill="#00E5C8"/>
<path d="M56.1526 45.8374C56.4066 45.249 56.4116 44.2277 56.7231 43.8577C59.5462 40.5058 63.5086 38.496 66.8493 35.7818C67.2299 35.4728 67.6589 35.2039 68.0572 34.9227C75.8733 30.1019 84.2183 25.8009 92.8923 22.9807C94.7386 22.3793 96.5353 21.4351 98.3999 20.871C102.881 19.5494 107.487 18.6113 112.12 18.1238C113.2 18.0101 115.158 17.6809 116.134 18.1835C116.564 19.7447 109.216 26.8953 107.787 28.469L89.1171 49.0562C87.9561 50.3591 86.9262 51.9342 85.7754 53.273L68.9313 72.9417C67.9222 72.0299 64.5107 64.2114 63.6883 62.4171C62.2657 59.3134 56.2775 48.5555 56.1526 45.8374Z" fill="white"/>
<path d="M83.4862 102.583C84.1354 102.358 84 102.284 84.5066 102.503C86.4687 105.943 96.7757 128.581 96.3343 131.059C95.6895 131.538 94.8844 132.394 94.2676 132.957C80.5089 145.516 61.1895 153.833 42.8737 153.927C42.316 153.93 40.8413 153.982 40.4545 153.748L40.3862 153.458C40.5586 152.393 41.8565 150.859 42.564 150.078C46.269 145.986 50.4328 142.57 54.0252 138.329C55.349 136.766 56.5183 135.07 57.8278 133.587C60.5871 130.462 63.6268 127.602 66.2505 124.316C69.8119 119.543 73.4631 115.035 77.4119 110.605C78.6162 109.253 79.6896 107.38 80.8626 105.944C81.7027 104.915 82.7811 103.775 83.4495 102.646L83.4862 102.583Z" fill="white"/>
<path d="M112.183 51.7341C113.983 51.6459 116.954 53.0407 118.668 53.7856C123.478 55.8067 127.961 59.3269 132.094 62.5115C134.448 64.3254 146.547 79.1155 145.539 81.5318C144.491 81.8946 134.646 79.8157 132.614 79.4214C128.326 78.5888 125.366 78.7709 121.069 78.7514C117.517 78.7007 113.964 78.7209 110.413 78.8115C109.716 78.8274 108.745 79.0469 108.017 79.1466C103.939 79.7052 99.8131 80.3693 95.756 81.0599C90.7683 81.9088 85.8043 83.1275 80.8421 84.1242C80.2156 84.25 79.5026 84.3235 79.2344 83.6428C79.5406 82.4653 81.2139 80.8802 81.9829 79.8691C84.5974 76.4316 87.4483 73.2357 90.5783 70.3122C93.6466 67.4653 96.0716 63.9192 99.252 61.2119C102.695 58.281 106.163 55.0087 109.951 52.5817C110.609 52.1608 111.439 51.93 112.183 51.7341Z" fill="#4A0072"/>
<path d="M72.1193 89.2721L72.5047 89.4392L72.6385 89.7969C72.5383 91.2803 65.1569 101.666 63.7577 103.089C62.6201 104.245 59.8907 108.156 58.7604 109.409C55.5361 112.982 52.123 117.005 48.5545 120.155C47.413 120.716 45.1265 123.194 44.1984 123.592C38.6893 125.951 24.5711 114.215 21.6065 111.609C20.8513 110.985 20.102 110.353 19.3587 109.714C17.9783 108.507 10.0625 99.4506 9.94165 98.0492C10.7081 97.193 14.6588 98.0584 15.8474 98.1294C17.9226 98.2534 19.9877 98.3302 22.0645 98.3913C31.9157 98.6827 41.7591 97.575 51.3281 95.0983C53.2917 94.6117 55.2099 93.8723 57.1586 93.3708C62.1112 92.0965 67.2206 90.7458 72.1193 89.2721Z" fill="#4A0072"/>
<path d="M65.058 0.359985C67.6465 0.582652 69.3211 0.986195 71.33 2.83054C73.4344 4.72589 74.7119 7.44125 74.8673 10.349C75.0204 12.8496 74.2977 15.6801 72.6499 17.4964C70.0922 20.3157 68.5324 20.9875 64.9175 21.2024C56.5948 21.2972 52.3231 11.7303 56.7122 4.68951C58.6401 1.59713 61.8582 0.933885 65.058 0.359985Z" fill="#FF2D78"/>
<path d="M139.097 89.6125C142.555 89.4248 145.842 91.2084 147.699 94.2802C149.555 97.3519 149.694 101.236 148.061 104.445C146.428 107.654 143.277 109.691 139.815 109.775C134.566 109.903 130.193 105.579 129.996 100.066C129.8 94.5533 133.854 89.8971 139.097 89.6125Z" fill="#FF2D78"/>
<path d="M86.1617 153.059C99.4562 153.817 98.4324 171.227 87.4876 172.372C74.5682 173.071 74.1773 154.072 86.1617 153.059Z" fill="#4A0072"/>
<path d="M0 78.8823C0.595698 78.1545 1.04838 76.5855 1.40007 75.6307C3.50588 69.9143 11.4678 68.5036 15.8133 72.1221C19.9636 75.5781 20.7668 82.1512 17.4076 86.5251C15.8698 88.5375 13.6214 89.8092 11.1759 90.0499C8.28562 90.3596 6.2127 89.6921 3.84018 87.9188C1.28278 86.0075 1.39746 83.0916 0 81.2492V78.8823Z" fill="white"/>
</g>
</g>
<defs>
<clipPath id="clip0_27_384">
<rect width="150" height="173" fill="white"/>
</clipPath>
</defs>
</svg>
