<svg width="788" height="191" viewBox="0 0 788 191" fill="none" xmlns="http://www.w3.org/2000/svg">
<g clip-path="url(#clip0_11_1485)">
<path d="M68.9313 72.9418C69.5401 74.494 74.3514 83.6741 73.8554 84.6125C73.4675 84.8043 72.9399 84.9524 72.5121 84.9524C57.6422 84.9528 33.3275 85.4204 31.972 64.3243C30.9133 47.8477 36.8228 31.8933 44.9741 18.1658C45.2004 17.7845 45.5777 17.6249 45.9738 17.6035C46.7446 18.1755 46.6862 19.3855 47.0102 20.2501C48.878 25.2334 50.1699 30.4067 52.1101 35.3609C53.1421 37.9958 54.1981 40.6194 55.217 43.2591C55.5193 44.0448 55.9396 44.8984 56.1221 45.7L56.1526 45.8375C56.2775 48.5556 62.2657 59.3134 63.6883 62.4171C64.5107 64.2115 67.9222 72.03 68.9313 72.9418Z" fill="#02377F"/>
<path d="M83.4863 102.583L83.482 102.428C83.3685 99.0159 77.6962 91.4089 79.0373 89.3374C79.6567 88.9374 80.729 88.8998 81.4507 88.9659C85.5256 89.3389 89.7689 89.0681 93.8206 89.5067C96.1128 89.7356 98.388 90.1238 100.631 90.6686C120.473 95.6404 121.023 108.43 117.741 126.972C117.346 129.203 116.342 131.257 115.748 133.351C113.692 140.603 110.479 147.285 106.417 153.519C105.993 154.17 104.795 156.22 104.266 156.623C102.297 156.79 101.866 149.632 101.402 147.985C99.8842 142.599 98.5362 136.164 96.3344 131.06C96.7758 128.581 86.4689 105.943 84.5067 102.503C84.0002 102.284 84.1355 102.358 83.4863 102.583Z" fill="#02377F"/>
<path d="M56.1526 45.8374C56.4066 45.249 56.4116 44.2278 56.7231 43.8578C59.5462 40.5058 63.5086 38.496 66.8493 35.7819C67.2299 35.4728 67.6589 35.2039 68.0572 34.9227C75.8733 30.102 84.2183 25.801 92.8923 22.9808C94.7386 22.3793 96.5353 21.4352 98.3999 20.8711C102.881 19.5494 107.487 18.6113 112.12 18.1239C113.2 18.0101 115.158 17.6809 116.134 18.1836C116.564 19.7448 109.216 26.8953 107.787 28.4691L89.1171 49.0563C87.9561 50.3591 86.9262 51.9343 85.7754 53.2731L68.9313 72.9418C67.9222 72.03 64.5107 64.2115 63.6883 62.4171C62.2657 59.3134 56.2775 48.5556 56.1526 45.8374Z" fill="#02377F"/>
<path d="M83.4863 102.583C84.1355 102.358 84.0001 102.284 84.5067 102.503C86.4688 105.943 96.7758 128.581 96.3344 131.06C95.6896 131.538 94.8845 132.394 94.2677 132.957C80.509 145.516 61.1896 153.833 42.8738 153.927C42.3161 153.93 40.8415 153.982 40.4546 153.748L40.3863 153.458C40.5587 152.393 41.8566 150.859 42.5641 150.078C46.2691 145.986 50.433 142.57 54.0253 138.329C55.3491 136.766 56.5184 135.07 57.8279 133.587C60.5873 130.462 63.627 127.602 66.2506 124.316C69.812 119.543 73.4632 115.035 77.412 110.605C78.6163 109.254 79.6897 107.38 80.8627 105.944C81.7028 104.915 82.7812 103.775 83.4497 102.646L83.4863 102.583Z" fill="#02377F"/>
<path d="M112.183 51.7342C113.983 51.646 116.954 53.0408 118.668 53.7857C123.478 55.8068 127.961 59.327 132.094 62.5116C134.448 64.3255 146.547 79.1156 145.539 81.5319C144.491 81.8947 134.646 79.8158 132.614 79.4215C128.326 78.5889 125.366 78.771 121.069 78.7515C117.517 78.7008 113.964 78.721 110.413 78.8116C109.716 78.8275 108.745 79.047 108.017 79.1467C103.939 79.7053 99.8131 80.3694 95.756 81.06C90.7683 81.9089 85.8043 83.1276 80.8421 84.1243C80.2156 84.2501 79.5026 84.3236 79.2344 83.6429C79.5406 82.4654 81.2139 80.8803 81.9829 79.8692C84.5974 76.4317 87.4483 73.2358 90.5783 70.3123C93.6466 67.4654 96.0716 63.9193 99.252 61.212C102.695 58.2811 106.163 55.0088 109.951 52.5818C110.609 52.1609 111.439 51.9301 112.183 51.7342Z" fill="#02377F"/>
<path d="M72.1192 89.2722L72.5046 89.4393L72.6384 89.797C72.5382 91.2804 65.1568 101.666 63.7576 103.089C62.62 104.245 59.8906 108.156 58.7603 109.409C55.536 112.982 52.1229 117.005 48.5544 120.155C47.4129 120.716 45.1264 123.194 44.1983 123.592C38.6892 125.951 24.571 114.215 21.6064 111.609C20.8512 110.985 20.1019 110.353 19.3586 109.714C17.9782 108.507 10.0624 99.4507 9.94156 98.0493C10.708 97.1931 14.6587 98.0585 15.8473 98.1295C17.9225 98.2535 19.9876 98.3303 22.0644 98.3914C31.9156 98.6828 41.759 97.5751 51.328 95.0984C53.2916 94.6118 55.2098 93.8724 57.1585 93.3709C62.1111 92.0966 67.2205 90.7459 72.1192 89.2722Z" fill="#02377F"/>
<path d="M65.0581 0.360046C67.6466 0.582713 69.3211 0.986256 71.33 2.8306C73.4344 4.72595 74.7119 7.44131 74.8673 10.3491C75.0204 12.8497 74.2977 15.6802 72.6499 17.4965C70.0922 20.3158 68.5324 20.9876 64.9175 21.2025C56.5948 21.2973 52.3232 11.7304 56.7123 4.68957C58.6402 1.59719 61.8583 0.933946 65.0581 0.360046Z" fill="#02377F"/>
<path d="M139.097 89.6125C142.555 89.4248 145.842 91.2084 147.699 94.2802C149.555 97.3519 149.694 101.236 148.061 104.445C146.428 107.654 143.277 109.691 139.815 109.775C134.566 109.903 130.193 105.579 129.996 100.066C129.8 94.5533 133.854 89.8971 139.097 89.6125Z" fill="#02377F"/>
<path d="M86.1618 153.059C99.4563 153.817 98.4325 171.227 87.4877 172.372C74.5683 173.071 74.1774 154.072 86.1618 153.059Z" fill="#02377F"/>
<path d="M0 78.8823C0.595698 78.1545 1.04838 76.5855 1.40007 75.6307C3.50588 69.9143 11.4678 68.5036 15.8133 72.1221C19.9636 75.5781 20.7668 82.1512 17.4076 86.5251C15.8698 88.5375 13.6214 89.8092 11.1759 90.0499C8.28562 90.3596 6.2127 89.6921 3.84018 87.9188C1.28278 86.0075 1.39746 83.0916 0 81.2492V78.8823Z" fill="#02377F"/>
</g>
<path d="M291.523 37.2215C306.796 35.464 320.59 46.4508 322.289 61.7269C323.988 77.0031 312.945 90.7504 297.658 92.3897C282.454 94.0202 268.795 83.0533 267.105 67.8607C265.416 52.6678 276.332 38.9694 291.523 37.2215ZM296.963 79.7062C300.987 78.8465 304.137 77.9919 306.388 74.1983C312.866 63.2825 306.718 48.5446 292.957 49.7541C288.923 50.8555 284.388 53.1575 282.645 57.0346C277.136 69.2904 283.437 80.6224 296.963 79.7062Z" fill="#02377F"/>
<path d="M630.334 42.067C642.918 40.713 653.088 47.6178 654.925 60.5038C655.458 64.4067 655.088 68.3525 654.898 72.2151C653.998 90.3727 629.519 98.9284 618.218 84.24C618.301 87.24 618.342 90.2411 618.348 93.2423C618.303 96.859 618.081 104.783 618.585 108.124C616.069 108.265 612.665 108.148 610.084 108.134C610.324 104.732 610.193 100.423 610.199 96.9561C610.262 91.3763 610.288 85.7964 610.276 80.2163C610.273 68.2132 610.549 54.6505 610.107 42.775C612.958 42.6113 615.548 42.6648 618.401 42.7289C618.223 45.2346 618.203 46.8488 618.292 49.3607C622.159 45.1271 624.905 43.6275 630.334 42.067ZM635.285 83.9266C639.766 82.6057 642.335 80.8698 644.847 76.6648C647.209 72.7098 647.327 63.9999 646.033 59.6468C644.915 55.9377 642.376 52.8204 638.968 50.9749C636.153 49.4712 633.202 49.0956 630.058 49.4552C626.262 50.7091 621.673 52.9395 620.09 56.909C615.328 68.8596 619.136 85.7828 635.285 83.9266Z" fill="#02377F"/>
<path d="M401.736 37.676L401.829 37.6691C413.809 36.8684 427.425 41.392 427.677 55.3742C427.89 67.2019 427.065 79.3015 427.792 91.1357C425.696 91.1743 416.433 91.4939 415.199 90.6147C414.704 89.2553 414.806 87.1135 414.793 85.6098C413.755 86.471 412.702 87.3137 411.634 88.1382C407.019 91.6512 399.927 92.6119 394.26 91.8203C388.575 91.0264 385.375 88.9427 382.006 84.5126C379.839 80.3425 378.935 76.4796 380.168 71.8418C383.824 58.0815 403.338 57.8863 414.228 60.7529C414.208 58.333 414.166 57.047 413.809 54.6627C412.491 52.8764 411.48 51.3594 409.419 50.3845C402.466 47.0956 394.563 50.1836 388.728 53.9751C386.828 50.8655 384.752 47.8665 382.512 44.9925C388.986 40.2857 393.776 38.287 401.736 37.676ZM406.128 81.8364C412.5 79.2583 414.398 76.8007 414.452 69.9806C409.404 68.5782 406 68.0014 400.668 68.4686C386.398 72.1531 393.501 84.7584 406.128 81.8364Z" fill="#02377F"/>
<path d="M684.485 41.8216C689.457 41.1493 696.729 43.4228 700.75 46.5285C711.545 54.8671 712.389 72.7527 704.306 83.1831C699.615 89.2342 694.554 90.8055 687.188 91.7045C654.424 92.5467 652.572 44.455 684.485 41.8216ZM686.696 84.2679C709.308 80.7445 703.586 47.2554 684.678 49.2114C666.727 51.2477 665.201 77.9178 681.309 83.6286C682.616 84.0916 685.119 84.4453 686.512 84.2913C686.574 84.2845 686.634 84.2765 686.696 84.2679Z" fill="#02377F"/>
<path d="M468.804 23.9593C471.896 23.8368 474.993 23.8423 478.085 23.9756C478.784 26.7482 481.774 33.4042 482.941 36.3741L495.378 67.3322L501.588 83.0989C502.409 85.1654 503.92 89.3074 505.031 91.0255C501.736 91.0602 498.267 91.2122 494.998 90.9387C492.933 85.3396 490.755 79.7832 488.465 74.2727C486.1 74.0558 481.403 74.2436 478.87 74.273L457.739 74.2419C455.856 79.6635 453.067 85.2294 451.147 91.115C448.069 90.9429 444.941 90.9867 441.861 91.0474C443.598 85.8394 445.887 80.639 447.952 75.5589L457.366 52.3464C459.294 47.6208 466.688 26.2099 468.804 23.9593ZM460.247 66.552C464.651 66.9122 469.664 66.8346 474.129 66.8123L485.993 66.6826C483.972 62.5421 474.353 34.3294 473.083 33.5716C468.735 44.0076 464.206 55.9003 460.247 66.552Z" fill="#02377F"/>
<path d="M237.267 37.6732C237.867 37.6402 238.468 37.6228 239.069 37.621C244.202 37.6167 249.737 38.9682 253.403 42.7188C259.846 49.3107 258.589 60.425 258.566 68.8265L258.539 91.1921C253.892 91.1026 249.244 91.1251 244.598 91.2599C244.119 79.748 244.717 67.7734 244.317 56.1459C239.776 48.7395 232.894 47.4111 226.043 53.0488L225.92 53.1685C224.438 54.6129 223.651 55.6071 223.255 57.6695C222.093 63.7331 222.513 70.8542 222.598 76.9821C222.669 81.67 222.665 86.3584 222.587 91.046C218.293 91.2332 213.159 91.1293 208.8 91.1515C207.983 74.3225 209.284 55.6317 208.561 38.7031L222.158 38.685L222.208 46.0273C226.884 40.6452 229.966 38.3468 237.267 37.6732Z" fill="#02377F"/>
<path d="M578.867 41.8224C587.445 40.5748 598.305 45.4943 599.576 54.7488C600.252 59.6645 600.015 64.191 599.994 69.1227C599.953 76.4482 599.979 83.774 600.068 91.099C597.425 91.0483 594.862 90.9992 592.219 91.0566C592.266 88.5058 592.225 87.2385 591.914 84.711C589.819 86.9097 587.46 88.9335 584.598 90.0103C576.061 93.2233 564.691 92.2573 560.736 82.9478C559.53 80.3534 559.124 77.4595 559.571 74.6344C562.039 59.0744 580.606 60.8717 591.988 62.8381C591.766 59.9092 591.855 57.1803 590.45 54.5453C589.208 52.1749 587.06 50.4081 584.494 49.6483C578.028 47.7453 571.655 50.8294 566.14 53.8107C565.382 51.8372 563.598 49.3201 562.389 47.4869C568.167 44.4725 572.307 42.357 578.867 41.8224ZM568.315 79.0699C571.115 83.2248 576.04 85.8462 581.083 84.3887C585.688 82.963 589.354 80.7175 591.846 76.3638C591.855 74.3449 591.828 72.154 591.893 70.1512C587.973 68.6617 583.451 67.5224 579.226 68.1774C571.747 68.8703 567.764 71.0932 568.315 79.0699Z" fill="#02377F"/>
<path d="M365.389 38.5721C369.619 38.5845 373.848 38.6423 378.077 38.7455C374.403 47.6739 370.585 57.3587 367.169 66.3535C364.754 72.7127 359.68 84.7969 358.24 91.0587C355.524 91.3108 346.153 91.2468 343.445 91.1141C341.907 88.3426 339.288 80.2492 338.012 76.8235C335.706 70.6341 333.274 64.5186 330.92 58.3558C329.82 55.3822 324.136 40.5231 322.809 38.7943C327.686 38.6072 332.566 38.5686 337.444 38.6788C338.433 40.3421 339.76 45.1235 340.552 47.3317C343.885 56.6228 347.877 66.6553 350.509 76.1312C352.692 73.1618 354.486 65.1949 355.924 61.3282C358.607 54.1137 361.269 46.776 363.336 39.3779C363.466 38.9117 364.953 38.677 365.389 38.5721Z" fill="#02377F"/>
<path d="M182.57 18.9536C186.947 18.7609 192.358 18.9588 196.994 18.84C197.539 33.76 196.791 49.2312 197.104 64.1978C197.287 72.9918 197.224 82.3287 196.97 91.1277L182.807 91.1103C182.254 87.5718 182.511 71.9668 182.512 67.4255L182.57 18.9536Z" fill="#02377F"/>
<path d="M533.641 41.8287C538.017 41.5067 543.632 43.1987 546.776 46.2639C553.138 52.4664 552.045 61.9313 552.021 70.0706C551.956 77.0576 551.974 84.0448 552.068 91.0312C549.369 91.1079 546.699 90.865 543.982 91.0715C543.286 80.8677 544.625 69.2539 543.526 59.1678C542.456 49.3518 532.432 46.8824 524.164 52.1278C517.557 56.5929 518.789 65.3922 518.828 72.4316L518.979 91.1858C516.14 91.1888 513.53 91.1704 510.697 91.0276C510.258 81.3183 510.697 70.5014 510.593 60.7002C510.531 54.7456 510.881 48.8817 510.46 42.875C513.017 42.6498 516.208 42.7233 518.825 42.72C518.819 45.3483 518.869 47.3463 519.08 49.9621C522.544 44.5869 527.394 42.2264 533.641 41.8287Z" fill="#02377F"/>
<path d="M768.784 41.8229C773.359 41.4677 779.67 43.4308 783.54 45.9392C786.198 47.66 781.987 51.7809 780.574 53.3927C777.252 50.5836 774.615 49.499 770.437 49.0867C766.938 48.7416 761.456 50.7379 761.88 54.945C762.662 62.7199 778.663 62.9773 783.173 68.9716C785.386 71.9141 786.314 73.3339 786.204 77.1014C786.323 89.3536 777.101 91.6838 766.692 91.4898C760.354 90.8923 756.857 89.1922 751.843 85.4804C753.094 83.5303 754.448 81.2783 755.965 79.5667C762.253 83.5303 771.068 87.9513 777.211 81.2389C778.047 80.3274 778.589 78.4943 778.301 77.2919C776.426 69.4586 762.683 69.8923 757.462 64.4259C755.088 62.3138 753.867 60.0482 753.684 56.7689C753.118 46.6048 759.631 42.4553 768.784 41.8229Z" fill="#02377F"/>
<path d="M497.63 120.433L286.606 120.448L214.729 120.429C204.95 120.415 195.141 120.492 185.359 120.529C184.159 120.534 182.916 120.335 181.822 119.82L181.797 119.348C183.827 117.828 208.672 118.729 213.006 118.731L286.674 118.69L497.917 118.556C496.61 118.692 495.303 118.815 493.997 118.924C495.01 119.333 499.218 119.186 500.581 119.154C503.31 119.091 504.116 119.62 506.439 119.908C503.345 119.956 498.987 119.685 496.145 119.854L495.979 120.199L495.543 120.004C496.234 120.169 496.93 120.312 497.63 120.433Z" fill="#02377F"/>
<path d="M718.787 23.7048C721.24 23.6352 724.005 23.7081 726.479 23.7183C725.839 41.1098 726.606 58.7957 726.189 76.2145C726.141 78.1981 726.509 90.344 726.037 91.0662L724.811 91.1337L717.933 90.924C717.672 87.9785 717.729 24.322 717.824 24.0294L718.787 23.7048Z" fill="#02377F"/>
<path d="M744.062 42.73L745.182 42.8172C745.582 43.5197 745.304 51.5401 745.298 52.9709L745.271 91.118L738.441 90.995C737.754 91.067 737.603 91.056 736.918 90.9568C736.557 90.4618 736.64 46.9016 736.619 42.9102C738.551 42.6943 742.009 42.7512 744.062 42.73Z" fill="#02377F"/>
<path d="M497.917 118.556L604.715 118.432L647.787 118.457C650.711 118.461 666.069 117.986 667.192 118.956L667.477 119.946C666.866 120.837 665.737 120.56 664.715 120.534C661.506 120.454 658.294 120.478 655.085 120.475L621.853 120.461L497.63 120.433C496.93 120.312 496.234 120.169 495.543 120.004L495.979 120.199L496.145 119.854C498.987 119.685 503.345 119.956 506.439 119.908C504.116 119.62 503.31 119.091 500.581 119.154C499.218 119.186 495.01 119.333 493.997 118.924C495.303 118.815 496.61 118.692 497.917 118.556Z" fill="#02377F"/>
<path d="M470.854 155.345C467.832 152.452 467.732 147.658 470.63 144.642C473.529 141.626 478.325 141.534 481.338 144.436C484.349 147.339 484.432 152.134 481.525 155.14C478.63 158.132 473.861 158.224 470.854 155.345ZM473.052 154.246C474.758 155.027 476.354 155.227 478.2 154.652C480.363 152.883 482.171 150.679 480.926 147.727C480.417 146.529 479.454 145.581 478.248 145.09C476.028 144.191 474.78 144.692 472.725 145.579C470.139 149.255 470.518 150.686 473.052 154.246Z" fill="#02377F"/>
<path d="M473.052 154.246C474.758 155.027 476.354 155.227 478.2 154.652C479.285 154.777 480.482 154.863 481.525 155.14C478.63 158.132 473.861 158.224 470.854 155.345C471.57 155.08 472.37 154.614 473.052 154.246Z" fill="#02377F"/>
<path d="M252.13 143.316C255.112 141.567 258.902 142.07 261.325 144.535C264.088 147.347 264.219 151.812 261.625 154.78C259.031 157.749 254.588 158.219 251.43 155.859C248.272 153.499 247.465 149.106 249.578 145.778C250.22 144.766 251.095 143.922 252.13 143.316ZM252.713 145.674C251.684 146.475 250.992 147.631 250.771 148.915C250.356 151.331 251.675 153.71 253.943 154.639C256.212 155.568 258.821 154.797 260.22 152.785C261.62 150.772 261.433 148.058 259.772 146.256C258.791 145.193 257.414 144.583 255.967 144.571C254.789 144.562 253.642 144.951 252.713 145.674Z" fill="#02377F"/>
<path d="M252.13 143.316C255.112 141.567 258.902 142.07 261.325 144.535C260.806 145.472 260.62 145.617 259.772 146.256C258.791 145.193 257.414 144.583 255.967 144.571C254.789 144.562 253.642 144.951 252.713 145.674C252.942 144.715 252.579 144.403 252.13 143.316Z" fill="#02377F"/>
<path d="M252.13 143.316C252.579 144.403 252.942 144.715 252.713 145.674C251.684 146.475 250.992 147.631 250.771 148.915C250.036 147.815 250.409 147.431 250.264 146.066L249.578 145.778C250.22 144.766 251.095 143.922 252.13 143.316Z" fill="#02377F"/>
<path d="M530.251 143.72C532.903 141.887 536.432 141.963 539.001 143.911C541.579 145.864 542.604 149.255 541.54 152.308C540.477 155.362 537.567 157.383 534.331 157.313C531.098 157.242 528.277 155.097 527.347 152C526.419 148.903 527.59 145.56 530.251 143.72ZM540.017 150.086C539.413 148.276 538.696 146.99 537.579 145.461C532.106 143.063 532.366 146.408 530.449 146.511C529.14 149.23 529.516 153.033 532.435 154.512C533.516 155.052 534.77 155.135 535.913 154.743C538.358 153.92 538.974 152.23 540.017 150.086Z" fill="#02377F"/>
<path d="M530.251 143.72C532.903 141.887 536.432 141.963 539.001 143.911C538.675 144.272 537.899 145.18 537.579 145.461C532.106 143.063 532.366 146.408 530.449 146.511C530.514 145.542 531.575 144.678 532.278 143.955L532.02 143.696L532.129 143.874L531.869 143.971L531.323 143.515C530.98 143.622 530.609 143.665 530.251 143.72Z" fill="#02377F"/>
<path d="M342.265 170.434C346.331 169.738 350.189 172.479 350.868 176.547C351.547 180.614 348.79 184.459 344.719 185.122C340.67 185.78 336.851 183.043 336.176 178.999C335.5 174.955 338.223 171.125 342.265 170.434ZM344.132 183.109C345.936 182.42 346.778 181.65 348.055 180.195C348.641 175.471 348.434 173.419 343.119 172.399C341.505 172.765 340.17 173.201 339.222 174.678C338.432 175.904 338.167 177.396 338.488 178.818C339.145 181.816 341.235 183 344.132 183.109Z" fill="#02377F"/>
<path d="M430.138 142.453C434.126 141.802 437.905 144.449 438.654 148.419C439.403 152.388 436.847 156.23 432.896 157.075C430.028 157.689 427.066 156.561 425.332 154.195C423.599 151.828 423.418 148.665 424.87 146.116C425.982 144.162 427.919 142.816 430.138 142.453ZM426.186 150.471C427.545 153.683 428.286 154.969 431.916 155.299C435.092 153.904 437.575 151.025 435.929 147.427C435.375 146.244 434.369 145.333 433.137 144.898C432.617 144.715 431.865 144.604 431.309 144.528C427.317 145.531 426.988 146.624 426.186 150.471Z" fill="#02377F"/>
<path d="M670.25 170.304C670.493 170.288 670.739 170.279 670.985 170.274C673.418 170.236 674.473 171.101 676.141 172.713C677.931 177.559 677.934 184.156 671.729 185.302C664.606 186.064 662.365 172.646 670.25 170.304ZM672.117 183.144C676.514 180.475 676.085 172.138 670.529 172.326C665.693 175.173 666.416 182.827 672.117 183.144Z" fill="#02377F"/>
<path d="M564.039 170.377C567.305 170.042 568.093 170.214 570.431 172.523C572.236 174.407 571.447 179.583 571.044 181.998C563.082 192.135 554.566 176.264 564.039 170.377ZM565.98 172.3C561.85 173.96 561.627 176.771 562.78 180.979C563.219 182.576 565.459 183.658 566.952 182.845C570.449 181.036 569.717 176.637 568.41 173.783C567.723 173.073 566.869 172.733 565.98 172.3Z" fill="#02377F"/>
<path d="M564.04 170.377C567.305 170.042 568.093 170.214 570.431 172.523L569.85 173.436C569.355 173.542 568.896 173.632 568.41 173.783C567.723 173.073 566.869 172.733 565.98 172.3C565.702 172.237 564.528 170.844 564.04 170.377Z" fill="#02377F"/>
<path d="M635.585 173.73C637.84 169.654 641.366 169.252 644.924 171.986C646.874 174.344 646.747 176.407 646.462 179.374C646.373 180.24 646.255 181.103 646.104 181.96C639.392 190.123 633.445 182.023 635.585 173.73ZM643.407 173.489C640.326 171.701 639.06 172.364 637.271 175.237C637.22 176.961 637.031 178.402 637.594 180.145C638.788 183.821 642.189 184.542 643.825 180.61C644.835 178.178 644.43 175.937 643.407 173.489Z" fill="#02377F"/>
<path d="M635.585 173.73C637.84 169.654 641.366 169.252 644.924 171.986C644.64 172.256 643.57 173.24 643.407 173.489C640.326 171.701 639.06 172.364 637.271 175.237L635.585 173.73Z" fill="#02377F"/>
<path d="M320.273 142.775C322.86 142.611 329.263 141.939 330.652 144.895C332.066 147.905 330.851 150.111 328.02 151.572L328.769 152.648C329.431 153.605 331.152 155.811 330.953 156.898C330.239 157.251 329.977 157.15 329.176 156.997C327.751 155.67 325.407 150.32 323.075 151.369C321.869 152.778 322.994 155.035 322.452 156.881C321.551 157.287 321.923 157.226 320.939 157.129C320.367 156.298 320.328 144.759 320.273 142.775ZM322.644 149.748C324.814 149.798 326.033 149.904 328.133 149.175C330.765 144.437 325.836 144.35 322.654 144.6C322.633 146.292 322.582 148.063 322.644 149.748Z" fill="#02377F"/>
<path d="M583.993 23.9656C586.713 23.7303 590.88 23.9343 593.683 24.0401C590.533 27.7607 586.885 31.4938 583.928 35.2143L583.872 35.2706C582.461 36.6384 578.669 36.4358 576.497 36.3937L576.369 35.5116C576.808 34.4475 583.22 24.7915 583.993 23.9656Z" fill="#02377F"/>
<path d="M321.95 177.278C322.706 175.403 324.01 170.908 325.479 170.204C327.529 170.294 328.166 172.334 328.829 174.018C330.188 177.467 331.679 180.979 332.889 184.475L332.793 185.009C329.656 185.748 330.71 182.122 327.758 181.601C326.237 181.539 324.271 181.587 322.717 181.585C322.393 182.848 322.263 184.124 321.283 184.897C320.236 185.156 320.575 185.216 319.666 184.883C318.921 183.407 321.27 178.915 321.95 177.278ZM323.623 178.533C323.49 179.036 323.313 179.32 323.466 179.727C324.421 179.518 327.7 179.644 328.847 179.662C327.885 177.742 326.962 175.295 326.166 173.263C325.285 175.004 324.437 176.761 323.623 178.533Z" fill="#02377F"/>
<path d="M321.95 177.278C322.79 178.283 322.52 178.271 323.623 178.533C323.49 179.036 323.313 179.32 323.466 179.727C324.373 180.514 326.521 181.107 327.758 181.601C326.237 181.539 324.271 181.587 322.717 181.585C322.393 182.848 322.263 184.124 321.283 184.897C320.236 185.156 320.575 185.216 319.666 184.883C318.921 183.407 321.27 178.915 321.95 177.278Z" fill="#02377F"/>
<path d="M215.348 156.432C215.259 156.609 214.958 156.84 214.791 156.986C213.816 156.993 213.529 157.18 212.911 156.645C213.213 155.208 217.341 144.043 218.656 142.859C219.223 142.348 219.547 142.396 220.194 142.481C221.315 143.293 223.874 150.162 224.465 151.808C225.19 153.201 226.859 155.674 225.901 157.174C225.026 157.491 225.332 157.421 224.285 157.12C223.715 156.547 223.358 156.137 223.579 155.206C222.871 153.955 223.244 154.223 222.017 153.666C220.15 153.667 218.164 153.63 216.309 153.746C216.034 154.525 215.656 155.704 215.348 156.432ZM217.198 151.205L217.449 151.561C218.907 151.787 220.537 151.672 222.022 151.618C221.17 149.669 220.394 147.224 219.502 145.101C218.78 147.106 218.053 149.263 217.198 151.205Z" fill="#02377F"/>
<path d="M215.348 156.432C215.369 154.936 215.492 151.857 217.198 151.205L217.449 151.561C218.907 151.787 220.537 151.672 222.022 151.618L222.059 152.021C221.126 152.338 220.695 152.271 219.733 152.217C220.927 152.607 221.211 152.689 222.017 153.666C220.15 153.667 218.164 153.63 216.309 153.746C216.034 154.525 215.656 155.704 215.348 156.432Z" fill="#02377F"/>
<path d="M224.465 151.808C225.19 153.201 226.859 155.674 225.901 157.174C225.026 157.491 225.332 157.421 224.285 157.12C223.715 156.547 223.358 156.137 223.579 155.206L223.969 155.067C224.419 153.792 224.403 153.162 224.465 151.808Z" fill="#02377F"/>
<path d="M446.144 169.939C447.175 170.183 447.904 170.389 448.239 171.508C449.052 174.228 453.866 183.059 453.008 185.342C451.841 184.957 450.616 182.814 449.849 181.834C449.539 181.438 447.695 181.512 447.119 181.506C445.87 181.489 444.363 181.664 443.098 181.778C442.572 183.161 442.531 184.095 441.575 184.986C440.538 185.03 440.62 185.188 439.847 184.712C439.79 183.034 444.476 173.339 445.117 171.056C445.185 170.814 445.911 170.132 446.144 169.939ZM443.953 179.503L447.018 179.653C447.873 179.573 448.528 179.686 449.011 179.172C448.35 176.814 447.502 175.237 446.521 173.015C445.699 175.191 444.843 177.354 443.953 179.503Z" fill="#02377F"/>
<path d="M289.827 171.433C290.723 170.383 290.31 170.611 291.551 170.179C293.388 170.723 293.686 172.154 294.154 173.861C294.838 175.159 298.575 183.97 298.273 185.078C297.37 185.228 297.137 185.12 296.252 184.84C295.465 184.245 295.356 182.925 295.141 181.901C292.553 181.635 291.188 181.491 288.609 181.651C288.179 182.761 287.759 184.201 286.861 184.919C286.042 185.131 286.321 185.188 285.667 184.821C284.668 181.909 289.767 174.89 289.827 171.433ZM289.289 179.414C291.374 179.586 292.183 179.604 294.29 179.46C293.479 177.429 292.62 175.417 291.714 173.427L291.479 173.459L289.289 179.414Z" fill="#02377F"/>
<path d="M289.827 171.433C290.723 170.383 290.31 170.611 291.551 170.179C293.388 170.723 293.686 172.154 294.154 173.861C293.544 173.836 292.894 173.41 292.342 173.108L291.714 173.427L291.479 173.459C291.142 172.315 290.771 172.117 289.827 171.433Z" fill="#02377F"/>
<path d="M339.04 147.389C339.69 145.382 340.048 142.541 342.594 142.836C345.126 144.456 347.346 153.186 349.138 156.621C348.671 157.108 348.556 157.008 347.797 157.214C345.468 156.341 346.698 153.799 344.377 153.609C342.56 153.612 340.67 153.673 338.846 153.709C338.451 155.31 338.46 156.435 336.905 157.161C335.94 156.941 336.235 157.13 335.577 156.457C335.73 155.591 338.518 148.805 339.04 147.389ZM339.874 151.767C341.242 151.645 343.144 151.653 344.555 151.616C343.791 149.636 343.571 147.669 342.399 145.85L342.148 146.008C340.935 148.05 340.266 149.125 339.742 151.495L339.874 151.767Z" fill="#02377F"/>
<path d="M339.04 147.389C340.857 147.247 339.931 145.763 342.148 146.008C340.935 148.05 340.266 149.125 339.742 151.495L339.874 151.767C341.645 153.733 343.239 151.782 344.377 153.609C342.56 153.612 340.67 153.673 338.846 153.709C338.451 155.31 338.46 156.435 336.905 157.161C335.94 156.941 336.235 157.13 335.577 156.457C335.73 155.591 338.518 148.805 339.04 147.389Z" fill="#02377F"/>
<path d="M410.602 170.064C410.854 170.159 411.642 170.492 411.761 170.632C413.152 172.28 417.696 183.07 417.966 184.76L417.488 185.398L416.866 185.438C414.352 183.763 415.977 182.047 411.811 181.553C410.577 181.623 409.662 181.625 408.426 181.586C407.846 182.849 407.297 184.46 406.093 185.046C404.964 184.959 405.17 185.151 404.579 184.505C404.849 182.76 409.557 171.711 410.602 170.064ZM412.199 179.513L413.085 179.5C413.456 178.164 412.092 174.582 411.013 173.76C410.49 174.957 409.183 177.546 409.238 178.7C409.853 180.035 410.799 179.617 412.199 179.513Z" fill="#02377F"/>
<path d="M649.879 149.714C650.768 147.64 651.941 143.4 653.417 142.526C655.325 143.036 655.986 145.054 656.673 146.767C658.019 150.12 659.37 153.353 660.884 156.628C660.294 157.334 660.593 157.15 659.675 157.343C657.544 156.446 657.663 153.653 656.084 153.63C654.356 153.655 652.229 153.627 650.537 153.753C650.255 154.536 649.505 156.492 649.396 157.211C648.525 157.207 647.965 157.267 647.182 156.858C646.984 156.014 647.683 155.059 648.13 153.969C648.453 152.297 649.102 151.205 649.879 149.714ZM651.227 151.629L653.719 151.678C654.578 151.695 654.839 151.71 655.666 151.504C656.38 150.304 654.418 146.66 653.947 145.2C652.872 147.418 652.54 149.497 651.227 151.629Z" fill="#02377F"/>
<path d="M649.879 149.714L651.227 151.629L653.719 151.678C652.78 151.733 652.015 151.7 651.197 152.184L651.396 152.535C653.15 152.971 654.786 152.706 656.084 153.63C654.356 153.655 652.229 153.627 650.537 153.753C650.255 154.536 649.505 156.492 649.396 157.211C648.525 157.207 647.965 157.267 647.182 156.858C646.984 156.014 647.683 155.059 648.13 153.969C648.453 152.297 649.102 151.205 649.879 149.714Z" fill="#02377F"/>
<path d="M648.13 153.969C649.022 154.634 649.156 155.476 649.313 156.551C649.345 156.771 649.372 156.991 649.396 157.211C648.525 157.207 647.965 157.267 647.182 156.858C646.984 156.014 647.683 155.059 648.13 153.969Z" fill="#02377F"/>
<path d="M739.235 23.9654C742.05 23.535 744.821 23.9531 746.273 26.7227C746.862 27.8251 746.984 29.1195 746.608 30.3127C745.991 32.2608 744.859 32.9721 743.156 33.8545C736.622 35.4325 732.734 27.9917 739.235 23.9654Z" fill="#02377F"/>
<path d="M496.539 142.716C498.714 142.678 504.694 142.319 506.249 143.735L505.876 144.103C503.76 144.76 501.428 144.552 499.203 144.49L499.221 148.851C500.886 148.823 504.317 148.47 505.488 149.796L505.227 150.244C503.342 151.11 501.888 150.918 499.79 150.972L499.396 151.07C499.061 151.806 499.265 153.916 499.307 154.837C501.25 154.813 504.095 154.589 505.811 155.29C506.442 155.984 506.326 155.664 506.332 156.55C505.292 157.544 498.344 157.202 496.465 157.238C496.64 152.503 496.554 147.477 496.539 142.716Z" fill="#02377F"/>
<path d="M276.588 142.732C278.707 142.683 285.218 142.29 286.559 143.742C285.458 144.803 280.538 144.528 278.994 144.494L279.042 148.85C280.637 148.812 284.085 148.563 285.335 149.293L285.39 149.822C284.129 151.77 281.011 150.081 279.024 151.084L279.066 154.987C281.005 154.908 285.835 154.248 286.483 156.412L286.178 156.979C284.544 157.359 278.704 157.201 276.65 157.192C276.695 152.372 276.675 147.551 276.588 142.732Z" fill="#02377F"/>
<path d="M201.857 170.66C203.761 170.447 210.341 169.922 211.534 171.471L211.197 171.882C208.508 172.695 206.886 172.476 204.074 172.463L204.098 176.418C205.785 176.405 209.257 176.165 210.518 176.994L210.468 177.727C208.806 179.718 206.134 177.351 204.049 178.844L203.954 182.957C205.926 182.905 209.213 182.594 210.925 183.228C211.619 183.998 211.483 183.634 211.451 184.69C210.372 185.451 203.554 185.058 201.798 185.013C202.178 181.279 201.593 174.882 201.857 170.66Z" fill="#02377F"/>
<path d="M294.967 142.461C296.481 142.397 298.807 142.724 299.943 143.808C300.271 144.815 300.274 144.42 299.966 145.404C298.346 145.827 294.951 143.141 293.229 145.702C293.652 148.494 299.724 149.416 300.851 152.466C301.895 155.295 298.414 156.643 296.329 157.276C294.274 157.257 290.733 156.995 290.768 154.397L291.237 153.981C292.896 153.777 297.913 157.053 298.631 152.938C297.638 150.923 291.616 150.76 290.939 147.312C290.266 143.886 292.163 143.081 294.967 142.461Z" fill="#02377F"/>
<path d="M564.617 142.461C566.54 142.364 569.376 142.853 570.188 144.825C568.914 146.416 566.182 143.353 562.768 145.45C561.856 147.952 570.105 149.389 570.458 152.546C570.825 155.834 568.114 156.692 565.527 157.361C563.998 157.2 561.15 156.58 560.294 155.187C560.312 154.295 560.19 154.591 560.718 153.951C562.614 153.534 566.914 157.346 568.238 153.2C567.326 150.675 561.224 150.729 560.478 147.298C559.784 144.097 562.09 143.103 564.617 142.461Z" fill="#02377F"/>
<path d="M413.36 142.484C415.153 142.338 419.439 142.85 420.011 144.822C418.358 147.436 412.183 141.656 409.941 147.623C408.298 151.993 412.923 156.836 416.674 154.486C417.835 154.035 419.107 153.192 419.827 154.471C419.468 155.811 417.808 156.692 416.557 157.047C414.609 157.589 412.526 157.341 410.76 156.356C405.327 153.306 406.217 144.311 413.36 142.484Z" fill="#02377F"/>
<path d="M281.35 170.139L282.013 170.715C282.337 171.774 279.434 178.929 278.952 180.558C278.403 182.416 277.297 185.413 274.913 185.031C273.156 183.848 270.941 176.364 269.959 173.706C269.458 172.716 268.798 171.63 268.999 170.595C269.756 170.404 270.018 170.547 270.77 170.805C272.601 173.043 274.777 179.756 275.501 182.602C276.556 179.644 278.512 173.764 280.151 170.874C280.626 170.583 281.026 170.337 281.35 170.139Z" fill="#02377F"/>
<path d="M627.374 156.195C627.252 154.351 626.858 143.536 627.697 142.767C630.595 142.529 630.577 143.219 631.611 145.836C632.835 148.102 633.534 149.535 635.202 151.493C635.685 150.286 636.506 148.057 637.096 146.989C637.845 147.916 637.869 148.242 638.05 149.387C637.158 151.198 636.195 154.389 633.836 153.763C632.213 152.422 631.054 148.779 629.614 146.906C629.67 149.162 630.052 155.133 629.232 156.898L628.598 157.325C627.723 157.091 628.002 157.269 627.394 156.645L627.374 156.195Z" fill="#02377F"/>
<path d="M627.374 156.195C627.252 154.351 626.858 143.536 627.697 142.767C630.595 142.529 630.577 143.219 631.611 145.836C630.067 145.385 630.316 145.688 628.497 145.939C626.565 147.451 627.584 153.565 627.374 156.195Z" fill="#02377F"/>
<path d="M382.959 144.321C383.811 144.53 384.83 144.7 385.521 145.208C383.788 146.658 382.667 148.741 383.178 151.03C383.479 152.391 384.311 153.575 385.49 154.319C388.627 156.261 391.034 154.376 392.661 151.688C391.671 151.617 388.849 151.59 388.354 150.728C389.236 149.176 392.319 148.575 393.867 149.57C396.625 152.853 392.395 157.101 388.449 157.314C386.486 157.422 384.561 156.739 383.104 155.419C379.85 152.442 380.027 147.477 382.959 144.321Z" fill="#02377F"/>
<path d="M654.264 170.562C656.528 170.236 660.087 171.032 660.617 173.682C660.875 174.965 659.571 176.136 658.783 177.051C667.619 187.479 649.316 186.071 651.108 181.937L652.243 181.65C654.258 182.712 658.223 183.935 658.724 180.552C657.814 177.773 654.688 178.477 653.935 177.508C654.756 175.823 658.173 176.36 658.46 174.221C656.999 171.548 653.944 173.297 651.351 173.253L651.174 172.81C651.796 171.729 653.197 171.09 654.264 170.562Z" fill="#02377F"/>
<path d="M366.808 142.806C367.9 142.667 368.914 142.629 370.011 142.579C369.843 143.674 369.69 143.516 370.142 144.354L370.785 144.718C368.399 145.03 368.474 146.673 369.628 148.432C370.296 148.879 370.897 148.83 371.692 148.858C372.961 148.838 374.763 148.69 375.883 149.151L376.22 149.66C376.095 149.97 375.975 150.337 375.768 150.59C374.293 150.884 370.785 150.934 369.113 150.995C369.029 152.141 369.11 153.652 369.141 154.83C372.103 154.793 373.631 154.591 376.448 155.469L376.728 156.079C375.462 157.377 368.786 157.12 366.817 157.094C366.93 152.332 366.927 147.568 366.808 142.806Z" fill="#02377F"/>
<path d="M371.692 148.858C372.961 148.838 374.763 148.69 375.883 149.151L376.22 149.66C376.095 149.97 375.975 150.337 375.768 150.59C373.838 150.629 372.771 150.633 371.692 148.858Z" fill="#02377F"/>
<path d="M303.478 173.22C303.791 172.754 304.615 172.029 305.051 171.617L306.809 173.254C306.05 173.99 305.176 174.763 304.6 175.638C304.574 176.243 304.564 176.849 304.568 177.455C304.73 187.223 313.073 180.277 315.289 182.305C314.786 184.341 311.081 184.771 309.808 185.55C309.901 187.091 312.283 186.721 311.703 188.734C310.489 189.955 308.936 190.626 307.317 189.803C307.449 189.326 309.174 188.449 309.807 188.04L309.768 187.599L308.12 186.966C307.469 185.774 308.086 185.778 306.858 185.01C302.071 182.017 300.036 178.212 303.478 173.22Z" fill="#02377F"/>
<path d="M303.478 173.22C303.791 172.754 304.615 172.029 305.051 171.617L306.809 173.254C306.05 173.99 305.175 174.763 304.6 175.638C304.346 174.77 304.826 174.451 304.393 173.426L303.478 173.22Z" fill="#02377F"/>
<path d="M612.161 144.704C612.368 145.799 612.253 146.252 612.946 146.934C613.791 146.751 613.945 146.658 614.694 146.213C614.677 147.305 614.665 147.636 614.92 148.725C616.259 149.295 619.708 148.316 621.16 149.137L621.302 149.713C620.437 151.443 616.446 150.838 614.546 150.813C614.706 152.076 614.742 153.66 614.801 154.956C616.537 154.934 621.083 154.513 622.239 155.753C622.333 156.57 622.405 156.272 621.984 156.953C620.342 157.298 614.134 157.169 612.042 157.167C612.306 153.755 612.164 148.265 612.161 144.704Z" fill="#02377F"/>
<path d="M351.448 142.821C353.706 142.604 359.918 142.428 362.217 142.991C362.377 143.03 362.448 143.392 362.529 143.614L362.232 144.239C361.257 144.767 359.396 144.614 358.211 144.606L358.229 154.453C358.269 155.589 358.511 156.25 357.969 157.026C357.049 157.246 356.886 157.282 355.964 157.108C355.192 155.776 355.587 146.736 355.756 144.793C354.455 144.651 351.064 144.73 350.712 143.471L351.448 142.821Z" fill="#02377F"/>
<path d="M199.474 146.13C199.43 145.152 199.222 143.536 199.719 142.776C200.671 142.401 200.771 142.587 201.87 142.76C202.139 146.407 202.029 151.126 202.043 154.858C203.637 154.817 206.702 154.519 207.956 155.205C208.448 156.005 208.346 155.668 208.278 156.657C207.486 157.42 201.207 157.118 199.504 157.213C199.413 153.519 199.403 149.824 199.474 146.13Z" fill="#02377F"/>
<path d="M199.474 146.13C199.43 145.152 199.222 143.536 199.719 142.776C200.671 142.401 200.771 142.587 201.87 142.76C201.584 145.22 201.742 144.923 199.474 146.13Z" fill="#02377F"/>
<path d="M492.222 176.467C492.189 174.827 492.011 172.256 492.471 170.765L492.853 170.371C493.745 170.463 493.893 170.485 494.521 171.103C494.818 172.668 494.714 180.147 494.456 181.644C494.5 181.97 494.551 182.327 494.607 182.715C496.166 183.455 500.042 182.24 501.651 183.521L501.579 184.325C499.979 185.594 494.524 185.107 492.136 185.086L492.222 176.467Z" fill="#02377F"/>
<path d="M492.222 176.467C492.251 178.008 492.023 180.075 492.767 181.259C493.428 181.552 493.736 181.561 494.456 181.644C494.5 181.97 494.551 182.327 494.607 182.715C496.166 183.455 500.042 182.24 501.651 183.521L501.579 184.325C499.979 185.594 494.524 185.107 492.136 185.086L492.222 176.467Z" fill="#02377F"/>
<path d="M553.861 152.775C552.833 150.341 547.63 151.233 546.45 148.156C544.077 141.951 553.544 141.079 555.494 144.394L555.387 144.967C553.028 146.54 551.408 142.468 548.839 145.772C548.572 149.476 557.355 148.274 556.19 154.912C554.892 153.084 554.717 154.505 553.861 152.775Z" fill="#02377F"/>
<path d="M584.962 146.583C587.626 149.303 596.874 150.37 592.047 155.714C589.754 158.251 583.887 157.446 582.372 154.727C583.211 152.609 588.402 156.443 590.527 154.096C590.82 153.31 590.646 153.02 590.352 152.21C589.463 151.473 587.798 151.023 586.654 150.639C585.943 149.899 585.525 149.526 584.746 148.883C584.393 147.799 584.604 147.802 584.962 146.583Z" fill="#02377F"/>
<path d="M601.476 145.265C600.086 144.279 597.864 145.333 596.249 143.601C597.084 141.773 605.63 142.681 607.402 143.33L607.678 143.762C607.052 144.636 604.572 144.653 603.586 144.699L603.414 151.379C603.429 152.938 603.793 156.67 602.4 157.447C601.177 155.834 601.005 147.345 601.476 145.265Z" fill="#02377F"/>
<path d="M601.476 145.265L602.634 145.131C603.873 146.33 603.334 149.599 603.414 151.379C603.429 152.938 603.793 156.67 602.4 157.447C601.177 155.834 601.005 147.345 601.476 145.265Z" fill="#02377F"/>
<path d="M241.353 152.538C241.435 150.831 241.208 143.386 241.875 142.711C244.529 142.782 243.492 151.582 243.606 153.774C243.722 154.864 243.945 155.803 243.42 156.757C242.111 157.786 241.224 156.792 240.331 155.692C239.159 154.234 237.913 152.217 236.635 150.574L237.744 148.599C238.977 150.298 239.643 151.221 241.353 152.538Z" fill="#02377F"/>
<path d="M240.331 155.692L241.382 154.014C242.476 153.473 242.263 153.644 243.606 153.774C243.722 154.864 243.945 155.803 243.419 156.757C242.111 157.785 241.224 156.792 240.331 155.692Z" fill="#02377F"/>
<path d="M451.684 157.221C451.898 153.131 451.449 146.812 451.895 143.051C452.55 142.552 453.845 142.669 454.729 142.656L455.38 144.33C455.184 144.416 454.651 144.59 454.609 144.773C454.234 146.389 453.996 153.73 454.689 154.888L455.226 155.007C457.882 155.35 456.876 154.941 457.384 157.072L451.684 157.221Z" fill="#02377F"/>
<path d="M540.062 168.898C542.406 169.096 539.389 175.06 539.066 177.096C538.453 180.971 541.188 184.943 541.451 187.942L540.761 188.712C535.676 186.615 535.724 172.763 540.062 168.898Z" fill="#02377F"/>
<path d="M374.356 171.734C377.983 174.539 377.175 178.483 376.108 182.399C372.812 185.103 371.387 185.284 367.102 185.144C366.837 184.882 366.614 184.466 366.415 184.139C366.749 183.324 366.58 183.582 367.58 183.126C369.92 182.973 371.433 183.025 373.243 181.309C376.119 178.581 374.929 175.807 372.67 173.347C373.507 172.892 373.776 172.468 374.356 171.734Z" fill="#02377F"/>
<path d="M681.546 168.95C688.234 170.031 686.963 184.021 683.439 188.048L682.21 188.187C681.724 187.89 681.487 187.695 681.819 187.062C685.552 179.921 684.251 176.155 681.546 168.95Z" fill="#02377F"/>
<path d="M521.468 179.915C518.745 177.871 511.604 177.799 514.232 172.359C515.696 169.33 522.253 169.59 523.154 172.629C521.166 173.805 517.545 171.119 515.974 174.349C516.552 175.623 520.229 176.677 521.767 177.267C521.75 178.011 521.815 179.325 521.468 179.915Z" fill="#02377F"/>
<path d="M250.956 180.95C248.415 172.728 256.106 167.091 263.625 172.44C263.4 173.553 263.479 174.017 262.414 174.71C260.237 172.622 257.128 171.506 254.332 173.829C252.622 175.25 253.211 177.681 252.941 179.589L250.956 180.95Z" fill="#02377F"/>
<path d="M231.158 147.997C231.107 146.166 230.623 143.333 232.429 142.412C233.965 142.719 235.024 144.383 235.841 145.593L236.618 146.743C236.103 147.301 235.575 147.926 234.956 148.356L233.49 146.961L233.364 151.44C233.46 153.263 233.885 155.687 232.841 157.05C232.098 157.118 231.913 157.163 231.289 156.781C230.981 155.35 231.162 149.772 231.158 147.997Z" fill="#02377F"/>
<path d="M231.158 147.997C232.088 147.419 231.746 147.442 232.644 147.64C233.356 148.532 233.302 150.256 233.364 151.44C233.46 153.263 233.885 155.687 232.841 157.05C232.098 157.118 231.913 157.163 231.289 156.781C230.981 155.35 231.162 149.772 231.158 147.997Z" fill="#02377F"/>
<path d="M235.841 145.593L236.618 146.743C236.103 147.301 235.575 147.926 234.956 148.356L233.49 146.961C234.637 146.857 235.016 146.372 235.841 145.593Z" fill="#02377F"/>
<path d="M593.152 175.601C598.101 175.382 602.934 176.892 599.126 183.73C598.042 185.681 591.348 186.366 590.302 182.599L590.58 182.231C592.566 182.13 598.204 184.725 598.199 180.374C598.199 179.003 596.886 177.759 595.683 177.121C594.649 177.124 594.083 177.173 593.084 176.86L592.841 176.349L593.152 175.601Z" fill="#02377F"/>
<path d="M628.713 174.576C624.052 169.8 623.613 175.228 620.662 173.872C620.665 171.51 624.046 170.486 625.874 170.034C634.293 173.021 629.306 177.858 624.968 181.559L623.516 180.134C625.4 178.503 627.261 176.607 628.713 174.576Z" fill="#02377F"/>
<path d="M466.005 170.896C470.557 174.059 469.146 178.016 464.276 179.371C463.568 179.568 461.265 179.574 460.431 179.571C460.444 181.028 460.658 183.667 460.059 184.822C459.219 185.287 459.554 185.191 458.449 184.966C458.007 184.252 458.155 184.382 458.211 183.385C458.354 178.775 459.242 180.784 460.323 177.528C462.523 177.523 466.148 177.672 466.305 174.756C465.932 173.664 465.45 173.375 464.564 172.668C464.904 172.176 465.601 171.385 466.005 170.896Z" fill="#02377F"/>
<path d="M432.622 180.334C433.518 177.695 432.037 172.207 433.523 170.367L434.328 170.191L433.659 170.238L434.429 170.294C435.293 171.705 435.817 183.829 434.302 185.068C432.199 185.186 430.899 182.672 429.882 181.064C430.996 179.882 431.16 180.127 432.622 180.334Z" fill="#02377F"/>
<path d="M583.567 174.57C579.297 170.262 578.74 174.38 576.372 174.247C575.895 173.211 575.972 173.643 576.091 172.483C578.728 167.936 592.66 170.958 580.455 181.463L578.609 180.574C580.944 178.429 581.78 177.267 583.567 174.57Z" fill="#02377F"/>
<path d="M262.79 179.595C263.526 178.757 263.585 178.384 264.517 178.208C265.111 178.766 265.16 178.856 265.434 179.626C263.431 186.755 254.928 187.105 250.956 180.95L252.941 179.589L253.001 179.731C254.192 182.435 257.54 183.836 260.229 182.526C261.441 181.931 262.363 180.876 262.79 179.595Z" fill="#02377F"/>
<path d="M382.431 180.958C382.452 177.887 381.947 173.794 382.56 171.168C383.267 170.363 383.281 170.584 384.552 170.447L385.65 171.529C385.634 171.713 385.624 172.03 385.568 172.19C383.922 173.189 384.557 174.725 384.654 176.574C386.921 176.437 388.832 176.046 390.816 177.127L390.908 177.575C389.656 178.777 387.185 178.475 385.442 178.453L384.684 178.765C384.423 179.565 384.42 179.805 384.382 180.651C383.994 181.604 384.189 181.588 383.474 181.93C382.95 181.581 382.769 181.498 382.431 180.958Z" fill="#02377F"/>
<path d="M384.654 176.574C386.921 176.437 388.832 176.046 390.816 177.127L390.908 177.575C389.656 178.777 387.185 178.475 385.442 178.453C386.353 178.05 386.518 178.144 387.045 177.398C386.609 176.852 385.401 176.729 384.654 176.574Z" fill="#02377F"/>
<path d="M483.051 184.739C481.483 185.513 478.867 185.396 477.249 184.759C475.371 184.013 473.873 182.543 473.093 180.68C472.25 178.686 472.288 176.339 473.096 174.347C473.505 174.622 474.889 175.485 475.09 175.814C474.516 181.316 477.922 184.815 483.229 182.14C483.564 183.172 483.335 183.709 483.051 184.739Z" fill="#02377F"/>
<path d="M550.056 179.2C551.674 177.625 553.135 176.474 553.692 174.248C553.15 171.47 548.012 174.165 546.068 173.642L545.92 173.217C546.427 172.194 548.593 170.5 549.609 170.338C557.218 169.129 556.768 177.249 551.642 180.448L550.056 179.2Z" fill="#02377F"/>
<path d="M183.964 170.572C185.824 170.284 188.401 170.294 190.257 170.519C189.683 170.944 189.114 171.375 188.55 171.813L188.604 172.397C187.66 172.505 187.269 172.381 186.644 172.936C186.363 174.87 186.275 181.012 186.446 183.035C185.567 184.219 185.422 184.07 183.883 184.127C184.57 180.528 184.185 174.295 183.964 170.572Z" fill="#02377F"/>
<path d="M184.263 149.675C184.286 147.441 183.715 145.094 184.349 143.265C185.24 142.496 185.202 142.728 186.6 142.645L186.328 143.622C187.146 144.689 187.974 144.006 188.441 144.582C188.021 144.6 186.684 144.598 186.404 144.777C186.657 146.537 186.474 148.278 186.355 150.051C187.175 150.207 187.615 150.152 188.183 150.652C187.642 151.43 187.773 151.207 186.776 151.664L186.659 151.687C185.719 152.651 186.877 155.505 186.169 157.08C185.227 157.353 185.596 157.357 184.671 157.031C183.547 155.7 184.14 151.585 184.263 149.675Z" fill="#02377F"/>
<path d="M184.263 149.675C184.286 147.441 183.715 145.094 184.349 143.265C185.24 142.496 185.202 142.728 186.6 142.645L186.328 143.622C187.146 144.689 187.974 144.006 188.441 144.582C188.021 144.6 186.684 144.598 186.404 144.777C183.329 146.727 186.141 147.072 184.263 149.675Z" fill="#02377F"/>
<path d="M550.056 179.2L551.642 180.448C551.105 180.909 550.062 182.158 549.55 182.745C551.923 182.938 553.725 182.911 556.095 182.894L556.507 183.664C555.849 186.086 547.908 185.21 545.932 184.694L545.807 183.957C546.275 181.982 548.474 180.515 550.056 179.2Z" fill="#02377F"/>
<path d="M457.432 142.635C459.948 142.963 461.257 143.196 462.906 145.267C465.056 147.966 464.597 152.356 462.54 154.937C461.447 154.832 460.93 154.72 459.879 154.465C462.29 151.141 463.494 145.332 458.089 144.684C457.912 144.276 457.584 143.117 457.432 142.635Z" fill="#02377F"/>
<path d="M575.205 142.705C576.105 142.653 576.298 142.639 577.16 142.873C577.785 143.74 577.631 155.283 577.643 157.226C576.775 157.259 576.422 157.337 575.723 156.854C575.012 155.334 575.448 145.539 575.205 142.705Z" fill="#02377F"/>
<path d="M225.292 170.33L226.766 170.701C227.27 171.488 227.173 183.569 227.071 185.276C226.28 185.198 225.736 185.197 225.041 184.79C224.781 183.477 224.764 171.241 225.292 170.33Z" fill="#02377F"/>
<path d="M623.516 180.134L624.968 181.559C624.408 182.191 624.378 182.02 624.348 182.7C626.114 183.712 629.857 182.115 630.849 183.798L630.512 184.637C628.956 185.375 622.6 185.584 621.015 184.645C619.726 182.706 622.105 181.307 623.516 180.134Z" fill="#02377F"/>
<path d="M590.488 178.588C591.031 175.732 590.506 172.608 591.905 170.919C592.806 170.282 593.944 170.52 595.084 170.599C596.53 170.616 598.193 170.51 599.473 171.135L599.748 171.572C598.61 172.825 595.292 172.586 593.683 172.464C593.354 173.183 592.8 174.866 593.152 175.601L592.841 176.349L593.084 176.86C594.083 177.173 594.649 177.124 595.683 177.121C594.219 177.291 591.955 178.112 590.488 178.588Z" fill="#02377F"/>
<path d="M595.084 170.599C596.53 170.616 598.193 170.51 599.473 171.135L599.748 171.572C598.61 172.825 595.292 172.586 593.683 172.464C593.301 172.297 593.221 172.179 592.918 171.883L592.924 171.354C593.443 170.763 594.287 170.733 595.084 170.599Z" fill="#02377F"/>
<path d="M309.079 147.174C309.15 145.891 309.379 145.734 308.756 144.811C306.624 143.768 305.314 144.99 304.309 144.001L304.438 143.107C305.869 142.266 312.876 142.551 314.51 142.966C314.945 143.076 315.372 143.219 315.786 143.393L316.004 143.816C314.918 144.749 313.128 144.533 311.692 144.509L311.635 148.417C310.884 147.5 310.593 147.673 309.527 147.663L309.079 147.174Z" fill="#02377F"/>
<path d="M507.269 170.085C508.012 170.336 508.353 171.324 508.347 172.011C508.324 174.566 509.124 183.679 507.737 185.476L507.04 185.094C506.06 183.891 506.294 172.971 506.557 171.019C506.557 171.019 507.186 170.193 507.269 170.085Z" fill="#02377F"/>
<path d="M511.047 145.989C513.933 142.081 521.693 140.72 523.43 145.43L523.329 145.926C521.521 146.516 519.915 144.87 517.972 144.344C515.079 145.161 514.908 145.133 513.142 147.489C512.428 146.386 512.267 147.377 511.047 145.989Z" fill="#02377F"/>
<path d="M513.53 152.569C515.438 155.013 516.117 155.031 519.151 154.858C520.786 154.051 521.498 153.399 523.252 154.198L523.48 154.722C522.893 155.857 522.825 155.918 521.492 156.487C517.432 157.911 515.734 157.399 512.143 155.312L512.507 154.52C512.866 153.639 512.985 153.342 513.53 152.569Z" fill="#02377F"/>
<path d="M519.151 154.858C520.786 154.051 521.498 153.399 523.252 154.198L523.48 154.722C522.893 155.857 522.825 155.918 521.492 156.487C519.622 156.489 519.776 156.414 519.151 154.858Z" fill="#02377F"/>
<path d="M578.609 180.574L580.455 181.463L579.795 182.289C580.396 183.869 584.236 182.136 585.848 183.336C586.076 184.098 586.035 183.836 585.759 184.669C584.136 185.436 577.943 185.462 576.289 184.552C575.169 182.876 577.362 181.577 578.609 180.574Z" fill="#02377F"/>
<path d="M364.368 171.126L364.479 170.783C365.24 170.171 365.334 170.361 366.462 170.342C367.15 170.934 367.727 171.196 367.855 171.944L367.669 172.372L366.959 172.554C366.857 172.802 366.668 173.208 366.636 173.46C366.843 175.953 366.822 178.168 366.812 180.671C365.838 181.368 365.752 180.934 364.37 181.273L364.368 171.126Z" fill="#02377F"/>
<path d="M364.368 171.126L364.479 170.783C365.24 170.171 365.334 170.361 366.462 170.342C367.15 170.934 367.727 171.196 367.855 171.944L367.669 172.372L366.959 172.554C366.857 172.802 366.668 173.208 366.636 173.46C366.475 172.986 364.835 171.561 364.368 171.126Z" fill="#02377F"/>
<path d="M233.012 179.163C232.954 177.292 232.143 170.62 234.409 170.137C235.52 170.539 236.754 172.497 237.435 173.47C236.722 174.228 236.622 174.702 235.848 175.042C235.228 175.927 235.422 177.063 235.442 178.177C234.241 177.899 234.418 177.731 233.515 178.251L233.012 179.163Z" fill="#02377F"/>
<path d="M637.096 146.989C637.594 145.483 639.333 142.201 641.12 142.248C642.838 143.341 642.009 147.943 642.047 149.975C641.526 148.994 641.22 148.682 640.142 148.871L639.926 147.566L639.52 147.292C638.9 148.033 638.441 148.923 638.05 149.387C637.869 148.242 637.845 147.916 637.096 146.989Z" fill="#02377F"/>
<path d="M473.096 174.347C475.904 170.388 478.974 169.46 483.495 171.059C483.267 171.626 482.935 172.547 482.645 173.048C479.516 172.191 476.542 172.462 475.09 175.814C474.889 175.485 473.505 174.622 473.096 174.347Z" fill="#02377F"/>
<path d="M309.079 147.174L309.527 147.663C310.593 147.673 310.884 147.5 311.635 148.417C311.613 150.649 312.014 154.983 311.092 156.702C310.226 157.294 310.613 157.185 309.509 157.081C308.659 156.199 309.098 148.973 309.079 147.174Z" fill="#02377F"/>
<path d="M191.671 182.509C192.415 182.096 192.94 181.486 193.532 180.876C194.461 181.152 194.88 181.182 195.824 181.271C195.144 182.43 194.019 183.665 192.868 184.345C190.917 184.988 185.866 185.706 184.047 184.87L183.883 184.127C185.422 184.07 185.567 184.219 186.446 183.035C188.575 182.97 189.584 182.856 191.671 182.509Z" fill="#02377F"/>
<path d="M399.936 153.615C399.921 151.351 399.421 144.768 400.148 143.013C400.873 142.612 400.559 142.657 401.398 142.872C402.531 144.304 402.122 150.812 402.116 153.073C401.487 153.268 400.566 153.603 399.936 153.615Z" fill="#02377F"/>
<path d="M612.161 144.704C612.105 143.94 612.113 143.836 612.33 143.103C613.231 142.335 615.358 142.657 616.603 142.717C618.241 142.698 620.093 142.544 621.581 143.178L621.957 143.609C621.044 144.921 616.066 144.659 614.614 144.359L614.694 146.213C613.945 146.658 613.791 146.751 612.946 146.934C612.253 146.252 612.368 145.799 612.161 144.704Z" fill="#02377F"/>
<path d="M616.603 142.717C618.241 142.698 620.093 142.544 621.581 143.178L621.957 143.609C621.044 144.921 616.066 144.659 614.614 144.359C615.569 144.148 616.072 144.373 617.086 143.821C617.13 143.139 617.145 143.365 616.603 142.717Z" fill="#02377F"/>
<path d="M422.739 176.006C422.802 174.356 421.955 170.434 424.181 170.188C425.739 171.07 427.333 173.712 428.354 175.259C427.691 175.933 427.487 175.994 426.594 176.339L425.354 175.138L424.917 175.306L422.739 176.006Z" fill="#02377F"/>
<path d="M605.046 177.494C608.158 177.307 611.675 177.352 614.81 177.547C615.844 177.611 616.333 177.801 616.496 178.802L615.995 179.201C613.93 179.256 605.39 180.015 604.566 178.295L605.046 177.494Z" fill="#02377F"/>
<path d="M243.038 179.291L245.396 179.354C245.44 181.285 246.092 184.698 243.685 185.031C241.644 184.174 241.657 182.965 240.568 181.358C241.335 180.997 241.445 180.87 242.022 180.238C242.174 180.473 242.221 180.427 242.543 180.554L243.038 179.291Z" fill="#02377F"/>
<path d="M186.6 142.645C191.271 142.596 194.065 141.908 194.493 147.553C194.027 147.901 193.639 148.134 193.144 148.432L192.501 148.129C192.478 144.864 191.272 145.055 188.441 144.582C187.974 144.006 187.146 144.689 186.328 143.622L186.6 142.645Z" fill="#02377F"/>
<path d="M193.963 171.897C196.947 174.713 196.465 176.856 196.128 180.69L195.824 181.271C194.88 181.182 194.461 181.152 193.532 180.876L194.318 177.463C193.942 175.418 193.852 174.694 192.412 173.218L193.963 171.897Z" fill="#02377F"/>
<path d="M194.318 177.463C194.398 179.701 194.135 179.546 196.128 180.69L195.824 181.271C194.88 181.182 194.462 181.152 193.532 180.876L194.318 177.463Z" fill="#02377F"/>
<path d="M243.038 179.291C243.067 176.914 242.83 172.85 243.182 170.776L243.653 170.373C246.423 170.744 245.358 176.945 245.396 179.354L243.038 179.291Z" fill="#02377F"/>
<path d="M458.211 183.385C458.115 182.175 458.118 171.64 458.351 171.011C459.249 170.452 460.479 170.52 461.567 170.469C461.153 170.939 460.454 171.635 460.268 172.195C460.415 174.224 460.394 175.515 460.323 177.528C459.242 180.784 458.354 178.775 458.211 183.385Z" fill="#02377F"/>
<path d="M487.069 175.224C487.282 177.497 487.199 178.741 486.983 181.013C485.727 182.677 484.98 183.838 483.051 184.739C483.335 183.709 483.564 183.172 483.229 182.14C483.321 181.931 483.661 181.543 483.812 181.33C484.749 179.995 484.826 178.337 484.977 176.757C485.59 176.422 486.491 175.674 487.069 175.224Z" fill="#02377F"/>
<path d="M511.047 145.989C512.267 147.377 512.427 146.386 513.142 147.489C512.59 149.51 512.389 150.707 513.53 152.569C512.985 153.342 512.866 153.639 512.507 154.52L512.143 155.312C511.435 154.634 510.987 153.35 510.581 152.412C509.808 150.057 510.347 148.367 511.047 145.989Z" fill="#02377F"/>
<path d="M510.581 152.412C511.731 152.424 511.349 152.276 512.19 152.915C512.401 153.578 512.505 153.825 512.507 154.52L512.143 155.312C511.435 154.634 510.987 153.35 510.581 152.412Z" fill="#02377F"/>
<path d="M521.139 184.867C518.849 185.438 514.016 185.327 513.308 182.597L513.592 182.186C516.697 181.769 518.437 184.311 521.432 181.928C521.587 183.298 521.572 183.559 521.139 184.867Z" fill="#02377F"/>
<path d="M422.739 176.006L424.917 175.306L424.895 175.394C424.262 178.096 425.397 183.681 423.974 185.034C423.189 185.139 423.446 185.221 422.862 184.816C422.701 182.102 422.761 178.766 422.739 176.006Z" fill="#02377F"/>
<path d="M237.435 173.47C239.267 175.672 240.995 177.534 242.022 180.238C241.445 180.87 241.335 180.997 240.568 181.358C239.579 179.842 237.214 175.889 235.848 175.042C236.622 174.702 236.722 174.229 237.435 173.47Z" fill="#02377F"/>
<path d="M233.012 179.163L233.515 178.251C234.418 177.731 234.241 177.899 235.442 178.177C235.48 179.941 235.792 183.998 234.461 185.354L233.772 185.233C232.715 183.019 232.969 181.599 233.012 179.163Z" fill="#02377F"/>
<path d="M584.512 143.217C586.728 142.5 591.65 141.978 592.604 144.732L592.474 145.026L592.566 144.414L592.166 145.276C589.362 145.996 589.635 143.499 585.987 144.903L585.507 144.916C584.678 144.29 584.87 144.313 584.512 143.217Z" fill="#02377F"/>
<path d="M640.142 148.871C641.22 148.682 641.526 148.994 642.047 149.975C642.098 152.033 642.352 155.372 641.389 157.163L641.049 157.052C639.872 154.869 640.1 151.324 640.142 148.871Z" fill="#02377F"/>
<path d="M186.355 150.051C188.586 149.34 190.807 150.567 192.501 148.129L193.144 148.432C193.639 148.134 194.027 147.901 194.493 147.553C193.594 152.462 191.109 151.596 186.776 151.664C187.773 151.207 187.642 151.43 188.183 150.652C187.615 150.152 187.175 150.207 186.355 150.051Z" fill="#02377F"/>
<path d="M366.462 170.342C370.09 170.285 370.931 170.333 374.356 171.734C373.776 172.468 373.507 172.892 372.67 173.347C370.705 172.787 369.667 172.639 367.669 172.372L367.855 171.944C367.727 171.196 367.15 170.934 366.462 170.342Z" fill="#02377F"/>
<path d="M370.011 142.579C372.561 142.5 374.234 142.156 376.431 143.446L376.587 143.905C375.425 145.156 372.405 144.772 370.785 144.718L370.142 144.354C369.69 143.516 369.843 143.674 370.011 142.579Z" fill="#02377F"/>
<path d="M553.861 152.775C554.717 154.505 554.892 153.084 556.19 154.912C554.024 157.114 552.679 157.401 549.591 157.209C549.864 156.475 550.113 155.919 550.448 155.21C552.711 155.071 553.227 154.828 553.861 152.775Z" fill="#02377F"/>
<path d="M324.095 166.058C326.409 167.01 328.947 166.684 329.655 167.364C329.245 168.342 328.69 168.44 327.649 169.122C324.761 167.959 323.866 168.968 322.564 168.273L322.441 167.718C322.879 166.784 323.249 166.61 324.095 166.058Z" fill="#02377F"/>
<path d="M305.051 171.617C307.663 170.243 309.162 169.899 312.049 170.572C311.529 171.257 311.042 171.867 310.619 172.622C308.887 172.57 308.469 172.717 306.809 173.254L305.051 171.617Z" fill="#02377F"/>
<path d="M263.625 172.44C265.657 175.182 265.487 176.132 265.434 179.626C265.16 178.856 265.111 178.766 264.517 178.208C263.585 178.384 263.526 178.757 262.79 179.595C263.191 177.473 263.29 176.675 262.414 174.71C263.479 174.017 263.4 173.553 263.625 172.44Z" fill="#02377F"/>
<path d="M521.767 177.267C524.633 178.79 524.325 183.496 521.139 184.867C521.572 183.559 521.587 183.298 521.432 181.928C521.551 181.435 521.483 180.466 521.468 179.915C521.815 179.325 521.75 178.011 521.767 177.267Z" fill="#02377F"/>
<path d="M428.354 175.259C429.489 176.738 431.269 179.418 432.622 180.334C431.16 180.127 430.996 179.882 429.882 181.064C429.289 179.915 427.418 177.305 426.594 176.339C427.487 175.994 427.691 175.933 428.354 175.259Z" fill="#02377F"/>
<path d="M384.552 170.447C386.625 170.431 390.096 170.157 391.742 171.435L391.763 171.79C390.554 172.713 386.918 172.68 385.568 172.19C385.624 172.03 385.634 171.713 385.65 171.529L384.552 170.447Z" fill="#02377F"/>
<path d="M384.891 182.838C387.224 183.027 390.574 182.494 391.847 183.67L391.851 184.195C390.312 185.465 388.236 185.164 386.308 185.081C386.082 183.787 385.871 183.623 384.891 182.838Z" fill="#02377F"/>
<path d="M584.512 143.217C584.87 144.313 584.678 144.29 585.507 144.916L585.987 144.903L584.962 146.583C584.604 147.802 584.393 147.799 584.746 148.883C585.525 149.526 585.943 149.899 586.654 150.639C584.589 149.983 582.823 149.167 582.876 146.442C582.903 144.997 583.415 144.15 584.512 143.217Z" fill="#02377F"/>
<path d="M483.495 171.059C485.054 172.085 486.426 173.414 487.069 175.224C486.491 175.674 485.59 176.422 484.977 176.757C484.5 174.686 484.289 174.327 482.645 173.048C482.935 172.547 483.267 171.626 483.495 171.059Z" fill="#02377F"/>
<path d="M389.88 142.62C391.019 143.001 392.352 143.35 393.253 144.108C393.577 144.991 393.507 144.685 393.003 145.799L392.586 146.093C390.748 145.516 390.412 144.807 388.382 144.421L388.283 144.041C388.583 143.208 389.005 143.168 389.88 142.62Z" fill="#02377F"/>
<path d="M366.812 180.671C366.811 181.693 366.648 182.151 367.108 182.97L367.581 183.126C366.58 183.582 366.749 183.324 366.415 184.139C366.614 184.466 366.837 184.882 367.102 185.144C366.281 185.157 365.397 185.271 364.72 184.843C364.123 184.118 364.34 182.305 364.37 181.273C365.752 180.934 365.838 181.368 366.812 180.671Z" fill="#02377F"/>
<path d="M382.96 144.321C385.324 142.635 387.006 142.333 389.88 142.62C389.005 143.168 388.583 143.208 388.283 144.041L388.382 144.421L385.521 145.208C384.83 144.7 383.811 144.53 382.96 144.321Z" fill="#02377F"/>
<path d="M382.431 180.958C382.769 181.498 382.95 181.581 383.474 181.93C384.189 181.588 383.995 181.603 384.382 180.651C384.466 181.557 384.351 182.322 384.891 182.838C385.871 183.623 386.082 183.787 386.308 185.081L382.48 185.027L382.431 180.958Z" fill="#02377F"/>
<path d="M461.567 170.469C463.392 170.512 464.221 170.56 466.005 170.896C465.601 171.385 464.904 172.176 464.564 172.668C463.626 172.698 461.304 172.333 460.268 172.195C460.454 171.635 461.153 170.939 461.567 170.469Z" fill="#02377F"/>
<path d="M546.643 155.792C546.222 155.613 545.97 155.183 546.018 154.731C546.068 154.278 546.406 153.911 546.853 153.825C547.298 153.739 547.751 153.955 547.962 154.357C549.016 154.893 549.316 154.962 550.448 155.21C550.113 155.919 549.864 156.475 549.591 157.209C548.219 156.765 547.793 156.653 546.643 155.792Z" fill="#02377F"/>
<path d="M546.643 155.792C546.222 155.613 545.97 155.183 546.018 154.731C546.068 154.278 546.406 153.911 546.853 153.825C547.298 153.739 547.751 153.955 547.962 154.357C548.166 154.744 548.107 155.218 547.81 155.541C547.514 155.863 547.046 155.964 546.643 155.792Z" fill="#02377F"/>
<path d="M459.879 154.465C460.93 154.72 461.447 154.832 462.54 154.937C460.632 156.301 459.714 156.785 457.384 157.072C456.876 154.941 457.882 155.35 455.226 155.007C457.153 154.946 457.967 154.936 459.879 154.465Z" fill="#02377F"/>
<path d="M190.257 170.519C191.775 170.787 192.664 171.002 193.963 171.897L192.412 173.218C191.247 172.804 189.837 172.607 188.604 172.397L188.55 171.813C189.114 171.375 189.683 170.944 190.257 170.519Z" fill="#02377F"/>
<path d="M312.049 170.572C313.376 171.223 314.364 171.469 314.623 173.047C314.124 173.732 314.381 173.544 313.423 173.713C312.415 173.404 311.583 173.034 310.619 172.622C311.042 171.867 311.529 171.257 312.049 170.572Z" fill="#02377F"/>
<path d="M402.116 153.073C402.199 154.653 402.61 156.397 401.111 157.337C399.642 156.57 399.936 155.111 399.936 153.615C400.566 153.603 401.487 153.268 402.116 153.073Z" fill="#02377F"/>
<path d="M448.44 165.999L449.346 166.148L449.591 166.541C449.282 167.477 447.657 168.799 446.859 169.54C445.935 169.302 446.185 169.505 445.708 168.794C445.933 167.525 447.427 166.641 448.44 165.999Z" fill="#02377F"/>
<path d="M372.931 137.807C373.551 137.824 373.8 137.957 374.369 138.188C374.39 138.846 373.116 140.207 372.525 141.108C371.825 141.21 371.721 141.192 371.026 141.044L370.782 140.557C371.116 139.499 372.13 138.625 372.931 137.807Z" fill="#02377F"/>
<path d="M454.729 142.656L457.432 142.635C457.584 143.117 457.912 144.276 458.089 144.684C457.418 144.662 456.095 144.432 455.38 144.33L454.729 142.656Z" fill="#02377F"/>
<path d="M236.618 146.743L237.744 148.599L236.635 150.574L234.956 148.356C235.575 147.926 236.103 147.301 236.618 146.743Z" fill="#02377F"/>
<defs>
<clipPath id="clip0_11_1485">
<rect width="150" height="173" fill="white"/>
</clipPath>
</defs>
</svg>
