<svg width="486" height="162" viewBox="0 0 486 162" fill="none" xmlns="http://www.w3.org/2000/svg">
<path d="M315.833 92.7715L104.809 92.7863L32.9326 92.7673C23.1529 92.7537 13.3437 92.8307 3.56187 92.8681C2.36233 92.8725 1.11866 92.674 0.0248993 92.1583L0 91.6864C2.02974 90.1667 26.8755 91.0673 31.2089 91.0693L104.877 91.0288L316.12 90.8943C314.813 91.0308 313.507 91.1538 312.2 91.2631C313.213 91.6713 317.421 91.5246 318.784 91.4929C321.513 91.4293 322.319 91.9589 324.642 92.2463C321.549 92.2949 317.19 92.0235 314.348 92.1929L314.182 92.5378L313.747 92.3422C314.437 92.5073 315.133 92.6503 315.833 92.7715Z" fill="#198547"/>
<path d="M316.12 90.8943L422.918 90.7701L465.99 90.7959C468.915 90.7995 484.272 90.3246 485.396 91.2942L485.68 92.2851C485.07 93.1756 483.941 92.8983 482.918 92.8728C479.709 92.7928 476.497 92.8171 473.288 92.8139L440.056 92.7999L315.833 92.7715C315.133 92.6503 314.437 92.5073 313.747 92.3423L314.182 92.5378L314.348 92.193C317.19 92.0235 321.549 92.2949 324.642 92.2463C322.319 91.9589 321.513 91.4293 318.784 91.493C317.421 91.5246 313.213 91.6713 312.2 91.2631C313.507 91.1538 314.813 91.0308 316.12 90.8943Z" fill="#02377F"/>
<path d="M88.1896 14.7521C100.447 13.3416 111.518 22.159 112.881 34.4189C114.244 46.6788 105.382 57.7116 93.1134 59.0273C80.912 60.3358 69.9493 51.5344 68.5933 39.3416C67.2374 27.1485 75.9986 16.1549 88.1896 14.7521ZM92.5562 48.8482C95.7849 48.1582 98.3133 47.4724 100.12 44.4278C105.319 35.6673 100.385 23.8394 89.341 24.8101C86.1033 25.694 82.4637 27.5415 81.0651 30.6531C76.6438 40.4889 81.7008 49.5835 92.5562 48.8482Z" fill="#02377F"/>
<path d="M360.103 18.6408C370.202 17.5542 378.364 23.0956 379.838 33.4373C380.266 36.5695 379.969 39.7362 379.817 42.8361C379.094 57.4085 359.449 64.275 350.379 52.4868C350.445 54.8944 350.479 57.303 350.483 59.7115C350.448 62.6141 350.269 68.9739 350.674 71.6552C348.655 71.7679 345.922 71.6744 343.851 71.6626C344.043 68.9328 343.939 65.4741 343.944 62.6921C343.994 58.214 344.015 53.7359 344.005 49.2575C344.003 39.6245 344.224 28.7397 343.87 19.2091C346.158 19.0776 348.236 19.1206 350.526 19.1721C350.383 21.183 350.367 22.4785 350.438 24.4944C353.541 21.0967 355.746 19.8932 360.103 18.6408ZM364.076 52.2353C367.672 51.1752 369.734 49.782 371.75 46.4073C373.646 43.2332 373.741 36.2431 372.702 32.7495C371.805 29.7727 369.767 27.271 367.032 25.7898C364.773 24.5831 362.405 24.2816 359.881 24.5702C356.835 25.5766 353.151 27.3665 351.882 30.5523C348.06 40.1432 351.116 53.725 364.076 52.2353Z" fill="#262F3E"/>
<path d="M176.641 15.1169L176.716 15.1113C186.331 14.4687 197.258 18.0991 197.46 29.3205C197.631 38.8128 196.969 48.5234 197.553 58.0209C195.87 58.0519 188.436 58.3084 187.446 57.6028C187.049 56.5118 187.13 54.7929 187.12 53.5861C186.287 54.2772 185.442 54.9536 184.585 55.6152C180.881 58.4346 175.19 59.2056 170.642 58.5704C166.079 57.9332 163.511 56.2609 160.807 52.7055C159.068 49.3588 158.343 46.2587 159.332 42.5366C162.266 31.4933 177.927 31.3366 186.667 33.6372C186.651 31.6951 186.617 30.6631 186.33 28.7495C185.273 27.3159 184.462 26.0984 182.807 25.316C177.227 22.6765 170.884 25.1548 166.202 28.1977C164.677 25.7021 163.011 23.2952 161.213 20.9887C166.409 17.2112 170.253 15.6072 176.641 15.1169ZM180.166 50.5578C185.28 48.4887 186.803 46.5164 186.847 41.0429C182.795 39.9174 180.064 39.4545 175.785 39.8294C164.332 42.7865 170.032 52.9028 180.166 50.5578Z" fill="#02377F"/>
<path d="M403.562 18.4439C407.552 17.9043 413.388 19.7289 416.615 22.2214C425.278 28.9135 425.956 43.2677 419.469 51.6385C415.704 56.4949 411.643 57.7559 405.731 58.4774C379.436 59.1533 377.95 20.5573 403.562 18.4439ZM405.336 52.5091C423.483 49.6814 418.891 22.8048 403.716 24.3746C389.31 26.0088 388.085 47.4129 401.013 51.9961C402.061 52.3677 404.071 52.6516 405.188 52.5279C405.238 52.5225 405.286 52.516 405.336 52.5091Z" fill="#262F3E"/>
<path d="M230.467 4.10846C232.949 4.0102 235.434 4.01455 237.915 4.12154C238.476 6.34673 240.876 11.6885 241.813 14.072L251.793 38.9174L256.778 51.571C257.437 53.2295 258.649 56.5536 259.541 57.9325C256.897 57.9603 254.112 58.0823 251.489 57.8628C249.832 53.3693 248.084 48.91 246.245 44.4875C244.348 44.3135 240.578 44.4642 238.545 44.4877L221.587 44.4628C220.075 48.8139 217.837 53.2808 216.296 58.0043C213.826 57.8662 211.315 57.9013 208.844 57.9501C210.237 53.7703 212.075 49.5968 213.732 45.5198L221.288 26.8906C222.835 23.098 228.769 5.91473 230.467 4.10846ZM223.6 38.2912C227.134 38.5803 231.157 38.518 234.74 38.5002L244.262 38.3961C242.64 35.0732 234.92 12.431 233.901 11.8229C230.411 20.1982 226.777 29.7427 223.6 38.2912Z" fill="#262F3E"/>
<path d="M44.6467 15.1146C45.1283 15.0881 45.6105 15.0741 46.0928 15.0727C50.2128 15.0692 54.6543 16.1539 57.5965 19.1639C62.7676 24.4542 61.7588 33.3741 61.7405 40.1166L61.7184 58.0661C57.9893 57.9943 54.2589 58.0124 50.5305 58.1206C50.1455 48.8817 50.6261 39.2715 50.3051 29.9399C46.6607 23.9959 41.1372 22.9297 35.6391 27.4543L35.5401 27.5503C34.3506 28.7096 33.7192 29.5074 33.4018 31.1626C32.4686 36.0289 32.8061 41.744 32.8741 46.6619C32.9309 50.4242 32.9281 54.1869 32.8657 57.9489C29.419 58.0992 25.299 58.0157 21.8003 58.0336C21.1447 44.5275 22.1888 29.5272 21.6087 15.9411L32.5212 15.9266L32.5616 21.8192C36.3137 17.4998 38.7871 15.6552 44.6467 15.1146Z" fill="#02377F"/>
<path d="M318.798 18.4445C325.682 17.4432 334.398 21.3914 335.418 28.8186C335.96 32.7637 335.77 36.3964 335.754 40.3543C335.72 46.2335 335.742 52.1128 335.813 57.9914C333.692 57.9508 331.635 57.9113 329.513 57.9574C329.552 55.9102 329.518 54.8932 329.269 52.8648C327.587 54.6293 325.694 56.2535 323.397 57.1177C316.546 59.6963 307.421 58.921 304.246 51.4497C303.279 49.3676 302.953 47.0451 303.312 44.7778C305.293 32.2901 320.194 33.7325 329.328 35.3106C329.15 32.9601 329.221 30.77 328.094 28.6553C327.097 26.7529 325.373 25.335 323.314 24.7252C318.125 23.1979 313.01 25.6731 308.584 28.0657C307.975 26.4819 306.544 24.4618 305.573 22.9906C310.211 20.5714 313.533 18.8736 318.798 18.4445ZM310.33 48.3375C312.577 51.672 316.529 53.7758 320.577 52.6061C324.272 51.4619 327.214 49.6598 329.214 46.1657C329.221 44.5455 329.2 42.7871 329.252 41.1798C326.106 39.9844 322.477 39.0701 319.086 39.5957C313.083 40.1518 309.887 41.9358 310.33 48.3375Z" fill="#262F3E"/>
<path d="M147.471 15.836C150.866 15.846 154.26 15.8923 157.654 15.9751C154.706 23.1407 151.642 30.9132 148.9 38.1319C146.961 43.2355 142.89 52.9337 141.734 57.9591C139.554 58.1615 132.033 58.1101 129.86 58.0036C128.626 55.7793 126.524 49.2839 125.5 46.5347C123.649 41.5673 121.698 36.6594 119.808 31.7134C118.925 29.3269 114.364 17.4018 113.299 16.0143C117.212 15.8641 121.129 15.8332 125.044 15.9216C125.838 17.2565 126.903 21.0939 127.539 22.866C130.213 30.3226 133.417 38.3742 135.53 45.9791C137.282 43.596 138.721 37.2021 139.875 34.0989C142.029 28.3089 144.164 22.42 145.823 16.4827C145.928 16.1085 147.122 15.9202 147.471 15.836Z" fill="#02377F"/>
<path d="M0.74958 0.0911512C4.26246 -0.0635212 8.60481 0.0953093 12.3256 1.52588e-05C12.7634 11.974 12.163 24.3905 12.4136 36.4019C12.5609 43.4595 12.5105 50.9529 12.3067 58.0145L0.940114 58.0005C0.496197 55.1607 0.702155 42.6369 0.702851 38.9923L0.74958 0.0911512Z" fill="#02377F"/>
<path d="M282.501 18.4495C286.014 18.1912 290.52 19.5491 293.043 22.009C298.149 26.9869 297.272 34.583 297.253 41.1151C297.2 46.7225 297.215 52.3301 297.291 57.937C295.124 57.9986 292.982 57.8037 290.801 57.9694C290.242 49.7804 291.317 40.4597 290.435 32.3651C289.576 24.4873 281.531 22.5054 274.896 26.7151C269.593 30.2986 270.583 37.3605 270.613 43.0099L270.735 58.0611C268.457 58.0635 266.362 58.0488 264.088 57.9342C263.736 50.142 264.088 41.4608 264.005 33.5949C263.955 28.8161 264.236 24.11 263.898 19.2893C265.95 19.1086 268.511 19.1675 270.611 19.1649C270.606 21.2742 270.647 22.8777 270.816 24.977C273.596 20.6632 277.488 18.7687 282.501 18.4495Z" fill="#262F3E"/>
<path d="M471.216 18.4449C474.887 18.1598 479.953 19.7353 483.058 21.7484C485.191 23.1295 481.812 26.4367 480.678 27.7303C478.012 25.4758 475.896 24.6054 472.543 24.2745C469.734 23.9975 465.335 25.5997 465.675 28.9761C466.302 35.2158 479.144 35.4224 482.763 40.2331C484.54 42.5946 485.284 43.7341 485.196 46.7577C485.291 56.5907 477.891 58.4608 469.537 58.3051C464.45 57.8255 461.644 56.4611 457.62 53.4822C458.624 51.9172 459.71 50.1099 460.928 48.7362C465.974 51.9172 473.049 55.4652 477.979 50.0782C478.649 49.3467 479.085 47.8756 478.854 46.9106C477.349 40.624 466.319 40.972 462.129 36.585C460.224 34.8899 459.244 33.0716 459.097 30.4398C458.643 22.2826 463.87 18.9525 471.216 18.4449Z" fill="#262F3E"/>
<path d="M431.09 3.90424C433.059 3.84835 435.278 3.90692 437.264 3.91508C436.75 17.8726 437.366 32.0665 437.031 46.0459C436.993 47.6378 437.288 57.3855 436.91 57.9651L435.925 58.0193L430.406 57.851C430.196 55.4871 430.241 4.3996 430.318 4.16476L431.09 3.90424Z" fill="#262F3E"/>
<path d="M451.375 19.1729L452.274 19.2429C452.595 19.8067 452.372 26.2434 452.367 27.3917L452.346 58.0067L446.864 57.908C446.312 57.9658 446.191 57.957 445.642 57.8773C445.352 57.4801 445.418 22.5208 445.402 19.3175C446.952 19.1442 449.727 19.1899 451.375 19.1729Z" fill="#262F3E"/>
<path d="M322.912 4.11358C325.095 3.92467 328.439 4.08845 330.688 4.1733C328.16 7.15927 325.233 10.1553 322.86 13.1412L322.814 13.1864C321.683 14.2841 318.639 14.1215 316.895 14.0877L316.793 13.3798C317.145 12.5258 322.291 4.77633 322.912 4.11358Z" fill="#262F3E"/>
<path d="M447.501 4.11335C449.761 3.768 451.984 4.10348 453.149 6.32625C453.623 7.211 453.72 8.24981 453.418 9.20741C452.923 10.7709 452.015 11.3417 450.648 12.0499C445.404 13.3163 442.284 7.34473 447.501 4.11335Z" fill="#262F3E"/>
<path d="M278.019 128.016C275.114 125.235 275.018 120.624 277.804 117.725C280.591 114.825 285.203 114.736 288.1 117.527C290.995 120.318 291.075 124.928 288.28 127.819C285.496 130.696 280.911 130.784 278.019 128.016ZM280.133 126.959C281.773 127.71 283.308 127.903 285.083 127.35C287.163 125.649 288.901 123.53 287.704 120.691C287.214 119.539 286.288 118.628 285.129 118.155C282.994 117.291 281.795 117.773 279.818 118.626C277.332 122.16 277.696 123.536 280.133 126.959Z" fill="#000002"/>
<path d="M280.133 126.959C281.773 127.71 283.308 127.903 285.083 127.35C286.126 127.469 287.277 127.553 288.28 127.819C285.496 130.696 280.911 130.784 278.019 128.016C278.708 127.761 279.477 127.313 280.133 126.959Z" fill="#071227"/>
<path d="M67.7078 116.449C70.5755 114.768 74.2196 115.251 76.5494 117.622C79.2065 120.325 79.3322 124.619 76.838 127.473C74.3438 130.327 70.0715 130.779 67.0349 128.51C63.9982 126.241 63.2224 122.017 65.2541 118.817C65.8721 117.844 66.7135 117.032 67.7078 116.449ZM68.2686 118.717C67.2796 119.487 66.6137 120.598 66.4015 121.833C66.0026 124.156 67.2705 126.444 69.4518 127.337C71.6331 128.23 74.1421 127.489 75.4875 125.554C76.8329 123.619 76.6537 121.01 75.0561 119.277C74.1131 118.254 72.7888 117.668 71.3975 117.657C70.265 117.648 69.1623 118.022 68.2686 118.717Z" fill="#000002"/>
<path d="M67.7078 116.449C70.5755 114.768 74.2195 115.251 76.5493 117.622C76.0504 118.522 75.8715 118.663 75.0561 119.277C74.113 118.254 72.7887 117.668 71.3974 117.657C70.2649 117.648 69.1623 118.022 68.2685 118.717C68.4884 117.795 68.1403 117.494 67.7078 116.449Z" fill="#262F3E"/>
<path d="M67.7077 116.449C68.1402 117.494 68.4884 117.795 68.2685 118.717C67.2795 119.487 66.6137 120.598 66.4014 121.833C65.6945 120.776 66.0529 120.406 65.9142 119.094L65.254 118.817C65.872 117.844 66.7134 117.032 67.7077 116.449Z" fill="#000002"/>
<path d="M335.132 116.838C337.682 115.075 341.075 115.149 343.545 117.021C346.024 118.899 347.01 122.16 345.987 125.096C344.964 128.033 342.166 129.976 339.055 129.908C335.947 129.841 333.234 127.778 332.339 124.8C331.448 121.822 332.573 118.607 335.132 116.838ZM344.522 122.96C343.941 121.219 343.252 119.982 342.178 118.512C336.915 116.206 337.166 119.423 335.323 119.522C334.063 122.136 334.425 125.793 337.231 127.215C338.271 127.734 339.477 127.814 340.576 127.437C342.927 126.646 343.52 125.02 344.522 122.96Z" fill="#000002"/>
<path d="M335.132 116.838C337.682 115.075 341.075 115.149 343.545 117.021C343.232 117.369 342.485 118.242 342.178 118.512C336.915 116.206 337.166 119.423 335.322 119.522C335.385 118.59 336.405 117.76 337.08 117.064L336.833 116.815L336.938 116.986L336.687 117.079L336.163 116.641C335.832 116.744 335.476 116.785 335.132 116.838Z" fill="#030C18"/>
<path d="M154.377 142.524C158.286 141.855 161.995 144.491 162.648 148.402C163.301 152.313 160.65 156.01 156.736 156.647C152.843 157.281 149.171 154.649 148.521 150.76C147.872 146.871 150.49 143.189 154.377 142.524ZM156.171 154.712C157.906 154.05 158.715 153.309 159.944 151.911C160.507 147.368 160.308 145.395 155.197 144.414C153.646 144.766 152.362 145.185 151.45 146.606C150.69 147.784 150.436 149.219 150.745 150.586C151.376 153.468 153.386 154.607 156.171 154.712Z" fill="#000002"/>
<path d="M238.869 115.62C242.704 114.994 246.338 117.539 247.058 121.356C247.778 125.173 245.321 128.867 241.522 129.68C238.763 130.27 235.915 129.185 234.249 126.91C232.582 124.635 232.408 121.593 233.804 119.142C234.874 117.263 236.735 115.969 238.869 115.62ZM235.07 123.329C236.376 126.418 237.089 127.654 240.579 127.972C243.633 126.63 246.02 123.862 244.437 120.403C243.905 119.265 242.938 118.389 241.753 117.971C241.253 117.795 240.53 117.688 239.995 117.615C236.157 118.579 235.841 119.63 235.07 123.329Z" fill="#020712"/>
<path d="M469.746 142.399C469.98 142.385 470.217 142.375 470.453 142.371C472.792 142.334 473.806 143.166 475.411 144.716C477.131 149.376 477.134 155.719 471.168 156.821C464.319 157.553 462.165 144.652 469.746 142.399ZM471.541 154.745C475.77 152.18 475.356 144.163 470.014 144.344C465.364 147.081 466.06 154.441 471.541 154.745Z" fill="#000002"/>
<path d="M367.621 142.47C370.761 142.148 371.518 142.313 373.766 144.534C375.502 146.345 374.744 151.321 374.356 153.644C366.7 163.391 358.512 148.131 367.621 142.47ZM369.487 144.319C365.515 145.915 365.302 148.618 366.41 152.664C366.832 154.199 368.986 155.24 370.422 154.458C373.784 152.719 373.08 148.489 371.823 145.745C371.162 145.062 370.342 144.735 369.487 144.319Z" fill="#000002"/>
<path d="M367.621 142.47C370.761 142.148 371.518 142.313 373.766 144.534L373.208 145.411C372.732 145.513 372.291 145.6 371.823 145.745C371.162 145.062 370.342 144.735 369.487 144.319C369.219 144.258 368.091 142.919 367.621 142.47Z" fill="#071227"/>
<path d="M436.414 145.694C438.582 141.774 441.973 141.388 445.395 144.017C447.269 146.284 447.147 148.268 446.873 151.121C446.788 151.953 446.674 152.783 446.528 153.607C440.075 161.457 434.357 153.668 436.414 145.694ZM443.936 145.462C440.973 143.743 439.756 144.38 438.035 147.143C437.987 148.801 437.804 150.187 438.346 151.862C439.494 155.397 442.765 156.09 444.337 152.309C445.309 149.97 444.919 147.816 443.936 145.462Z" fill="#000002"/>
<path d="M436.414 145.694C438.582 141.774 441.973 141.388 445.395 144.017C445.121 144.277 444.093 145.223 443.936 145.462C440.973 143.743 439.756 144.38 438.035 147.143L436.414 145.694Z" fill="#071227"/>
<path d="M133.23 115.93C135.718 115.771 141.875 115.125 143.21 117.968C144.57 120.862 143.401 122.983 140.679 124.388L141.399 125.422C142.036 126.343 143.691 128.464 143.5 129.51C142.813 129.849 142.561 129.752 141.791 129.605C140.421 128.329 138.167 123.184 135.924 124.193C134.765 125.547 135.846 127.718 135.325 129.493C134.459 129.883 134.816 129.824 133.87 129.732C133.32 128.933 133.283 117.837 133.23 115.93ZM135.51 122.634C137.596 122.682 138.769 122.785 140.788 122.084C143.319 117.528 138.579 117.443 135.519 117.684C135.499 119.311 135.451 121.014 135.51 122.634Z" fill="#000002"/>
<path d="M134.842 149.106C135.57 147.302 136.823 142.98 138.236 142.304C140.207 142.391 140.819 144.351 141.457 145.97C142.764 149.287 144.198 152.664 145.361 156.025L145.269 156.539C142.252 157.25 143.266 153.763 140.427 153.262C138.965 153.202 137.074 153.249 135.58 153.247C135.269 154.461 135.144 155.688 134.201 156.431C133.194 156.68 133.521 156.738 132.646 156.418C131.93 154.999 134.189 150.679 134.842 149.106ZM136.451 150.312C136.324 150.796 136.153 151.069 136.3 151.461C137.218 151.26 140.372 151.381 141.475 151.398C140.549 149.552 139.662 147.199 138.897 145.245C138.05 146.919 137.234 148.608 136.451 150.312Z" fill="#000002"/>
<path d="M134.842 149.106C135.65 150.072 135.39 150.061 136.451 150.312C136.324 150.796 136.153 151.069 136.3 151.461C137.172 152.217 139.238 152.787 140.427 153.262C138.965 153.202 137.074 153.249 135.58 153.247C135.269 154.461 135.144 155.688 134.201 156.431C133.194 156.68 133.521 156.738 132.646 156.418C131.93 154.999 134.189 150.679 134.842 149.106Z" fill="#071227"/>
<path d="M32.3411 129.061C32.2553 129.232 31.9658 129.453 31.8054 129.594C30.8675 129.601 30.5917 129.78 29.9979 129.266C30.288 127.884 34.2569 117.149 35.5219 116.01C36.0669 115.519 36.3786 115.566 37.0009 115.646C38.0782 116.427 40.5387 123.033 41.1077 124.615C41.8043 125.955 43.4095 128.332 42.4876 129.775C41.6465 130.079 41.9405 130.013 40.9342 129.723C40.3863 129.171 40.0424 128.778 40.2552 127.883C39.5746 126.68 39.9336 126.937 38.7531 126.402C36.9582 126.403 35.0484 126.367 33.2654 126.479C33.0001 127.227 32.6371 128.361 32.3411 129.061ZM34.1195 124.035L34.3611 124.377C35.7627 124.595 37.3303 124.484 38.7586 124.432C37.9394 122.558 37.1924 120.208 36.3356 118.166C35.6413 120.094 34.9415 122.168 34.1195 124.035Z" fill="#000002"/>
<path d="M32.3411 129.061C32.3607 127.623 32.4795 124.662 34.1195 124.035L34.3611 124.377C35.7626 124.595 37.3303 124.484 38.7585 124.432L38.7942 124.82C37.8964 125.125 37.4827 125.06 36.5576 125.009C37.7055 125.383 37.9787 125.463 38.7531 126.402C36.9581 126.403 35.0483 126.367 33.2653 126.479C33.0001 127.227 32.6371 128.361 32.3411 129.061Z" fill="#000002"/>
<path d="M41.1076 124.615C41.8042 125.955 43.4095 128.332 42.4875 129.775C41.6464 130.079 41.9404 130.013 40.9341 129.723C40.3862 129.171 40.0423 128.778 40.2551 127.883L40.6301 127.749C41.0626 126.523 41.0475 125.917 41.1076 124.615Z" fill="#030C18"/>
<path d="M254.26 142.048C255.251 142.283 255.953 142.481 256.274 143.557C257.056 146.173 261.685 154.664 260.86 156.859C259.737 156.489 258.56 154.428 257.822 153.486C257.524 153.105 255.751 153.177 255.197 153.171C253.996 153.155 252.548 153.323 251.331 153.432C250.826 154.763 250.786 155.661 249.867 156.517C248.87 156.559 248.949 156.711 248.205 156.253C248.15 154.64 252.656 145.318 253.273 143.123C253.338 142.89 254.035 142.235 254.26 142.048ZM252.153 151.245L255.1 151.389C255.922 151.312 256.552 151.421 257.017 150.927C256.381 148.659 255.566 147.143 254.622 145.006C253.832 147.098 253.009 149.178 252.153 151.245Z" fill="#000002"/>
<path d="M103.955 143.485C104.816 142.475 104.419 142.694 105.613 142.279C107.379 142.803 107.666 144.178 108.116 145.82C108.774 147.068 112.367 155.54 112.076 156.606C111.208 156.75 110.984 156.646 110.133 156.376C109.376 155.805 109.272 154.535 109.065 153.551C106.576 153.295 105.264 153.156 102.784 153.31C102.37 154.377 101.966 155.762 101.103 156.453C100.315 156.657 100.584 156.712 99.9552 156.359C98.9948 153.558 103.898 146.809 103.955 143.485ZM103.437 151.159C105.443 151.324 106.22 151.342 108.246 151.203C107.466 149.25 106.641 147.316 105.77 145.402L105.543 145.434L103.437 151.159Z" fill="#000002"/>
<path d="M103.955 143.485C104.817 142.475 104.419 142.694 105.613 142.279C107.379 142.803 107.666 144.178 108.116 145.82C107.529 145.795 106.905 145.386 106.374 145.096L105.77 145.402L105.543 145.434C105.22 144.333 104.863 144.143 103.955 143.485Z" fill="#071227"/>
<path d="M151.275 120.366C151.9 118.437 152.244 115.705 154.693 115.988C157.127 117.545 159.262 125.94 160.985 129.243C160.536 129.711 160.426 129.615 159.696 129.813C157.456 128.974 158.639 126.53 156.407 126.347C154.66 126.349 152.843 126.408 151.089 126.443C150.709 127.983 150.718 129.064 149.222 129.762C148.295 129.55 148.579 129.732 147.946 129.085C148.093 128.253 150.773 121.727 151.275 120.366ZM152.078 124.575C153.393 124.459 155.222 124.466 156.578 124.431C155.844 122.526 155.632 120.636 154.505 118.886L154.264 119.038C153.098 121.001 152.454 122.035 151.95 124.314L152.078 124.575Z" fill="#000002"/>
<path d="M151.275 120.366C153.023 120.229 152.132 118.803 154.264 119.038C153.098 121.001 152.454 122.035 151.95 124.314L152.078 124.575C153.78 126.466 155.313 124.59 156.407 126.347C154.66 126.349 152.843 126.408 151.089 126.443C150.709 127.983 150.718 129.064 149.222 129.762C148.295 129.55 148.579 129.732 147.946 129.085C148.093 128.253 150.773 121.727 151.275 120.366Z" fill="#030C18"/>
<path d="M220.085 142.169C220.327 142.261 221.085 142.58 221.199 142.715C222.537 144.3 226.906 154.674 227.165 156.3L226.706 156.913L226.108 156.951C223.691 155.341 225.253 153.691 221.248 153.216C220.061 153.283 219.181 153.285 217.992 153.247C217.435 154.462 216.907 156.011 215.749 156.575C214.664 156.491 214.862 156.676 214.293 156.055C214.553 154.376 219.08 143.753 220.085 142.169ZM221.621 151.255L222.472 151.242C222.829 149.957 221.518 146.513 220.48 145.723C219.977 146.874 218.72 149.363 218.773 150.473C219.364 151.756 220.274 151.354 221.621 151.255Z" fill="#000002"/>
<path d="M450.158 122.602C451.013 120.608 452.141 116.531 453.56 115.69C455.395 116.181 456.03 118.121 456.691 119.768C457.985 122.992 459.284 126.1 460.74 129.25C460.173 129.929 460.461 129.751 459.578 129.938C457.529 129.075 457.643 126.389 456.124 126.367C454.463 126.391 452.418 126.364 450.791 126.485C450.52 127.238 449.799 129.119 449.694 129.81C448.856 129.806 448.318 129.864 447.566 129.471C447.375 128.659 448.047 127.741 448.477 126.693C448.788 125.086 449.412 124.036 450.158 122.602ZM451.455 124.443L453.851 124.49C454.677 124.506 454.928 124.521 455.723 124.323C456.409 123.169 454.523 119.666 454.07 118.261C453.036 120.394 452.717 122.393 451.455 124.443Z" fill="#000002"/>
<path d="M450.158 122.602L451.455 124.443L453.851 124.49C452.948 124.543 452.213 124.511 451.426 124.977L451.617 125.314C453.304 125.734 454.877 125.478 456.124 126.367C454.463 126.391 452.418 126.364 450.791 126.485C450.52 127.238 449.799 129.119 449.694 129.81C448.856 129.806 448.318 129.864 447.566 129.471C447.375 128.659 448.047 127.741 448.477 126.693C448.788 125.086 449.412 124.036 450.158 122.602Z" fill="#030C18"/>
<path d="M448.477 126.693C449.335 127.333 449.463 128.142 449.614 129.176C449.645 129.387 449.671 129.598 449.694 129.81C448.856 129.806 448.318 129.864 447.566 129.471C447.375 128.659 448.047 127.741 448.477 126.693Z" fill="#000002"/>
<path d="M302.717 115.873C304.808 115.836 310.558 115.491 312.053 116.852L311.694 117.207C309.66 117.838 307.418 117.638 305.278 117.578L305.295 121.772C306.896 121.745 310.196 121.406 311.321 122.681L311.07 123.112C309.258 123.944 307.859 123.759 305.842 123.812L305.463 123.906C305.141 124.613 305.338 126.642 305.378 127.528C307.247 127.504 309.982 127.29 311.632 127.963C312.239 128.631 312.127 128.322 312.133 129.174C311.133 130.13 304.452 129.802 302.645 129.836C302.813 125.284 302.731 120.451 302.717 115.873Z" fill="#262F3E"/>
<path d="M91.2257 115.888C93.2626 115.841 99.5236 115.463 100.813 116.859C99.7547 117.88 95.0237 117.615 93.5392 117.582L93.5854 121.771C95.1182 121.734 98.4338 121.494 99.6356 122.197L99.6889 122.705C98.476 124.578 95.4778 122.955 93.5674 123.919L93.6085 127.672C95.4721 127.596 100.116 126.961 100.74 129.042L100.447 129.587C98.8752 129.953 93.26 129.801 91.2853 129.792C91.3286 125.158 91.3086 120.522 91.2257 115.888Z" fill="#262F3E"/>
<path d="M19.3692 142.742C21.1997 142.537 27.5263 142.033 28.6739 143.522L28.3499 143.917C25.764 144.699 24.2046 144.488 21.5003 144.476L21.5234 148.279C23.1454 148.266 26.4838 148.035 27.6964 148.832L27.6483 149.537C26.0509 151.451 23.4809 149.176 21.4764 150.611L21.385 154.566C23.2817 154.516 26.4416 154.217 28.0884 154.827C28.7557 155.567 28.6249 155.217 28.5938 156.232C27.5562 156.964 21.0006 156.586 19.3121 156.543C19.6779 152.952 19.1148 146.801 19.3692 142.742Z" fill="#262F3E"/>
<path d="M108.897 115.627C110.353 115.566 112.59 115.881 113.682 116.922C113.998 117.891 114.001 117.511 113.704 118.457C112.146 118.865 108.882 116.282 107.227 118.744C107.633 121.428 113.471 122.315 114.555 125.248C115.559 127.968 112.212 129.265 110.207 129.872C108.231 129.854 104.826 129.602 104.86 127.105L105.311 126.705C106.906 126.508 111.731 129.659 112.421 125.701C111.466 123.764 105.676 123.608 105.025 120.292C104.378 116.998 106.201 116.224 108.897 115.627Z" fill="#000002"/>
<path d="M368.176 115.628C370.025 115.534 372.752 116.004 373.533 117.901C372.308 119.43 369.681 116.485 366.398 118.501C365.521 120.908 373.453 122.289 373.792 125.324C374.145 128.486 371.538 129.311 369.051 129.954C367.581 129.8 364.843 129.204 364.019 127.864C364.036 127.006 363.92 127.291 364.427 126.675C366.25 126.274 370.384 129.941 371.658 125.954C370.78 123.526 364.914 123.578 364.196 120.279C363.529 117.201 365.746 116.245 368.176 115.628Z" fill="#000002"/>
<path d="M222.737 115.65C224.461 115.509 228.582 116.002 229.132 117.898C227.543 120.411 221.606 114.853 219.449 120.591C217.87 124.793 222.316 129.45 225.924 127.19C227.039 126.757 228.263 125.946 228.955 127.175C228.61 128.464 227.014 129.312 225.811 129.652C223.938 130.174 221.935 129.935 220.237 128.988C215.013 126.055 215.868 117.406 222.737 115.65Z" fill="#000002"/>
<path d="M95.8046 142.241L96.4417 142.795C96.7528 143.813 93.9615 150.693 93.4985 152.259C92.9705 154.046 91.9072 156.927 89.6145 156.56C87.9258 155.422 85.7955 148.227 84.8512 145.671C84.3697 144.718 83.7349 143.674 83.9287 142.68C84.6561 142.495 84.9085 142.633 85.6316 142.882C87.3918 145.033 89.4837 151.488 90.1806 154.224C91.1944 151.38 93.0751 145.727 94.651 142.948C95.1083 142.668 95.4926 142.432 95.8046 142.241Z" fill="#000002"/>
<path d="M428.519 128.834C428.402 127.06 428.023 116.662 428.83 115.922C431.616 115.693 431.599 116.357 432.593 118.873C433.77 121.052 434.442 122.43 436.046 124.312C436.511 123.152 437.3 121.009 437.867 119.981C438.588 120.873 438.611 121.186 438.785 122.287C437.927 124.028 437.001 127.097 434.733 126.495C433.172 125.206 432.058 121.703 430.673 119.902C430.727 122.071 431.095 127.812 430.305 129.51L429.696 129.92C428.855 129.695 429.123 129.866 428.539 129.266L428.519 128.834Z" fill="#000002"/>
<path d="M428.519 128.834C428.402 127.06 428.023 116.662 428.83 115.922C431.616 115.693 431.599 116.357 432.593 118.873C431.109 118.439 431.348 118.73 429.599 118.972C427.741 120.426 428.721 126.305 428.519 128.834Z" fill="#030C18"/>
<path d="M193.506 117.416C194.324 117.617 195.305 117.78 195.969 118.269C194.302 119.663 193.224 121.666 193.716 123.867C194.005 125.175 194.805 126.314 195.939 127.03C198.956 128.897 201.269 127.084 202.834 124.499C201.882 124.432 199.169 124.406 198.693 123.576C199.541 122.085 202.505 121.507 203.993 122.463C206.645 125.62 202.578 129.704 198.784 129.91C196.896 130.013 195.046 129.357 193.645 128.087C190.516 125.224 190.686 120.451 193.506 117.416Z" fill="#000002"/>
<path d="M454.375 142.647C456.552 142.335 459.974 143.1 460.484 145.648C460.732 146.882 459.478 148.007 458.72 148.887C467.216 158.914 449.617 157.56 451.341 153.585L452.432 153.31C454.369 154.33 458.182 155.506 458.663 152.254C457.788 149.581 454.783 150.259 454.059 149.327C454.848 147.706 458.133 148.223 458.41 146.166C457.005 143.596 454.067 145.278 451.574 145.235L451.403 144.809C452.002 143.77 453.349 143.155 454.375 142.647Z" fill="#000002"/>
<path d="M177.976 115.959C179.026 115.826 180 115.789 181.055 115.741C180.894 116.794 180.746 116.642 181.181 117.447L181.799 117.798C179.505 118.098 179.577 119.678 180.687 121.369C181.329 121.798 181.907 121.752 182.672 121.779C183.892 121.759 185.625 121.617 186.701 122.061L187.025 122.55C186.905 122.847 186.79 123.201 186.591 123.444C185.173 123.726 181.799 123.774 180.192 123.833C180.111 124.936 180.189 126.389 180.218 127.521C183.067 127.485 184.536 127.291 187.245 128.136L187.513 128.722C186.297 129.97 179.878 129.723 177.984 129.698C178.092 125.119 178.09 120.538 177.976 115.959Z" fill="#262F3E"/>
<path d="M182.672 121.779C183.892 121.759 185.625 121.617 186.701 122.061L187.025 122.55C186.905 122.847 186.79 123.201 186.591 123.444C184.735 123.481 183.709 123.485 182.672 121.779Z" fill="#000002"/>
<path d="M117.081 145.203C117.382 144.756 118.174 144.059 118.594 143.662L120.284 145.236C119.554 145.944 118.713 146.687 118.16 147.528C118.135 148.11 118.125 148.693 118.129 149.276C118.285 158.668 126.307 151.989 128.438 153.939C127.955 155.897 124.392 156.31 123.168 157.059C123.257 158.541 125.548 158.185 124.99 160.121C123.823 161.294 122.329 161.94 120.772 161.148C120.9 160.69 122.558 159.847 123.166 159.454L123.13 159.029L121.545 158.421C120.919 157.275 121.512 157.279 120.331 156.54C115.728 153.662 113.771 150.003 117.081 145.203Z" fill="#000002"/>
<path d="M117.081 145.203C117.382 144.756 118.174 144.059 118.594 143.662L120.284 145.236C119.554 145.944 118.713 146.687 118.16 147.528C117.916 146.694 118.377 146.387 117.961 145.402L117.081 145.203Z" fill="#030C18"/>
<path d="M413.891 117.785C414.091 118.837 413.98 119.273 414.646 119.929C415.458 119.753 415.606 119.663 416.327 119.235C416.31 120.285 416.299 120.603 416.544 121.651C417.832 122.199 421.148 121.258 422.544 122.047L422.681 122.6C421.849 124.265 418.011 123.682 416.185 123.658C416.339 124.873 416.373 126.395 416.43 127.642C418.1 127.62 422.47 127.216 423.581 128.408C423.672 129.194 423.741 128.907 423.336 129.563C421.758 129.894 415.789 129.77 413.777 129.768C414.031 126.487 413.894 121.208 413.891 117.785Z" fill="#262F3E"/>
<path d="M163.206 115.973C165.377 115.765 171.351 115.596 173.561 116.137C173.714 116.174 173.783 116.523 173.861 116.736L173.576 117.337C172.638 117.845 170.848 117.698 169.709 117.69L169.727 127.158C169.765 128.25 169.998 128.886 169.476 129.632C168.592 129.844 168.435 129.878 167.548 129.711C166.806 128.43 167.186 119.738 167.349 117.87C166.097 117.733 162.837 117.81 162.498 116.598L163.206 115.973Z" fill="#262F3E"/>
<path d="M17.0778 119.156C17.0353 118.215 16.835 116.661 17.3135 115.93C18.2284 115.57 18.3244 115.749 19.3813 115.915C19.6402 119.422 19.534 123.959 19.548 127.547C21.0801 127.508 24.0272 127.222 25.2334 127.881C25.7066 128.651 25.6084 128.326 25.5427 129.277C24.7812 130.011 18.7441 129.721 17.1067 129.812C17.0189 126.26 17.0092 122.708 17.0778 119.156Z" fill="#262F3E"/>
<path d="M17.0778 119.156C17.0353 118.215 16.835 116.661 17.3135 115.93C18.2284 115.57 18.3244 115.749 19.3813 115.915C19.1064 118.281 19.2586 117.995 17.0778 119.156Z" fill="#000002"/>
<path d="M298.565 148.326C298.534 146.749 298.363 144.277 298.805 142.843L299.172 142.464C300.03 142.552 300.172 142.574 300.776 143.168C301.061 144.673 300.962 151.864 300.714 153.303C300.756 153.617 300.805 153.96 300.859 154.333C302.358 155.045 306.084 153.876 307.631 155.109L307.563 155.882C306.025 157.102 300.779 156.633 298.483 156.613L298.565 148.326Z" fill="#000002"/>
<path d="M298.565 148.326C298.594 149.807 298.375 151.794 299.09 152.933C299.725 153.215 300.021 153.223 300.714 153.303C300.756 153.617 300.805 153.96 300.859 154.333C302.358 155.044 306.084 153.876 307.631 155.109L307.563 155.882C306.025 157.102 300.779 156.633 298.483 156.613L298.565 148.326Z" fill="#262F3E"/>
<path d="M357.834 125.545C356.845 123.205 351.842 124.063 350.708 121.103C348.426 115.137 357.529 114.299 359.404 117.486L359.301 118.037C357.033 119.55 355.475 115.634 353.005 118.811C352.748 122.373 361.193 121.217 360.073 127.599C358.825 125.842 358.657 127.208 357.834 125.545Z" fill="#000002"/>
<path d="M387.739 119.591C390.3 122.206 399.192 123.233 394.551 128.371C392.346 130.811 386.705 130.036 385.249 127.421C386.055 125.385 391.047 129.072 393.09 126.816C393.372 126.06 393.204 125.78 392.921 125.002C392.067 124.293 390.465 123.86 389.366 123.491C388.682 122.78 388.28 122.421 387.531 121.803C387.192 120.76 387.394 120.763 387.739 119.591Z" fill="#000002"/>
<path d="M403.617 118.324C402.281 117.376 400.144 118.389 398.591 116.724C399.395 114.966 407.612 115.839 409.316 116.463L409.581 116.878C408.979 117.719 406.595 117.735 405.646 117.78L405.481 124.203C405.495 125.702 405.845 129.291 404.506 130.037C403.329 128.486 403.164 120.324 403.617 118.324Z" fill="#262F3E"/>
<path d="M403.617 118.324L404.731 118.195C405.922 119.348 405.404 122.491 405.481 124.203C405.495 125.702 405.845 129.291 404.506 130.037C403.329 128.486 403.164 120.324 403.617 118.324Z" fill="#000002"/>
<path d="M57.3459 125.317C57.4248 123.676 57.2057 116.517 57.8474 115.867C60.3996 115.936 59.4027 124.398 59.5121 126.505C59.6238 127.554 59.8381 128.457 59.3326 129.374C58.0747 130.363 57.2217 129.407 56.3629 128.349C55.2358 126.948 54.038 125.008 52.8094 123.429L53.8759 121.53C55.0614 123.163 55.7011 124.051 57.3459 125.317Z" fill="#000002"/>
<path d="M56.3629 128.349L57.3738 126.736C58.4254 126.216 58.2206 126.38 59.5121 126.505C59.6238 127.554 59.8381 128.457 59.3326 129.374C58.0747 130.363 57.2217 129.407 56.3629 128.349Z" fill="#262F3E"/>
<path d="M259.586 129.82C259.793 125.887 259.361 119.811 259.789 116.194C260.42 115.715 261.664 115.827 262.515 115.815L263.14 117.425C262.952 117.508 262.44 117.675 262.399 117.851C262.039 119.405 261.81 126.463 262.477 127.577L262.992 127.691C265.546 128.021 264.579 127.628 265.067 129.676L259.586 129.82Z" fill="#262F3E"/>
<path d="M344.565 141.048C346.819 141.238 343.919 146.973 343.608 148.93C343.018 152.656 345.648 156.476 345.902 159.359L345.238 160.099C340.348 158.083 340.394 144.764 344.565 141.048Z" fill="#000002"/>
<path d="M185.233 143.775C188.721 146.472 187.944 150.264 186.918 154.03C183.748 156.63 182.378 156.804 178.258 156.669C178.003 156.417 177.789 156.017 177.598 155.703C177.919 154.919 177.756 155.167 178.718 154.729C180.968 154.581 182.423 154.631 184.163 152.981C186.929 150.359 185.784 147.691 183.612 145.326C184.417 144.888 184.675 144.481 185.233 143.775Z" fill="#000002"/>
<path d="M480.608 141.098C487.038 142.137 485.816 155.589 482.428 159.461L481.246 159.595C480.778 159.31 480.551 159.121 480.87 158.513C484.46 151.646 483.209 148.025 480.608 141.098Z" fill="#000002"/>
<path d="M326.687 151.641C324.068 149.676 317.202 149.606 319.729 144.375C321.136 141.463 327.442 141.713 328.308 144.635C326.396 145.766 322.914 143.183 321.404 146.289C321.96 147.514 325.496 148.527 326.974 149.095C326.957 149.81 327.02 151.074 326.687 151.641Z" fill="#000002"/>
<path d="M66.5795 152.636C64.1357 144.73 71.5316 139.31 78.7608 144.454C78.5448 145.523 78.6206 145.97 77.5961 146.637C75.5034 144.629 72.514 143.555 69.8255 145.789C68.181 147.155 68.7474 149.493 68.4876 151.327L66.5795 152.636Z" fill="#071227"/>
<path d="M47.5427 120.951C47.4937 119.19 47.0279 116.466 48.765 115.58C50.2415 115.876 51.2598 117.476 52.0458 118.639L52.7932 119.745C52.2974 120.281 51.7894 120.882 51.1942 121.296L49.7853 119.955L49.6642 124.261C49.7562 126.014 50.1645 128.345 49.1608 129.656C48.4462 129.721 48.2684 129.764 47.6689 129.397C47.3721 128.021 47.5467 122.657 47.5427 120.951Z" fill="#262F3E"/>
<path d="M47.5428 120.951C48.4369 120.395 48.1086 120.417 48.9717 120.607C49.6566 121.465 49.6039 123.123 49.6643 124.261C49.7563 126.014 50.1646 128.345 49.1608 129.656C48.4463 129.721 48.2685 129.764 47.669 129.397C47.3721 128.021 47.5468 122.657 47.5428 120.951Z" fill="#000002"/>
<path d="M52.0458 118.639L52.7932 119.745C52.2974 120.281 51.7894 120.882 51.1942 121.296L49.7853 119.955C50.8882 119.855 51.2523 119.389 52.0458 118.639Z" fill="#262F3E"/>
<path d="M395.614 147.493C400.372 147.283 405.019 148.734 401.358 155.31C400.315 157.185 393.879 157.844 392.873 154.221L393.141 153.868C395.05 153.771 400.472 156.266 400.466 152.083C400.466 150.764 399.204 149.568 398.047 148.954C397.053 148.957 396.508 149.005 395.548 148.703L395.315 148.212L395.614 147.493Z" fill="#000002"/>
<path d="M429.807 146.507C425.325 141.915 424.903 147.135 422.066 145.831C422.068 143.559 425.319 142.575 427.077 142.14C435.172 145.012 430.377 149.663 426.205 153.222L424.809 151.852C426.621 150.283 428.411 148.46 429.807 146.507Z" fill="#000002"/>
<path d="M273.357 142.968C277.733 146.01 276.377 149.815 271.694 151.118C271.014 151.307 268.799 151.313 267.997 151.311C268.01 152.711 268.216 155.249 267.639 156.359C266.832 156.806 267.154 156.714 266.092 156.498C265.667 155.811 265.809 155.936 265.863 154.978C266 150.545 266.854 152.476 267.894 149.345C270.009 149.341 273.494 149.485 273.645 146.68C273.287 145.631 272.823 145.353 271.971 144.672C272.299 144.199 272.969 143.439 273.357 142.968Z" fill="#000002"/>
<path d="M241.258 152.044C242.12 149.506 240.695 144.229 242.124 142.46L242.898 142.291L242.255 142.336L242.996 142.39C243.826 143.746 244.33 155.405 242.873 156.596C240.851 156.709 239.601 154.292 238.623 152.746C239.695 151.609 239.852 151.845 241.258 152.044Z" fill="#262F3E"/>
<path d="M386.397 146.502C382.291 142.359 381.756 146.319 379.479 146.191C379.02 145.195 379.094 145.61 379.208 144.495C381.744 140.123 395.141 143.029 383.405 153.13L381.63 152.275C383.875 150.212 384.679 149.095 386.397 146.502Z" fill="#000002"/>
<path d="M77.9585 151.334C78.6654 150.528 78.7221 150.169 79.6184 149.999C80.1902 150.536 80.237 150.623 80.5008 151.363C78.5745 158.218 70.3988 158.555 66.5795 152.636L68.4876 151.327L68.546 151.464C69.6911 154.064 72.9103 155.411 75.4957 154.152C76.6607 153.58 77.5479 152.565 77.9585 151.334Z" fill="#000002"/>
<path d="M192.998 152.644C193.018 149.691 192.532 145.755 193.121 143.231C193.802 142.456 193.814 142.669 195.036 142.538L196.092 143.577C196.078 143.755 196.068 144.059 196.014 144.213C194.432 145.174 195.041 146.651 195.135 148.428C197.315 148.297 199.152 147.921 201.06 148.96L201.149 149.391C199.945 150.547 197.569 150.257 195.892 150.235L195.164 150.536C194.913 151.305 194.91 151.535 194.873 152.349C194.501 153.265 194.688 153.249 194 153.578C193.496 153.243 193.322 153.163 192.998 152.644Z" fill="#000002"/>
<path d="M195.135 148.428C197.315 148.297 199.152 147.921 201.06 148.96L201.149 149.391C199.945 150.547 197.569 150.257 195.892 150.235C196.769 149.848 196.927 149.938 197.434 149.221C197.015 148.695 195.853 148.578 195.135 148.428Z" fill="#071227"/>
<path d="M289.747 156.279C288.24 157.024 285.724 156.911 284.169 156.299C282.363 155.582 280.922 154.168 280.172 152.376C279.362 150.459 279.398 148.202 280.176 146.287C280.568 146.551 281.9 147.382 282.092 147.698C281.541 152.989 284.815 156.352 289.918 153.78C290.24 154.772 290.021 155.289 289.747 156.279Z" fill="#000002"/>
<path d="M354.175 150.954C355.731 149.439 357.136 148.332 357.671 146.192C357.15 143.521 352.21 146.113 350.34 145.61L350.198 145.2C350.685 144.217 352.768 142.589 353.745 142.433C361.062 141.27 360.629 149.078 355.7 152.153L354.175 150.954Z" fill="#000002"/>
<path d="M2.16382 142.657C3.95201 142.381 6.43068 142.39 8.21483 142.606C7.66292 143.015 7.11571 143.43 6.57331 143.851L6.62542 144.412C5.71764 144.516 5.34235 144.396 4.74118 144.931C4.47093 146.79 4.38597 152.695 4.5504 154.641C3.70576 155.78 3.56589 155.636 2.0863 155.691C2.74681 152.231 2.37636 146.238 2.16382 142.657Z" fill="#262F3E"/>
<path d="M2.45188 122.564C2.47408 120.416 1.92457 118.159 2.53405 116.401C3.3912 115.662 3.35416 115.884 4.69823 115.805L4.43673 116.744C5.22347 117.77 6.01947 117.113 6.46927 117.667C6.06509 117.684 4.77946 117.682 4.5099 117.854C4.7539 119.547 4.57734 121.221 4.46331 122.925C5.25128 123.076 5.67489 123.023 6.22108 123.504C5.70028 124.251 5.82638 124.037 4.86807 124.476L4.75527 124.499C3.85145 125.426 4.96494 128.17 4.28427 129.684C3.37812 129.946 3.73352 129.951 2.84418 129.637C1.76312 128.357 2.33316 124.401 2.45188 122.564Z" fill="#000002"/>
<path d="M2.45187 122.564C2.47406 120.416 1.92456 118.159 2.53404 116.401C3.39118 115.662 3.35414 115.884 4.69821 115.805L4.43672 116.744C5.22346 117.77 6.01946 117.113 6.46926 117.667C6.06508 117.684 4.77944 117.682 4.50988 117.854C1.55314 119.73 4.25736 120.061 2.45187 122.564Z" fill="#030C18"/>
<path d="M354.176 150.954L355.7 152.153C355.184 152.597 354.181 153.797 353.688 154.362C355.971 154.548 357.703 154.522 359.982 154.506L360.378 155.246C359.746 157.575 352.11 156.732 350.209 156.236L350.09 155.528C350.54 153.629 352.654 152.218 354.176 150.954Z" fill="#262F3E"/>
<path d="M265.114 115.795C267.533 116.11 268.791 116.334 270.377 118.326C272.444 120.921 272.003 125.142 270.025 127.623C268.974 127.523 268.477 127.415 267.466 127.17C269.784 123.973 270.943 118.388 265.746 117.765C265.575 117.373 265.259 116.258 265.114 115.795Z" fill="#000002"/>
<path d="M378.356 115.863C379.223 115.812 379.408 115.798 380.237 116.024C380.838 116.858 380.69 127.956 380.701 129.825C379.867 129.856 379.527 129.931 378.855 129.467C378.171 128.005 378.59 118.587 378.356 115.863Z" fill="#000002"/>
<path d="M41.902 142.424L43.3201 142.782C43.8044 143.538 43.7113 155.154 43.613 156.796C42.8525 156.72 42.3291 156.719 41.6616 156.329C41.4108 155.066 41.3952 143.301 41.902 142.424Z" fill="#262F3E"/>
<path d="M424.809 151.852L426.205 153.222C425.667 153.83 425.638 153.665 425.61 154.319C427.308 155.292 430.907 153.756 431.861 155.374L431.536 156.182C430.04 156.891 423.929 157.092 422.405 156.19C421.165 154.324 423.453 152.979 424.809 151.852Z" fill="#262F3E"/>
<path d="M393.052 150.365C393.574 147.618 393.07 144.615 394.414 142.991C395.281 142.378 396.375 142.607 397.472 142.683C398.862 142.699 400.46 142.597 401.691 143.198L401.956 143.619C400.862 144.823 397.671 144.594 396.124 144.476C395.808 145.168 395.275 146.786 395.614 147.493L395.315 148.212L395.548 148.703C396.509 149.005 397.053 148.957 398.047 148.954C396.64 149.118 394.463 149.907 393.052 150.365Z" fill="#071227"/>
<path d="M397.472 142.683C398.862 142.699 400.46 142.597 401.691 143.198L401.956 143.619C400.862 144.823 397.671 144.594 396.124 144.476C395.756 144.316 395.679 144.202 395.389 143.918L395.394 143.409C395.893 142.841 396.705 142.812 397.472 142.683Z" fill="#000002"/>
<path d="M122.467 120.159C122.535 118.925 122.755 118.775 122.156 117.887C120.107 116.884 118.846 118.059 117.88 117.108L118.004 116.249C119.38 115.44 126.117 115.714 127.689 116.113C128.107 116.219 128.517 116.356 128.915 116.524L129.126 116.93C128.081 117.827 126.36 117.62 124.98 117.597L124.924 121.354C124.202 120.473 123.923 120.639 122.897 120.629L122.467 120.159Z" fill="#262F3E"/>
<path d="M313.033 142.189C313.749 142.43 314.076 143.38 314.071 144.041C314.048 146.498 314.817 155.26 313.484 156.988L312.814 156.621C311.871 155.464 312.096 144.964 312.35 143.087C312.35 143.087 312.954 142.293 313.033 142.189Z" fill="#000002"/>
<path d="M316.666 119.02C319.441 115.262 326.903 113.953 328.573 118.482L328.476 118.959C326.738 119.527 325.194 117.944 323.325 117.438C320.544 118.223 320.379 118.197 318.681 120.462C317.994 119.401 317.84 120.354 316.666 119.02Z" fill="#000002"/>
<path d="M319.054 125.347C320.889 127.697 321.541 127.714 324.459 127.548C326.031 126.772 326.715 126.145 328.402 126.913L328.621 127.417C328.057 128.508 327.992 128.567 326.709 129.114C322.806 130.484 321.174 129.991 317.72 127.984L318.071 127.223C318.416 126.376 318.529 126.09 319.054 125.347Z" fill="#030C18"/>
<path d="M324.459 127.548C326.031 126.772 326.715 126.145 328.402 126.913L328.621 127.417C328.057 128.508 327.992 128.567 326.709 129.114C324.912 129.116 325.06 129.044 324.459 127.548Z" fill="#000002"/>
<path d="M381.63 152.275L383.405 153.13L382.77 153.924C383.348 155.443 387.041 153.777 388.591 154.93C388.81 155.663 388.77 155.412 388.505 156.213C386.944 156.95 380.989 156.975 379.399 156.1C378.322 154.488 380.431 153.239 381.63 152.275Z" fill="#262F3E"/>
<path d="M175.629 143.19L175.736 142.86C176.467 142.272 176.558 142.455 177.642 142.437C178.304 143.005 178.858 143.257 178.982 143.976L178.803 144.388L178.12 144.563C178.022 144.802 177.84 145.192 177.809 145.434C178.009 147.831 177.989 149.961 177.98 152.368C177.042 153.038 176.96 152.621 175.631 152.947L175.629 143.19Z" fill="#000002"/>
<path d="M175.629 143.19L175.736 142.86C176.467 142.272 176.558 142.455 177.642 142.437C178.304 143.005 178.858 143.257 178.982 143.976L178.803 144.388L178.12 144.563C178.022 144.802 177.84 145.192 177.809 145.434C177.655 144.979 176.079 143.608 175.629 143.19Z" fill="#071227"/>
<path d="M49.3255 150.918C49.2697 149.119 48.4896 142.704 50.6692 142.24C51.7374 142.626 52.9232 144.508 53.5779 145.444C52.8927 146.173 52.7964 146.629 52.0525 146.955C51.4562 147.806 51.6425 148.899 51.6619 149.97C50.5071 149.702 50.6772 149.541 49.8093 150.041L49.3255 150.918Z" fill="#262F3E"/>
<path d="M437.867 119.981C438.346 118.534 440.018 115.377 441.736 115.423C443.389 116.474 442.591 120.898 442.628 122.852C442.127 121.909 441.833 121.609 440.796 121.791L440.588 120.536L440.198 120.273C439.602 120.985 439.161 121.841 438.784 122.287C438.611 121.186 438.588 120.873 437.867 119.981Z" fill="#262F3E"/>
<path d="M280.176 146.287C282.875 142.481 285.827 141.588 290.175 143.125C289.955 143.671 289.636 144.556 289.357 145.038C286.348 144.214 283.489 144.475 282.092 147.698C281.9 147.382 280.568 146.551 280.176 146.287Z" fill="#071227"/>
<path d="M122.467 120.159L122.897 120.629C123.923 120.639 124.202 120.473 124.924 121.354C124.903 123.5 125.289 127.668 124.402 129.321C123.569 129.89 123.942 129.785 122.88 129.686C122.063 128.837 122.485 121.889 122.467 120.159Z" fill="#000002"/>
<path d="M9.57463 154.135C10.2903 153.738 10.7951 153.151 11.3636 152.565C12.2577 152.83 12.6599 152.859 13.568 152.945C12.9142 154.059 11.8321 155.246 10.7255 155.9C8.85002 156.519 3.99304 157.209 2.24368 156.406L2.0863 155.691C3.56589 155.636 3.70576 155.78 4.5504 154.641C6.59795 154.578 7.56821 154.469 9.57463 154.135Z" fill="#030C18"/>
<path d="M209.829 126.352C209.814 124.176 209.334 117.846 210.033 116.159C210.73 115.773 210.428 115.816 211.235 116.023C212.324 117.4 211.931 123.657 211.925 125.831C211.321 126.019 210.434 126.341 209.829 126.352Z" fill="#071227"/>
<path d="M413.891 117.785C413.837 117.05 413.846 116.95 414.054 116.245C414.92 115.507 416.966 115.816 418.162 115.873C419.738 115.855 421.519 115.707 422.949 116.317L423.311 116.732C422.433 117.993 417.646 117.741 416.25 117.453L416.327 119.235C415.606 119.663 415.458 119.753 414.646 119.929C413.98 119.273 414.091 118.837 413.891 117.785Z" fill="#000002"/>
<path d="M418.162 115.873C419.738 115.855 421.519 115.707 422.949 116.317L423.311 116.732C422.433 117.993 417.647 117.741 416.25 117.453C417.168 117.25 417.652 117.466 418.627 116.936C418.669 116.28 418.684 116.497 418.162 115.873Z" fill="#030C18"/>
<path d="M231.755 147.883C231.815 146.296 231.002 142.525 233.142 142.288C234.64 143.137 236.172 145.677 237.154 147.164C236.517 147.812 236.32 147.871 235.462 148.202L234.27 147.048L233.849 147.209L231.755 147.883Z" fill="#262F3E"/>
<path d="M407.05 149.314C410.042 149.133 413.424 149.177 416.438 149.364C417.433 149.426 417.903 149.609 418.06 150.571L417.578 150.954C415.592 151.008 407.381 151.737 406.589 150.083L407.05 149.314Z" fill="#000002"/>
<path d="M58.9663 151.041L61.2331 151.101C61.2758 152.958 61.9021 156.24 59.5883 156.561C57.6252 155.736 57.6377 154.574 56.5909 153.028C57.3286 152.681 57.4343 152.559 57.9887 151.952C58.1349 152.178 58.1805 152.133 58.4899 152.256L58.9663 151.041Z" fill="#262F3E"/>
<path d="M4.6982 115.805C9.19024 115.758 11.876 115.096 12.2883 120.524C11.8404 120.858 11.4668 121.082 10.991 121.369L10.373 121.078C10.3506 117.938 9.19123 118.122 6.46925 117.667C6.01945 117.113 5.22345 117.77 4.43671 116.744L4.6982 115.805Z" fill="#000002"/>
<path d="M11.778 143.931C14.6479 146.639 14.1838 148.699 13.8601 152.386L13.568 152.945C12.6598 152.859 12.2577 152.83 11.3636 152.565L12.1202 149.283C11.7584 147.317 11.6712 146.621 10.2867 145.202L11.778 143.931Z" fill="#000002"/>
<path d="M12.1202 149.283C12.1969 151.435 11.9433 151.286 13.8601 152.386L13.568 152.945C12.6598 152.859 12.2577 152.83 11.3636 152.565L12.1202 149.283Z" fill="#030C18"/>
<path d="M58.9663 151.041C58.9937 148.756 58.766 144.848 59.1042 142.853L59.5572 142.466C62.2203 142.823 61.1966 148.785 61.2331 151.101L58.9663 151.041Z" fill="#000002"/>
<path d="M265.863 154.978C265.771 153.814 265.773 143.684 265.998 143.079C266.861 142.542 268.043 142.607 269.09 142.558C268.692 143.01 268.02 143.679 267.84 144.218C267.982 146.169 267.961 147.41 267.894 149.345C266.854 152.476 266 150.545 265.863 154.978Z" fill="#262F3E"/>
<path d="M293.611 147.13C293.816 149.316 293.736 150.512 293.528 152.696C292.32 154.297 291.602 155.413 289.747 156.279C290.021 155.289 290.24 154.772 289.918 153.78C290.006 153.579 290.334 153.207 290.479 153.002C291.38 151.718 291.454 150.124 291.599 148.604C292.189 148.283 293.055 147.563 293.611 147.13Z" fill="#071227"/>
<path d="M316.666 119.02C317.84 120.354 317.994 119.401 318.681 120.462C318.151 122.405 317.957 123.557 319.054 125.347C318.53 126.09 318.416 126.376 318.071 127.223L317.72 127.985C317.039 127.333 316.609 126.098 316.219 125.195C315.475 122.931 315.994 121.306 316.666 119.02Z" fill="#010A17"/>
<path d="M316.219 125.195C317.324 125.207 316.957 125.065 317.766 125.679C317.968 126.317 318.068 126.555 318.071 127.223L317.72 127.985C317.039 127.333 316.609 126.098 316.219 125.195Z" fill="#071227"/>
<path d="M326.37 156.403C324.168 156.952 319.521 156.845 318.84 154.22L319.114 153.824C322.1 153.424 323.772 155.868 326.653 153.576C326.801 154.894 326.786 155.145 326.37 156.403Z" fill="#000002"/>
<path d="M231.755 147.882L233.849 147.209L233.828 147.293C233.22 149.892 234.311 155.262 232.942 156.563C232.188 156.664 232.435 156.743 231.873 156.353C231.719 153.744 231.776 150.537 231.755 147.882Z" fill="#000002"/>
<path d="M53.5779 145.444C55.3399 147.561 57.0018 149.351 57.9887 151.952C57.4343 152.559 57.3286 152.681 56.5909 153.028C55.6402 151.571 53.366 147.77 52.0525 146.955C52.7964 146.629 52.8927 146.173 53.5779 145.444Z" fill="#000002"/>
<path d="M49.3255 150.918L49.8093 150.041C50.6772 149.541 50.5071 149.702 51.6618 149.97C51.6989 151.666 51.9989 155.567 50.719 156.871L50.056 156.754C49.04 154.626 49.2842 153.261 49.3255 150.918Z" fill="#000002"/>
<path d="M387.306 116.354C389.437 115.665 394.169 115.163 395.087 117.811L394.961 118.093L395.05 117.506L394.665 118.334C391.97 119.027 392.232 116.625 388.725 117.976L388.263 117.988C387.465 117.387 387.65 117.409 387.306 116.354Z" fill="#000002"/>
<path d="M440.796 121.791C441.833 121.609 442.127 121.909 442.628 122.852C442.676 124.831 442.921 128.042 441.995 129.764L441.668 129.658C440.537 127.558 440.756 124.149 440.796 121.791Z" fill="#000002"/>
<path d="M4.46326 122.925C6.60854 122.242 8.74417 123.422 10.373 121.078L10.991 121.369C11.4668 121.082 11.8404 120.858 12.2882 120.524C11.4238 125.244 9.03373 124.411 4.86801 124.476C5.82633 124.038 5.70022 124.251 6.22102 123.504C5.67484 123.023 5.25122 123.076 4.46326 122.925Z" fill="#071227"/>
<path d="M177.643 142.437C181.131 142.381 181.94 142.427 185.233 143.775C184.675 144.481 184.417 144.888 183.612 145.326C181.722 144.787 180.724 144.645 178.804 144.388L178.982 143.976C178.859 143.257 178.304 143.005 177.643 142.437Z" fill="#071227"/>
<path d="M181.055 115.741C183.507 115.665 185.116 115.334 187.228 116.574L187.378 117.016C186.261 118.219 183.357 117.85 181.799 117.798L181.181 117.447C180.746 116.642 180.894 116.794 181.055 115.741Z" fill="#000002"/>
<path d="M357.834 125.545C358.657 127.208 358.825 125.842 360.073 127.599C357.991 129.717 356.697 129.993 353.728 129.808C353.99 129.102 354.23 128.568 354.552 127.887C356.728 127.753 357.224 127.519 357.834 125.545Z" fill="#262F3E"/>
<path d="M136.905 138.317C139.13 139.233 141.571 138.919 142.251 139.573C141.857 140.513 141.323 140.607 140.322 141.263C137.546 140.145 136.685 141.115 135.433 140.447L135.314 139.913C135.736 139.015 136.092 138.848 136.905 138.317Z" fill="#000002"/>
<path d="M118.594 143.662C121.105 142.341 122.546 142.01 125.323 142.657C124.822 143.316 124.354 143.902 123.947 144.628C122.282 144.579 121.88 144.72 120.284 145.236L118.594 143.662Z" fill="#071227"/>
<path d="M78.7609 144.454C80.7149 147.09 80.5511 148.003 80.5009 151.363C80.2371 150.623 80.1904 150.536 79.6185 149.999C78.7222 150.169 78.6655 150.528 77.9586 151.334C78.3441 149.293 78.4387 148.526 77.5962 146.637C78.6208 145.97 78.545 145.523 78.7609 144.454Z" fill="#030C18"/>
<path d="M326.975 149.095C329.73 150.559 329.433 155.084 326.37 156.403C326.786 155.145 326.801 154.894 326.653 153.576C326.767 153.102 326.701 152.17 326.687 151.641C327.02 151.074 326.957 149.81 326.975 149.095Z" fill="#030C18"/>
<path d="M237.154 147.164C238.245 148.586 239.957 151.163 241.258 152.044C239.852 151.845 239.695 151.609 238.623 152.746C238.053 151.641 236.255 149.131 235.462 148.202C236.32 147.871 236.517 147.812 237.154 147.164Z" fill="#030C18"/>
<path d="M195.036 142.537C197.03 142.522 200.368 142.258 201.95 143.487L201.97 143.828C200.808 144.716 197.312 144.684 196.014 144.213C196.068 144.059 196.077 143.755 196.092 143.577L195.036 142.537Z" fill="#071227"/>
<path d="M195.363 154.451C197.606 154.633 200.827 154.121 202.052 155.251L202.055 155.756C200.575 156.977 198.579 156.688 196.726 156.608C196.508 155.364 196.305 155.206 195.363 154.451Z" fill="#262F3E"/>
<path d="M387.306 116.354C387.65 117.409 387.465 117.387 388.263 117.988L388.725 117.976L387.739 119.591C387.394 120.763 387.192 120.76 387.531 121.803C388.28 122.421 388.682 122.78 389.366 123.491C387.38 122.86 385.682 122.076 385.733 119.456C385.759 118.066 386.251 117.252 387.306 116.354Z" fill="#030C18"/>
<path d="M290.175 143.125C291.673 144.112 292.992 145.39 293.611 147.13C293.055 147.563 292.189 148.283 291.599 148.604C291.14 146.613 290.938 146.268 289.357 145.038C289.636 144.556 289.955 143.671 290.175 143.125Z" fill="#000002"/>
<path d="M200.159 115.78C201.255 116.147 202.537 116.482 203.403 117.211C203.715 118.061 203.647 117.766 203.163 118.837L202.762 119.12C200.995 118.565 200.671 117.883 198.72 117.512L198.625 117.147C198.912 116.346 199.319 116.307 200.159 115.78Z" fill="#000002"/>
<path d="M177.98 152.368C177.978 153.351 177.822 153.791 178.264 154.578L178.718 154.729C177.756 155.167 177.919 154.919 177.598 155.703C177.789 156.017 178.003 156.417 178.258 156.669C177.469 156.682 176.619 156.791 175.968 156.38C175.393 155.682 175.602 153.939 175.631 152.947C176.96 152.62 177.042 153.038 177.98 152.368Z" fill="#071227"/>
<path d="M193.506 117.416C195.78 115.795 197.396 115.505 200.16 115.78C199.319 116.307 198.912 116.346 198.625 117.147L198.72 117.512L195.969 118.269C195.305 117.78 194.324 117.617 193.506 117.416Z" fill="#030C18"/>
<path d="M192.998 152.644C193.322 153.163 193.496 153.243 194 153.578C194.688 153.249 194.501 153.265 194.873 152.349C194.954 153.22 194.844 153.956 195.363 154.451C196.305 155.206 196.508 155.364 196.726 156.608L193.044 156.557L192.998 152.644Z" fill="#071227"/>
<path d="M269.09 142.558C270.844 142.6 271.642 142.646 273.357 142.968C272.969 143.439 272.299 144.199 271.971 144.672C271.069 144.702 268.837 144.351 267.84 144.218C268.02 143.679 268.692 143.01 269.09 142.558Z" fill="#030C18"/>
<path d="M350.893 128.446C350.489 128.274 350.247 127.86 350.292 127.425C350.341 126.99 350.665 126.637 351.096 126.554C351.523 126.472 351.959 126.679 352.161 127.066C353.175 127.581 353.463 127.648 354.552 127.887C354.23 128.568 353.99 129.102 353.728 129.808C352.409 129.381 351.999 129.274 350.893 128.446Z" fill="#000002"/>
<path d="M350.893 128.446C350.489 128.274 350.247 127.86 350.292 127.425C350.341 126.99 350.665 126.637 351.096 126.554C351.523 126.472 351.959 126.679 352.161 127.066C352.358 127.438 352.301 127.894 352.016 128.204C351.731 128.514 351.281 128.611 350.893 128.446Z" fill="#000002"/>
<path d="M267.466 127.17C268.477 127.415 268.974 127.523 270.025 127.623C268.191 128.935 267.308 129.4 265.067 129.676C264.579 127.628 265.546 128.021 262.992 127.691C264.845 127.633 265.628 127.623 267.466 127.17Z" fill="#030C18"/>
<path d="M8.21483 142.606C9.67503 142.864 10.5289 143.07 11.778 143.931L10.2867 145.202C9.16656 144.803 7.81093 144.614 6.62541 144.412L6.5733 143.851C7.1157 143.43 7.66291 143.015 8.21483 142.606Z" fill="#071227"/>
<path d="M125.323 142.657C126.598 143.284 127.548 143.52 127.797 145.037C127.318 145.696 127.565 145.515 126.644 145.678C125.675 145.38 124.874 145.024 123.947 144.628C124.354 143.902 124.822 143.316 125.323 142.657Z" fill="#030C18"/>
<path d="M211.925 125.831C212.005 127.351 212.4 129.028 210.959 129.931C209.546 129.194 209.829 127.791 209.829 126.352C210.434 126.341 211.321 126.019 211.925 125.831Z" fill="#000002"/>
<path d="M256.467 138.261L257.339 138.404L257.574 138.781C257.277 139.682 255.715 140.952 254.947 141.665C254.059 141.437 254.299 141.632 253.84 140.948C254.057 139.728 255.493 138.877 256.467 138.261Z" fill="#000002"/>
<path d="M183.863 111.152C184.459 111.169 184.699 111.297 185.245 111.519C185.266 112.152 184.041 113.46 183.473 114.327C182.799 114.425 182.699 114.407 182.031 114.265L181.797 113.796C182.117 112.78 183.093 111.939 183.863 111.152Z" fill="#000002"/>
<path d="M262.515 115.815L265.114 115.795C265.259 116.258 265.575 117.373 265.746 117.765C265.1 117.744 263.828 117.523 263.141 117.425L262.515 115.815Z" fill="#071227"/>
<path d="M52.7932 119.745L53.8759 121.529L52.8094 123.429L51.1942 121.296C51.7894 120.882 52.2974 120.281 52.7932 119.745Z" fill="#030C18"/>
</svg>
