<svg width="422" height="382" viewBox="0 0 422 382" fill="none" xmlns="http://www.w3.org/2000/svg">
<path d="M203.53 95.7098C204.329 97.7465 210.648 109.792 209.997 111.023C209.487 111.275 208.794 111.469 208.233 111.469C188.703 111.47 156.77 112.083 154.99 84.4024C153.6 62.7828 161.361 41.8484 172.066 23.836C172.363 23.3357 172.859 23.1263 173.379 23.0982C174.391 23.8487 174.315 25.4365 174.74 26.5709C177.193 33.1097 178.89 39.8979 181.438 46.3985C182.793 49.8558 184.18 53.2983 185.518 56.7619C185.915 57.7929 186.467 58.9129 186.707 59.9647L186.747 60.1451C186.911 63.7116 194.776 77.8274 196.644 81.8999C197.724 84.2543 202.204 94.5134 203.53 95.7098Z" fill="#208149"/>
<path d="M222.645 134.603L222.64 134.399C222.491 129.923 215.041 119.941 216.802 117.223C217.616 116.698 219.024 116.649 219.972 116.736C225.324 117.225 230.896 116.87 236.218 117.445C239.228 117.746 242.216 118.255 245.163 118.97C271.221 125.493 271.943 142.275 267.633 166.605C267.114 169.532 265.795 172.228 265.016 174.975C262.315 184.491 258.096 193.259 252.761 201.438C252.204 202.293 250.631 204.983 249.935 205.512C247.349 205.73 246.784 196.338 246.175 194.177C244.181 187.11 242.411 178.666 239.519 171.968C240.099 168.716 226.562 139.012 223.985 134.498C223.32 134.21 223.498 134.308 222.645 134.603Z" fill="#208349"/>
<path d="M186.747 60.1451C187.081 59.373 187.087 58.033 187.496 57.5475C191.204 53.1493 196.408 50.5121 200.795 46.9508C201.295 46.5453 201.859 46.1925 202.382 45.8235C212.647 39.498 223.607 33.8545 234.999 30.154C237.423 29.3648 239.783 28.126 242.232 27.3858C248.118 25.6516 254.167 24.4207 260.251 23.7811C261.67 23.6318 264.241 23.1998 265.523 23.8594C266.087 25.9079 256.437 35.2904 254.56 37.3554L230.041 64.3686C228.516 66.0782 227.163 68.145 225.652 69.9017L203.53 95.7098C202.204 94.5134 197.724 84.2544 196.644 81.8999C194.776 77.8275 186.911 63.7117 186.747 60.1451Z" fill="#012E63"/>
<path d="M222.645 134.603C223.498 134.308 223.32 134.21 223.986 134.499C226.562 139.012 240.099 168.716 239.519 171.968C238.672 172.596 237.615 173.719 236.805 174.458C218.735 190.937 193.362 201.85 169.308 201.973C168.575 201.977 166.639 202.046 166.13 201.738L166.041 201.358C166.267 199.961 167.972 197.948 168.901 196.923C173.767 191.553 179.235 187.071 183.953 181.507C185.692 179.456 187.228 177.23 188.947 175.285C192.571 171.185 196.563 167.432 200.009 163.12C204.686 156.857 209.482 150.942 214.668 145.129C216.249 143.356 217.659 140.897 219.2 139.013C220.303 137.663 221.719 136.167 222.597 134.686L222.645 134.603Z" fill="#012E63"/>
<path d="M260.334 67.8825C262.698 67.7668 266.599 69.5969 268.85 70.5744C275.168 73.2263 281.055 77.8453 286.483 82.024C289.575 84.404 305.466 103.811 304.141 106.981C302.766 107.457 289.835 104.729 287.167 104.212C281.535 103.12 277.647 103.359 272.004 103.333C267.339 103.266 262.673 103.293 258.009 103.412C257.093 103.433 255.819 103.721 254.862 103.851C249.507 104.584 244.088 105.456 238.76 106.362C232.209 107.476 225.69 109.075 219.173 110.383C218.35 110.548 217.414 110.644 217.061 109.751C217.463 108.206 219.661 106.126 220.671 104.799C224.105 100.289 227.849 96.0955 231.96 92.2596C235.989 88.5239 239.174 83.8711 243.351 80.3186C247.873 76.473 252.427 72.1791 257.403 68.9947C258.266 68.4423 259.356 68.1396 260.334 67.8825Z" fill="#07509B"/>
<path d="M207.717 117.137L208.223 117.357L208.398 117.826C208.267 119.773 198.573 133.4 196.735 135.267C195.241 136.784 191.656 141.916 190.172 143.56C185.937 148.248 181.455 153.527 176.768 157.66C175.269 158.396 172.266 161.648 171.047 162.169C163.812 165.265 145.27 149.866 141.376 146.447C140.384 145.628 139.4 144.799 138.424 143.96C136.611 142.377 126.215 130.493 126.057 128.654C127.063 127.531 132.252 128.666 133.813 128.759C136.538 128.922 139.25 129.023 141.978 129.103C154.916 129.486 167.843 128.032 180.411 124.782C182.99 124.144 185.509 123.174 188.068 122.516C194.573 120.844 201.283 119.071 207.717 117.137Z" fill="#07509D"/>
<path d="M198.443 0.472443C201.843 0.764612 204.042 1.29412 206.68 3.71415C209.444 6.20112 211.122 9.76405 211.326 13.5794C211.527 16.8606 210.578 20.5746 208.414 22.9579C205.054 26.6572 203.006 27.5387 198.258 27.8206C187.328 27.945 181.718 15.3919 187.482 6.15337C190.014 2.09575 194.241 1.22548 198.443 0.472443Z" fill="#28914F"/>
<path d="M295.681 117.584C300.223 117.338 304.539 119.678 306.978 123.709C309.415 127.739 309.598 132.836 307.453 137.046C305.309 141.257 301.171 143.93 296.624 144.04C289.731 144.209 283.987 138.534 283.729 131.301C283.471 124.067 288.795 117.957 295.681 117.584Z" fill="#28914F"/>
<path d="M226.159 200.834C243.619 201.829 242.275 224.673 227.9 226.176C210.933 227.093 210.42 202.163 226.159 200.834Z" fill="#0661B0"/>
<path d="M113 103.505C113.782 102.549 114.377 100.491 114.839 99.238C117.604 91.7373 128.061 89.8861 133.768 94.6342C139.219 99.1689 140.274 107.794 135.862 113.533C133.842 116.174 130.89 117.842 127.678 118.158C123.882 118.564 121.159 117.688 118.043 115.362C114.685 112.854 114.835 109.028 113 106.61V103.505Z" fill="#012E63"/>
<path d="M274.422 322.422L91.0666 322.435L28.6146 322.419C20.1172 322.407 11.5941 322.474 3.09485 322.506C2.05259 322.51 0.971984 322.338 0.0216346 321.891L0 321.482C1.76361 320.164 23.3518 320.945 27.1169 320.947L91.1258 320.912L274.672 320.795C273.537 320.913 272.401 321.02 271.266 321.115C272.146 321.469 275.802 321.341 276.987 321.314C279.358 321.259 280.058 321.718 282.077 321.967C279.389 322.009 275.601 321.774 273.132 321.921L272.988 322.22L272.61 322.05C273.21 322.193 273.815 322.317 274.422 322.422Z" fill="#198547"/>
<path d="M274.672 320.795L367.467 320.687L404.892 320.71C407.433 320.713 420.777 320.301 421.753 321.142L422 322.001C421.47 322.773 420.489 322.532 419.6 322.51C416.812 322.441 414.021 322.462 411.233 322.459L382.358 322.447L274.422 322.422C273.815 322.317 273.21 322.193 272.61 322.05L272.988 322.22L273.132 321.921C275.601 321.774 279.389 322.009 282.077 321.967C280.058 321.718 279.358 321.259 276.987 321.314C275.802 321.341 272.146 321.469 271.266 321.115C272.401 321.02 273.537 320.913 274.672 320.795Z" fill="#02377F"/>
<path d="M76.6266 254.788C87.2772 253.566 96.8961 261.209 98.0807 271.837C99.2653 282.465 91.5647 292.029 80.9048 293.17C70.3032 294.304 60.7779 286.674 59.5997 276.105C58.4215 265.535 66.0341 256.004 76.6266 254.788ZM80.4207 284.346C83.2261 283.748 85.4229 283.153 86.9927 280.514C91.5102 272.919 87.2226 262.666 77.6271 263.508C74.8139 264.274 71.6515 265.875 70.4363 268.573C66.5947 277.099 70.9886 284.983 80.4207 284.346Z" fill="#02377F"/>
<path d="M312.888 258.159C321.663 257.217 328.755 262.021 330.036 270.986C330.408 273.702 330.149 276.447 330.017 279.134C329.389 291.767 312.32 297.719 304.439 287.5C304.497 289.587 304.526 291.675 304.53 293.763C304.499 296.279 304.344 301.793 304.695 304.117C302.941 304.215 300.567 304.134 298.767 304.123C298.934 301.757 298.843 298.759 298.847 296.347C298.891 292.465 298.909 288.583 298.901 284.701C298.899 276.35 299.091 266.914 298.783 258.652C300.771 258.538 302.577 258.575 304.567 258.62C304.443 260.363 304.428 261.486 304.49 263.234C307.187 260.288 309.102 259.245 312.888 258.159ZM316.34 287.282C319.465 286.363 321.256 285.155 323.008 282.23C324.655 279.478 324.738 273.419 323.835 270.39C323.056 267.81 321.285 265.641 318.909 264.357C316.946 263.311 314.888 263.049 312.696 263.3C310.049 264.172 306.848 265.724 305.745 268.485C302.424 276.8 305.079 288.573 316.34 287.282Z" fill="#262F3E"/>
<path d="M153.481 255.105L153.546 255.1C161.9 254.543 171.395 257.69 171.57 267.418C171.719 275.646 171.144 284.064 171.651 292.298C170.189 292.324 163.73 292.547 162.869 291.935C162.524 290.989 162.595 289.499 162.586 288.453C161.862 289.052 161.128 289.638 160.383 290.212C157.165 292.656 152.22 293.324 148.268 292.774C144.304 292.221 142.072 290.772 139.723 287.69C138.212 284.788 137.582 282.101 138.441 278.874C140.99 269.301 154.598 269.165 162.192 271.16C162.178 269.476 162.149 268.581 161.9 266.922C160.981 265.68 160.276 264.624 158.838 263.946C153.99 261.658 148.479 263.806 144.41 266.444C143.085 264.281 141.638 262.194 140.076 260.195C144.59 256.92 147.93 255.53 153.481 255.105ZM156.544 285.828C160.987 284.034 162.31 282.324 162.348 277.579C158.828 276.604 156.455 276.203 152.737 276.528C142.785 279.091 147.738 287.861 156.544 285.828Z" fill="#02377F"/>
<path d="M350.649 257.989C354.116 257.521 359.187 259.103 361.991 261.263C369.518 267.065 370.107 279.508 364.47 286.765C361.199 290.975 357.67 292.068 352.533 292.693C329.687 293.279 328.395 259.821 350.649 257.989ZM352.19 287.519C367.958 285.068 363.968 261.769 350.783 263.13C338.266 264.547 337.202 283.102 348.434 287.075C349.345 287.397 351.091 287.643 352.062 287.536C352.106 287.531 352.147 287.525 352.19 287.519Z" fill="#262F3E"/>
<path d="M200.249 245.562C202.406 245.476 204.565 245.48 206.721 245.573C207.208 247.502 209.293 252.133 210.107 254.199L218.78 275.737L223.11 286.706C223.683 288.144 224.737 291.025 225.511 292.221C223.214 292.245 220.794 292.351 218.515 292.16C217.075 288.265 215.556 284.399 213.959 280.566C212.31 280.415 209.035 280.545 207.268 280.566L192.533 280.544C191.22 284.316 189.276 288.188 187.936 292.283C185.79 292.163 183.609 292.194 181.461 292.236C182.672 288.613 184.269 284.995 185.709 281.46L192.273 265.311C193.618 262.023 198.774 247.127 200.249 245.562ZM194.282 275.194C197.353 275.445 200.849 275.391 203.962 275.375L212.236 275.285C210.827 272.404 204.119 252.776 203.233 252.249C200.201 259.51 197.043 267.784 194.282 275.194Z" fill="#262F3E"/>
<path d="M38.7928 255.103C39.2112 255.08 39.6303 255.068 40.0493 255.066C43.6291 255.063 47.4883 256.004 50.0447 258.613C54.5378 263.199 53.6613 270.931 53.6454 276.777L53.6262 292.337C50.386 292.274 47.1447 292.29 43.9052 292.384C43.5707 284.375 43.9883 276.044 43.7093 267.954C40.5428 262.802 35.7434 261.877 30.9662 265.8L30.8803 265.883C29.8467 266.888 29.2981 267.58 29.0223 269.014C28.2115 273.233 28.5047 278.187 28.5638 282.451C28.6131 285.712 28.6107 288.974 28.5565 292.235C25.5617 292.365 21.9819 292.293 18.9419 292.308C18.3723 280.6 19.2795 267.597 18.7755 255.819L28.2571 255.807L28.2923 260.915C31.5524 257.17 33.7015 255.571 38.7928 255.103Z" fill="#02377F"/>
<path d="M276.999 257.989C282.981 257.121 290.553 260.544 291.44 266.982C291.911 270.402 291.746 273.552 291.731 276.983C291.702 282.079 291.721 287.176 291.783 292.272C289.94 292.237 288.152 292.202 286.309 292.242C286.342 290.468 286.313 289.586 286.096 287.828C284.636 289.357 282.991 290.765 280.995 291.515C275.042 293.75 267.114 293.078 264.355 286.601C263.514 284.796 263.231 282.783 263.543 280.817C265.264 269.992 278.212 271.242 286.148 272.61C285.993 270.573 286.055 268.674 285.076 266.841C284.21 265.192 282.712 263.963 280.923 263.434C276.414 262.11 271.969 264.256 268.124 266.33C267.595 264.957 266.351 263.206 265.508 261.93C269.537 259.833 272.424 258.361 276.999 257.989ZM269.641 283.903C271.593 286.794 275.027 288.617 278.544 287.603C281.755 286.612 284.311 285.049 286.049 282.02C286.055 280.616 286.037 279.092 286.082 277.698C283.348 276.662 280.195 275.869 277.249 276.325C272.033 276.807 269.256 278.354 269.641 283.903Z" fill="#262F3E"/>
<path d="M128.135 255.728C131.085 255.737 134.034 255.777 136.983 255.849C134.421 262.06 131.759 268.798 129.377 275.056C127.692 279.48 124.155 287.887 123.15 292.244C121.256 292.419 114.722 292.375 112.833 292.282C111.761 290.354 109.935 284.724 109.045 282.34C107.437 278.034 105.741 273.779 104.1 269.492C103.332 267.423 99.369 257.085 98.4437 255.883C101.844 255.752 105.247 255.726 108.649 255.802C109.338 256.959 110.264 260.286 110.816 261.822C113.14 268.286 115.924 275.266 117.76 281.859C119.282 279.793 120.532 274.25 121.535 271.56C123.407 266.541 125.262 261.436 126.704 256.289C126.794 255.964 127.832 255.801 128.135 255.728Z" fill="#02377F"/>
<path d="M0.651304 242.079C3.70359 241.945 7.4766 242.083 10.7095 242C11.0899 252.38 10.5683 263.144 10.786 273.556C10.914 279.674 10.8702 286.17 10.6931 292.292L0.816855 292.28C0.431143 289.818 0.610096 278.961 0.610702 275.802L0.651304 242.079Z" fill="#02377F"/>
<path d="M245.461 257.994C248.513 257.77 252.429 258.947 254.621 261.079C259.057 265.395 258.295 271.979 258.278 277.642C258.233 282.503 258.245 287.364 258.311 292.225C256.429 292.278 254.567 292.109 252.673 292.253C252.187 285.154 253.121 277.074 252.354 270.057C251.608 263.228 244.618 261.51 238.853 265.159C234.246 268.265 235.105 274.387 235.132 279.285L235.237 292.332C233.258 292.334 231.438 292.322 229.462 292.222C229.156 285.467 229.462 277.942 229.39 271.123C229.346 266.98 229.59 262.901 229.297 258.722C231.08 258.565 233.305 258.616 235.13 258.614C235.126 260.442 235.161 261.832 235.308 263.652C237.723 259.913 241.106 258.27 245.461 257.994Z" fill="#262F3E"/>
<path d="M409.432 257.99C412.622 257.742 417.023 259.108 419.722 260.853C421.575 262.051 418.639 264.918 417.654 266.039C415.337 264.085 413.498 263.33 410.585 263.043C408.145 262.803 404.322 264.192 404.618 267.119C405.163 272.528 416.321 272.707 419.466 276.877C421.009 278.925 421.656 279.912 421.58 282.534C421.662 291.058 415.232 292.679 407.973 292.544C403.553 292.128 401.115 290.945 397.619 288.363C398.491 287.006 399.435 285.44 400.493 284.249C404.878 287.006 411.025 290.082 415.308 285.412C415.891 284.778 416.269 283.503 416.069 282.666C414.761 277.216 405.178 277.518 401.537 273.715C399.882 272.246 399.03 270.669 398.902 268.388C398.508 261.316 403.049 258.43 409.432 257.99Z" fill="#262F3E"/>
<path d="M374.568 245.385C376.279 245.336 378.207 245.387 379.932 245.394C379.486 257.494 380.021 269.798 379.729 281.917C379.696 283.297 379.953 291.747 379.624 292.249L378.769 292.296L373.973 292.15C373.791 290.101 373.83 245.814 373.896 245.61L374.568 245.385Z" fill="#262F3E"/>
<path d="M392.193 258.621L392.974 258.681C393.253 259.17 393.059 264.75 393.055 265.745L393.036 292.285L388.273 292.2C387.794 292.25 387.689 292.242 387.211 292.173C386.959 291.829 387.017 261.523 387.003 258.746C388.35 258.596 390.761 258.635 392.193 258.621Z" fill="#262F3E"/>
<path d="M280.573 245.566C282.47 245.402 285.375 245.544 287.33 245.618C285.134 248.206 282.59 250.803 280.528 253.392L280.489 253.431C279.505 254.383 276.86 254.242 275.346 254.212L275.257 253.599C275.563 252.858 280.034 246.141 280.573 245.566Z" fill="#262F3E"/>
<path d="M388.827 245.566C390.79 245.266 392.722 245.557 393.735 247.484C394.146 248.251 394.231 249.152 393.968 249.982C393.538 251.337 392.749 251.832 391.561 252.446C387.005 253.544 384.294 248.367 388.827 245.566Z" fill="#262F3E"/>
<path d="M241.567 352.975C239.042 350.564 238.959 346.567 241.38 344.054C243.801 341.54 247.808 341.463 250.326 343.882C252.841 346.302 252.911 350.299 250.482 352.804C248.063 355.299 244.079 355.375 241.567 352.975ZM243.403 352.059C244.828 352.71 246.162 352.877 247.704 352.398C249.512 350.923 251.022 349.086 249.982 346.625C249.556 345.627 248.752 344.837 247.744 344.427C245.889 343.678 244.847 344.096 243.13 344.835C240.969 347.899 241.286 349.092 243.403 352.059Z" fill="#000002"/>
<path d="M243.404 352.059C244.828 352.71 246.162 352.877 247.704 352.398C248.61 352.501 249.611 352.574 250.482 352.804C248.063 355.299 244.079 355.375 241.567 352.975C242.165 352.754 242.833 352.366 243.404 352.059Z" fill="#071227"/>
<path d="M58.8302 342.948C61.3219 341.491 64.4882 341.91 66.5125 343.965C68.8213 346.308 68.9304 350.03 66.7633 352.504C64.5961 354.979 60.884 355.371 58.2455 353.404C55.607 351.437 54.9329 347.775 56.6982 345.001C57.2352 344.157 57.9662 343.454 58.8302 342.948ZM59.3174 344.914C58.4581 345.581 57.8796 346.545 57.6952 347.616C57.3486 349.629 58.4502 351.612 60.3455 352.387C62.2409 353.161 64.4209 352.519 65.5899 350.841C66.7588 349.164 66.6031 346.902 65.215 345.4C64.3956 344.513 63.245 344.004 62.0361 343.995C61.0521 343.987 60.094 344.311 59.3174 344.914Z" fill="#000002"/>
<path d="M58.8303 342.948C61.322 341.491 64.4883 341.91 66.5126 343.965C66.0791 344.745 65.9237 344.867 65.2151 345.4C64.3957 344.513 63.2451 344.004 62.0362 343.995C61.0522 343.987 60.0941 344.311 59.3175 344.914C59.5086 344.115 59.2061 343.854 58.8303 342.948Z" fill="#262F3E"/>
<path d="M58.8302 342.948C59.206 343.854 59.5085 344.115 59.3174 344.914C58.4581 345.581 57.8796 346.545 57.6952 347.616C57.081 346.699 57.3924 346.379 57.2718 345.24L56.6982 345.001C57.2352 344.157 57.9662 343.454 58.8302 342.948Z" fill="#000002"/>
<path d="M291.191 343.286C293.407 341.757 296.355 341.821 298.501 343.444C300.655 345.072 301.512 347.899 300.623 350.444C299.734 352.99 297.303 354.674 294.6 354.615C291.899 354.557 289.542 352.769 288.765 350.187C287.99 347.606 288.968 344.819 291.191 343.286ZM299.35 348.592C298.845 347.083 298.246 346.011 297.313 344.737C292.741 342.738 292.958 345.526 291.357 345.612C290.262 347.878 290.577 351.048 293.015 352.281C293.919 352.731 294.966 352.801 295.922 352.473C297.964 351.787 298.479 350.378 299.35 348.592Z" fill="#000002"/>
<path d="M291.191 343.286C293.406 341.757 296.355 341.821 298.501 343.444C298.229 343.745 297.58 344.503 297.313 344.737C292.741 342.738 292.958 345.526 291.357 345.612C291.411 344.804 292.297 344.084 292.884 343.481L292.669 343.265L292.76 343.414L292.542 343.494L292.087 343.114C291.8 343.203 291.49 343.239 291.191 343.286Z" fill="#030C18"/>
<path d="M134.136 365.552C137.533 364.972 140.755 367.257 141.323 370.648C141.89 374.038 139.587 377.243 136.185 377.795C132.803 378.344 129.612 376.063 129.048 372.692C128.484 369.321 130.758 366.129 134.136 365.552ZM135.695 376.118C137.202 375.543 137.905 374.902 138.973 373.689C139.462 369.751 139.289 368.041 134.849 367.19C133.5 367.496 132.385 367.859 131.593 369.09C130.933 370.112 130.712 371.356 130.98 372.541C131.529 375.04 133.275 376.027 135.695 376.118Z" fill="#000002"/>
<path d="M207.55 342.23C210.882 341.687 214.039 343.893 214.665 347.202C215.291 350.511 213.156 353.713 209.855 354.418C207.458 354.929 204.983 353.989 203.535 352.017C202.087 350.044 201.936 347.407 203.149 345.282C204.078 343.654 205.696 342.532 207.55 342.23ZM204.249 348.912C205.384 351.59 206.003 352.662 209.036 352.937C211.689 351.774 213.763 349.374 212.388 346.375C211.925 345.389 211.085 344.63 210.056 344.268C209.621 344.115 208.993 344.022 208.528 343.959C205.193 344.795 204.918 345.706 204.249 348.912Z" fill="#020712"/>
<path d="M408.156 365.444C408.359 365.431 408.564 365.423 408.77 365.419C410.802 365.387 411.683 366.108 413.077 367.452C414.572 371.492 414.575 376.991 409.391 377.946C403.44 378.581 401.568 367.396 408.156 365.444ZM409.715 376.147C413.389 373.923 413.03 366.973 408.388 367.13C404.348 369.503 404.952 375.883 409.715 376.147Z" fill="#000002"/>
<path d="M319.42 365.505C322.148 365.226 322.807 365.369 324.76 367.294C326.268 368.864 325.609 373.178 325.272 375.192C318.62 383.641 311.506 370.413 319.42 365.505ZM321.042 367.108C317.591 368.492 317.405 370.835 318.368 374.342C318.734 375.673 320.606 376.575 321.854 375.898C324.775 374.39 324.163 370.723 323.072 368.344C322.497 367.752 321.784 367.469 321.042 367.108Z" fill="#000002"/>
<path d="M319.42 365.505C322.148 365.226 322.807 365.369 324.76 367.294L324.275 368.055C323.861 368.143 323.478 368.219 323.072 368.344C322.497 367.752 321.784 367.469 321.042 367.108C320.809 367.055 319.829 365.894 319.42 365.505Z" fill="#071227"/>
<path d="M379.194 368.3C381.077 364.902 384.023 364.567 386.997 366.846C388.626 368.812 388.519 370.531 388.281 373.004C388.207 373.726 388.108 374.446 387.982 375.16C382.375 381.964 377.406 375.213 379.194 368.3ZM385.729 368.099C383.154 366.609 382.097 367.161 380.602 369.556C380.56 370.993 380.402 372.195 380.872 373.647C381.87 376.711 384.712 377.312 386.078 374.035C386.922 372.007 386.583 370.139 385.729 368.099Z" fill="#000002"/>
<path d="M379.194 368.3C381.078 364.902 384.024 364.567 386.997 366.846C386.759 367.071 385.865 367.891 385.729 368.099C383.155 366.609 382.097 367.161 380.602 369.556L379.194 368.3Z" fill="#071227"/>
<path d="M115.762 342.498C117.923 342.361 123.273 341.801 124.433 344.265C125.615 346.774 124.599 348.612 122.234 349.83L122.86 350.727C123.413 351.525 124.851 353.363 124.685 354.27C124.088 354.564 123.869 354.48 123.2 354.352C122.01 353.246 120.051 348.787 118.102 349.661C117.095 350.835 118.035 352.717 117.582 354.256C116.829 354.594 117.14 354.543 116.318 354.463C115.84 353.77 115.807 344.151 115.762 342.498ZM117.742 348.31C119.555 348.351 120.574 348.44 122.329 347.832C124.528 343.883 120.409 343.81 117.751 344.018C117.733 345.429 117.691 346.905 117.742 348.31Z" fill="#000002"/>
<path d="M117.162 371.258C117.794 369.694 118.884 365.948 120.111 365.361C121.824 365.436 122.356 367.136 122.91 368.54C124.045 371.415 125.291 374.342 126.302 377.256L126.222 377.701C123.6 378.318 124.481 375.295 122.015 374.86C120.744 374.809 119.102 374.849 117.804 374.847C117.533 375.9 117.424 376.963 116.606 377.608C115.731 377.824 116.014 377.874 115.254 377.597C114.632 376.366 116.594 372.622 117.162 371.258ZM118.561 372.304C118.45 372.722 118.302 372.959 118.429 373.299C119.227 373.125 121.967 373.23 122.925 373.244C122.121 371.644 121.35 369.605 120.685 367.911C119.949 369.362 119.241 370.826 118.561 372.304Z" fill="#000002"/>
<path d="M117.162 371.258C117.864 372.095 117.639 372.085 118.561 372.304C118.45 372.722 118.302 372.959 118.429 373.299C119.187 373.955 120.982 374.449 122.015 374.86C120.744 374.809 119.102 374.849 117.804 374.847C117.533 375.9 117.424 376.963 116.606 377.608C115.731 377.824 116.014 377.874 115.254 377.597C114.632 376.366 116.594 372.622 117.162 371.258Z" fill="#071227"/>
<path d="M28.1006 353.881C28.0261 354.029 27.7746 354.221 27.6352 354.343C26.8203 354.349 26.5806 354.505 26.0647 354.059C26.3167 352.861 29.7652 343.555 30.8644 342.568C31.338 342.142 31.6088 342.182 32.1495 342.252C33.0855 342.929 35.2234 348.655 35.7178 350.027C36.3231 351.188 37.7179 353.249 36.9167 354.5C36.186 354.764 36.4414 354.706 35.5671 354.455C35.091 353.977 34.7922 353.636 34.9771 352.86C34.3857 351.817 34.6976 352.04 33.672 351.576C32.1123 351.577 30.453 351.546 28.9037 351.643C28.6732 352.292 28.3578 353.275 28.1006 353.881ZM29.6459 349.524L29.8558 349.821C31.0736 350.009 32.4357 349.914 33.6767 349.869C32.9649 348.244 32.3158 346.206 31.5714 344.437C30.9681 346.108 30.3601 347.906 29.6459 349.524Z" fill="#000002"/>
<path d="M28.1006 353.881C28.1177 352.634 28.2209 350.068 29.6459 349.524L29.8558 349.821C31.0735 350.009 32.4356 349.913 33.6766 349.869L33.7076 350.205C32.9275 350.469 32.5681 350.413 31.7642 350.368C32.7616 350.693 32.9991 350.762 33.6719 351.576C32.1123 351.577 30.4529 351.546 28.9037 351.643C28.6732 352.292 28.3578 353.275 28.1006 353.881Z" fill="#000002"/>
<path d="M35.7178 350.027C36.3231 351.188 37.7179 353.249 36.9168 354.5C36.186 354.764 36.4415 354.706 35.5671 354.455C35.091 353.977 34.7922 353.636 34.9771 352.86L35.3029 352.744C35.6787 351.681 35.6656 351.155 35.7178 350.027Z" fill="#030C18"/>
<path d="M220.922 365.14C221.784 365.343 222.393 365.515 222.673 366.448C223.352 368.715 227.374 376.076 226.658 377.979C225.682 377.658 224.659 375.872 224.018 375.055C223.759 374.725 222.219 374.787 221.737 374.782C220.694 374.768 219.435 374.913 218.378 375.008C217.938 376.161 217.904 376.94 217.106 377.682C216.239 377.719 216.308 377.851 215.661 377.454C215.614 376.055 219.529 367.974 220.065 366.071C220.122 365.87 220.728 365.301 220.922 365.14ZM219.092 373.112L221.652 373.237C222.367 373.17 222.914 373.264 223.318 372.836C222.765 370.871 222.057 369.556 221.237 367.704C220.551 369.517 219.835 371.32 219.092 373.112Z" fill="#000002"/>
<path d="M90.3251 366.385C91.0735 365.51 90.7284 365.7 91.7657 365.34C93.3001 365.794 93.5491 366.986 93.9403 368.409C94.5119 369.491 97.6339 376.835 97.3811 377.759C96.6273 377.884 96.4322 377.794 95.6927 377.56C95.0355 377.065 94.9446 375.965 94.7651 375.111C92.6027 374.889 91.4622 374.769 89.3079 374.903C88.948 375.827 88.5972 377.028 87.8471 377.627C87.1626 377.803 87.3963 377.851 86.8496 377.545C86.0151 375.118 90.2751 369.267 90.3251 366.385ZM89.8753 373.038C91.6179 373.181 92.2932 373.196 94.0536 373.076C93.3758 371.383 92.6584 369.706 91.9016 368.047L91.705 368.074L89.8753 373.038Z" fill="#000002"/>
<path d="M90.3251 366.385C91.0734 365.51 90.7283 365.7 91.7656 365.34C93.3 365.794 93.549 366.986 93.9402 368.409C93.4305 368.388 92.8878 368.033 92.4266 367.782L91.9015 368.047L91.705 368.074C91.424 367.121 91.114 366.955 90.3251 366.385Z" fill="#071227"/>
<path d="M131.441 346.344C131.984 344.671 132.283 342.303 134.41 342.549C136.525 343.898 138.38 351.176 139.877 354.039C139.487 354.445 139.391 354.362 138.757 354.533C136.811 353.805 137.839 351.687 135.9 351.528C134.381 351.53 132.803 351.582 131.279 351.612C130.949 352.946 130.957 353.884 129.657 354.489C128.851 354.305 129.098 354.463 128.548 353.902C128.676 353.18 131.005 347.524 131.441 346.344ZM132.138 349.993C133.281 349.892 134.87 349.898 136.049 349.867C135.411 348.216 135.226 346.577 134.247 345.061L134.038 345.193C133.024 346.894 132.465 347.791 132.027 349.766L132.138 349.993Z" fill="#000002"/>
<path d="M131.441 346.344C132.959 346.225 132.185 344.988 134.038 345.193C133.024 346.894 132.465 347.791 132.027 349.766L132.138 349.993C133.618 351.632 134.949 350.006 135.9 351.528C134.381 351.53 132.803 351.582 131.279 351.612C130.949 352.946 130.957 353.884 129.657 354.489C128.851 354.305 129.098 354.463 128.548 353.902C128.676 353.18 131.005 347.524 131.441 346.344Z" fill="#030C18"/>
<path d="M191.228 365.244C191.439 365.324 192.097 365.601 192.196 365.718C193.359 367.091 197.156 376.085 197.381 377.494L196.981 378.025L196.462 378.059C194.361 376.663 195.719 375.232 192.239 374.821C191.208 374.879 190.443 374.881 189.41 374.848C188.926 375.901 188.467 377.244 187.461 377.732C186.518 377.66 186.69 377.82 186.196 377.282C186.422 375.827 190.356 366.617 191.228 365.244ZM192.563 373.121L193.303 373.109C193.613 371.996 192.473 369.01 191.572 368.325C191.135 369.323 190.043 371.481 190.089 372.443C190.602 373.555 191.393 373.207 192.563 373.121Z" fill="#000002"/>
<path d="M391.136 348.282C391.878 346.553 392.859 343.019 394.092 342.29C395.686 342.715 396.238 344.397 396.812 345.825C397.936 348.62 399.065 351.315 400.33 354.045C399.838 354.633 400.088 354.48 399.32 354.641C397.54 353.893 397.639 351.565 396.32 351.546C394.876 351.567 393.099 351.543 391.685 351.648C391.45 352.301 390.824 353.931 390.732 354.53C390.004 354.527 389.537 354.578 388.883 354.236C388.717 353.533 389.301 352.737 389.675 351.829C389.945 350.435 390.487 349.525 391.136 348.282ZM392.262 349.877L394.344 349.919C395.062 349.933 395.28 349.946 395.971 349.774C396.567 348.773 394.928 345.736 394.535 344.519C393.636 346.368 393.359 348.101 392.262 349.877Z" fill="#000002"/>
<path d="M391.136 348.282L392.262 349.877L394.344 349.919C393.559 349.965 392.921 349.937 392.237 350.341L392.403 350.633C393.869 350.997 395.235 350.775 396.32 351.546C394.876 351.567 393.099 351.543 391.685 351.648C391.45 352.301 390.824 353.931 390.732 354.53C390.004 354.527 389.537 354.578 388.883 354.236C388.717 353.533 389.301 352.737 389.675 351.829C389.945 350.435 390.487 349.525 391.136 348.282Z" fill="#030C18"/>
<path d="M389.675 351.829C390.42 352.383 390.532 353.084 390.663 353.981C390.69 354.164 390.712 354.347 390.732 354.53C390.004 354.527 389.537 354.578 388.883 354.236C388.717 353.533 389.301 352.737 389.675 351.829Z" fill="#000002"/>
<path d="M263.026 342.448C264.843 342.416 269.839 342.117 271.138 343.298L270.827 343.605C269.059 344.152 267.111 343.978 265.251 343.927L265.266 347.563C266.658 347.539 269.524 347.245 270.502 348.35L270.284 348.724C268.71 349.445 267.494 349.285 265.742 349.331L265.412 349.412C265.133 350.025 265.303 351.784 265.338 352.552C266.962 352.532 269.339 352.345 270.772 352.93C271.299 353.508 271.203 353.241 271.208 353.979C270.339 354.808 264.534 354.523 262.964 354.553C263.11 350.607 263.038 346.417 263.026 342.448Z" fill="#262F3E"/>
<path d="M79.2646 342.461C81.0345 342.421 86.4746 342.093 87.595 343.303C86.6754 344.188 82.5646 343.959 81.2748 343.93L81.3149 347.562C82.6468 347.53 85.5277 347.322 86.5719 347.93L86.6182 348.371C85.5643 349.995 82.9592 348.588 81.2993 349.423L81.335 352.677C82.9543 352.611 86.9895 352.061 87.5317 353.865L87.2767 354.337C85.9111 354.654 81.0322 354.522 79.3164 354.515C79.354 350.497 79.3367 346.479 79.2646 342.461Z" fill="#262F3E"/>
<path d="M16.8296 365.741C18.4201 365.563 23.9171 365.126 24.9143 366.417L24.6328 366.759C22.3859 367.437 21.031 367.255 18.6813 367.244L18.7013 370.541C20.1107 370.53 23.0113 370.33 24.0649 371.021L24.0232 371.631C22.6352 373.291 20.4022 371.318 18.6605 372.562L18.5811 375.991C20.2291 375.948 22.9746 375.688 24.4055 376.217C24.9853 376.859 24.8717 376.555 24.8447 377.436C23.9432 378.07 18.247 377.742 16.7799 377.705C17.0978 374.592 16.6085 369.26 16.8296 365.741Z" fill="#262F3E"/>
<path d="M94.6194 342.236C95.8844 342.183 97.8277 342.455 98.7766 343.358C99.0509 344.198 99.0534 343.869 98.7959 344.689C97.4423 345.042 94.6057 342.803 93.1677 344.938C93.5207 347.265 98.5937 348.033 99.5349 350.576C100.408 352.933 97.4995 354.058 95.7571 354.585C94.0403 354.569 91.082 354.35 91.1112 352.185L91.5028 351.839C92.8889 351.668 97.0811 354.399 97.6809 350.969C96.8511 349.289 91.8199 349.154 91.2543 346.279C90.6923 343.424 92.2764 342.752 94.6194 342.236Z" fill="#000002"/>
<path d="M319.903 342.236C321.51 342.155 323.879 342.562 324.557 344.207C323.493 345.532 321.21 342.979 318.358 344.727C317.596 346.813 324.488 348.01 324.782 350.642C325.089 353.383 322.824 354.098 320.663 354.655C319.385 354.521 317.006 354.005 316.291 352.843C316.306 352.1 316.204 352.347 316.645 351.813C318.229 351.465 321.821 354.644 322.928 351.187C322.166 349.083 317.068 349.128 316.444 346.268C315.865 343.6 317.791 342.771 319.903 342.236Z" fill="#000002"/>
<path d="M193.532 342.255C195.03 342.133 198.611 342.56 199.089 344.204C197.708 346.383 192.55 341.565 190.676 346.539C189.304 350.181 193.167 354.218 196.302 352.26C197.271 351.884 198.334 351.181 198.936 352.246C198.636 353.364 197.249 354.098 196.203 354.394C194.576 354.846 192.836 354.639 191.361 353.818C186.821 351.275 187.565 343.778 193.532 342.255Z" fill="#000002"/>
<path d="M83.2432 365.306L83.7967 365.787C84.0671 366.669 81.6417 372.633 81.2394 373.991C80.7807 375.54 79.8568 378.038 77.8647 377.719C76.3974 376.734 74.5464 370.495 73.726 368.28C73.3076 367.454 72.756 366.549 72.9244 365.687C73.5564 365.527 73.7757 365.646 74.404 365.862C75.9335 367.727 77.751 373.323 78.3566 375.695C79.2374 373.229 80.8715 368.328 82.2408 365.92C82.6381 365.677 82.9721 365.472 83.2432 365.306Z" fill="#000002"/>
<path d="M372.334 353.684C372.232 352.147 371.903 343.132 372.603 342.491C375.025 342.292 375.01 342.868 375.874 345.049C376.896 346.938 377.48 348.132 378.874 349.765C379.278 348.759 379.963 346.901 380.456 346.01C381.082 346.783 381.102 347.055 381.253 348.009C380.508 349.518 379.703 352.178 377.733 351.657C376.376 350.539 375.408 347.502 374.205 345.941C374.252 347.822 374.572 352.798 373.886 354.27L373.356 354.626C372.626 354.431 372.858 354.579 372.351 354.059L372.334 353.684Z" fill="#000002"/>
<path d="M372.334 353.684C372.232 352.147 371.903 343.132 372.603 342.491C375.025 342.292 375.01 342.868 375.874 345.049C374.584 344.673 374.792 344.926 373.272 345.135C371.658 346.395 372.509 351.492 372.334 353.684Z" fill="#030C18"/>
<path d="M168.134 343.786C168.846 343.96 169.697 344.102 170.274 344.526C168.826 345.734 167.889 347.47 168.317 349.378C168.568 350.513 169.263 351.5 170.248 352.12C172.869 353.739 174.88 352.167 176.239 349.927C175.413 349.868 173.055 349.845 172.641 349.127C173.378 347.833 175.953 347.332 177.247 348.161C179.551 350.898 176.017 354.439 172.721 354.617C171.08 354.706 169.472 354.137 168.255 353.037C165.536 350.555 165.684 346.417 168.134 343.786Z" fill="#000002"/>
<path d="M394.8 365.659C396.691 365.388 399.664 366.051 400.107 368.26C400.323 369.33 399.233 370.305 398.575 371.068C405.957 379.76 390.665 378.587 392.163 375.141L393.111 374.902C394.795 375.787 398.107 376.806 398.525 373.987C397.765 371.67 395.154 372.257 394.525 371.449C395.211 370.045 398.065 370.492 398.305 368.709C397.085 366.481 394.532 367.939 392.366 367.902L392.218 367.533C392.737 366.632 393.908 366.099 394.8 365.659Z" fill="#000002"/>
<path d="M154.64 342.523C155.553 342.408 156.399 342.376 157.316 342.334C157.176 343.247 157.048 343.115 157.425 343.813L157.962 344.117C155.969 344.377 156.032 345.747 156.996 347.213C157.554 347.585 158.056 347.545 158.721 347.568C159.781 347.551 161.287 347.428 162.222 347.813L162.503 348.237C162.399 348.495 162.299 348.801 162.126 349.012C160.894 349.256 157.963 349.298 156.566 349.349C156.495 350.305 156.563 351.564 156.589 352.546C159.064 352.515 160.341 352.347 162.694 353.079L162.928 353.587C161.871 354.669 156.293 354.455 154.648 354.433C154.742 350.464 154.739 346.493 154.64 342.523Z" fill="#262F3E"/>
<path d="M158.721 347.568C159.781 347.551 161.287 347.428 162.222 347.813L162.503 348.237C162.399 348.495 162.299 348.801 162.126 349.012C160.514 349.044 159.622 349.048 158.721 347.568Z" fill="#000002"/>
<path d="M101.73 367.875C101.991 367.487 102.68 366.882 103.044 366.539L104.513 367.903C103.879 368.517 103.148 369.161 102.667 369.89C102.646 370.395 102.637 370.9 102.64 371.405C102.776 379.547 109.746 373.757 111.598 375.448C111.178 377.145 108.082 377.503 107.018 378.153C107.096 379.437 109.086 379.129 108.602 380.807C107.587 381.824 106.29 382.384 104.937 381.697C105.048 381.3 106.489 380.569 107.017 380.228L106.985 379.86L105.608 379.333C105.065 378.339 105.58 378.342 104.554 377.703C100.554 375.208 98.854 372.036 101.73 367.875Z" fill="#000002"/>
<path d="M101.73 367.875C101.991 367.487 102.68 366.882 103.045 366.539L104.513 367.903C103.879 368.517 103.148 369.161 102.667 369.89C102.456 369.167 102.856 368.901 102.495 368.047L101.73 367.875Z" fill="#030C18"/>
<path d="M359.624 344.106C359.797 345.019 359.701 345.396 360.28 345.965C360.985 345.812 361.114 345.734 361.741 345.363C361.726 346.273 361.716 346.549 361.929 347.457C363.048 347.932 365.929 347.117 367.142 347.801L367.261 348.28C366.538 349.723 363.204 349.218 361.617 349.198C361.75 350.251 361.78 351.57 361.83 352.651C363.28 352.632 367.078 352.282 368.043 353.315C368.123 353.996 368.182 353.748 367.831 354.316C366.459 354.603 361.273 354.495 359.525 354.494C359.745 351.65 359.626 347.074 359.624 344.106Z" fill="#262F3E"/>
<path d="M141.807 342.536C143.693 342.355 148.884 342.209 150.805 342.677C150.938 342.71 150.998 343.012 151.065 343.197L150.817 343.718C150.003 344.158 148.448 344.03 147.458 344.024L147.473 352.232C147.506 353.178 147.708 353.73 147.255 354.376C146.487 354.56 146.35 354.589 145.58 354.445C144.935 353.334 145.265 345.799 145.407 344.179C144.319 344.061 141.486 344.128 141.192 343.077L141.807 342.536Z" fill="#262F3E"/>
<path d="M14.8387 345.294C14.8018 344.479 14.6277 343.132 15.0434 342.498C15.8384 342.186 15.9218 342.341 16.8401 342.485C17.0651 345.525 16.9728 349.458 16.985 352.569C18.3162 352.535 20.8769 352.287 21.9249 352.859C22.3361 353.525 22.2508 353.244 22.1937 354.069C21.532 354.705 16.2864 354.453 14.8638 354.532C14.7875 351.453 14.7791 348.373 14.8387 345.294Z" fill="#262F3E"/>
<path d="M14.8387 345.294C14.8018 344.479 14.6277 343.132 15.0434 342.498C15.8384 342.186 15.9218 342.341 16.8401 342.485C16.6012 344.536 16.7335 344.288 14.8387 345.294Z" fill="#000002"/>
<path d="M259.419 370.581C259.392 369.214 259.243 367.071 259.627 365.828L259.946 365.5C260.691 365.577 260.815 365.595 261.34 366.11C261.588 367.415 261.501 373.648 261.286 374.896C261.323 375.168 261.365 375.466 261.412 375.789C262.714 376.406 265.952 375.393 267.296 376.461L267.237 377.132C265.9 378.189 261.343 377.783 259.347 377.765L259.419 370.581Z" fill="#000002"/>
<path d="M259.419 370.581C259.444 371.866 259.253 373.588 259.874 374.575C260.427 374.82 260.684 374.827 261.286 374.896C261.323 375.168 261.365 375.466 261.412 375.789C262.714 376.406 265.952 375.393 267.296 376.461L267.237 377.132C265.9 378.189 261.343 377.783 259.347 377.765L259.419 370.581Z" fill="#262F3E"/>
<path d="M310.916 350.833C310.057 348.804 305.71 349.548 304.725 346.983C302.742 341.811 310.651 341.084 312.28 343.847L312.191 344.324C310.221 345.636 308.867 342.241 306.72 344.996C306.497 348.084 313.835 347.082 312.862 352.614C311.778 351.091 311.632 352.275 310.916 350.833Z" fill="#000002"/>
<path d="M336.9 345.672C339.126 347.939 346.852 348.829 342.82 353.283C340.903 355.398 336.002 354.727 334.737 352.46C335.437 350.695 339.775 353.89 341.55 351.935C341.795 351.279 341.649 351.037 341.403 350.362C340.661 349.748 339.27 349.372 338.314 349.053C337.72 348.436 337.371 348.125 336.72 347.589C336.425 346.685 336.601 346.688 336.9 345.672Z" fill="#000002"/>
<path d="M350.697 344.573C349.536 343.752 347.679 344.63 346.33 343.186C347.028 341.663 354.168 342.419 355.648 342.96L355.878 343.32C355.356 344.049 353.284 344.063 352.459 344.101L352.316 349.67C352.328 350.969 352.633 354.08 351.469 354.727C350.447 353.383 350.303 346.307 350.697 344.573Z" fill="#262F3E"/>
<path d="M350.697 344.573L351.665 344.462C352.7 345.461 352.249 348.186 352.316 349.67C352.328 350.969 352.633 354.08 351.469 354.727C350.447 353.383 350.303 346.307 350.697 344.573Z" fill="#000002"/>
<path d="M49.827 350.636C49.8956 349.213 49.7052 343.007 50.2627 342.444C52.4804 342.503 51.6142 349.838 51.7092 351.665C51.8063 352.574 51.9924 353.357 51.5533 354.152C50.4603 355.01 49.7191 354.181 48.9729 353.264C47.9936 352.049 46.9529 350.368 45.8854 348.998L46.812 347.352C47.8421 348.768 48.3979 349.538 49.827 350.636Z" fill="#000002"/>
<path d="M48.9729 353.264L49.8512 351.866C50.765 351.415 50.587 351.557 51.7092 351.665C51.8062 352.574 51.9924 353.357 51.5532 354.152C50.4602 355.009 49.719 354.181 48.9729 353.264Z" fill="#262F3E"/>
<path d="M225.551 354.539C225.73 351.13 225.355 345.862 225.727 342.727C226.275 342.312 227.356 342.409 228.095 342.399L228.639 343.794C228.475 343.866 228.03 344.011 227.994 344.163C227.681 345.51 227.483 351.629 228.062 352.594L228.51 352.694C230.729 352.979 229.889 352.639 230.313 354.414L225.551 354.539Z" fill="#262F3E"/>
<path d="M299.387 364.272C301.346 364.438 298.825 369.409 298.556 371.106C298.043 374.335 300.328 377.646 300.548 380.146L299.972 380.788C295.724 379.04 295.763 367.494 299.387 364.272Z" fill="#000002"/>
<path d="M160.946 366.637C163.977 368.974 163.302 372.261 162.41 375.526C159.656 377.78 158.466 377.931 154.886 377.814C154.664 377.596 154.478 377.249 154.312 376.976C154.591 376.297 154.449 376.512 155.285 376.132C157.24 376.004 158.504 376.047 160.016 374.617C162.419 372.344 161.425 370.031 159.537 367.981C160.237 367.601 160.462 367.248 160.946 366.637Z" fill="#000002"/>
<path d="M417.593 364.316C423.18 365.217 422.118 376.878 419.174 380.235L418.147 380.35C417.741 380.103 417.543 379.94 417.82 379.413C420.94 373.46 419.853 370.321 417.593 364.316Z" fill="#000002"/>
<path d="M283.853 373.456C281.578 371.752 275.612 371.691 277.808 367.157C279.031 364.632 284.509 364.849 285.262 367.382C283.601 368.362 280.575 366.123 279.263 368.816C279.746 369.878 282.818 370.756 284.103 371.248C284.088 371.868 284.143 372.964 283.853 373.456Z" fill="#000002"/>
<path d="M57.8499 374.318C55.7266 367.465 62.1527 362.766 68.4341 367.225C68.2464 368.152 68.3123 368.539 67.422 369.117C65.6037 367.377 63.0063 366.446 60.6703 368.382C59.2414 369.567 59.7336 371.594 59.5078 373.183L57.8499 374.318Z" fill="#071227"/>
<path d="M41.3092 346.851C41.2666 345.324 40.8619 342.963 42.3713 342.195C43.6541 342.451 44.5389 343.838 45.2219 344.846L45.8713 345.805C45.4405 346.27 44.9991 346.791 44.482 347.15L43.2578 345.987L43.1526 349.72C43.2325 351.24 43.5873 353.26 42.7151 354.397C42.0942 354.453 41.9398 354.49 41.4189 354.172C41.1609 352.98 41.3127 348.33 41.3092 346.851Z" fill="#262F3E"/>
<path d="M41.3092 346.851C42.086 346.369 41.8008 346.388 42.5507 346.553C43.1458 347.296 43.1 348.733 43.1525 349.72C43.2325 351.24 43.5872 353.26 42.7151 354.397C42.0942 354.453 41.9397 354.49 41.4188 354.172C41.1609 352.98 41.3126 348.33 41.3092 346.851Z" fill="#000002"/>
<path d="M45.2218 344.846L45.8712 345.805C45.4404 346.27 44.999 346.791 44.4819 347.15L43.2577 345.987C44.216 345.9 44.5324 345.496 45.2218 344.846Z" fill="#262F3E"/>
<path d="M343.743 369.86C347.877 369.677 351.915 370.935 348.734 376.636C347.828 378.261 342.235 378.832 341.361 375.692L341.594 375.386C343.253 375.302 347.964 377.465 347.959 373.838C347.959 372.695 346.862 371.659 345.857 371.126C344.993 371.129 344.52 371.17 343.686 370.909L343.483 370.483L343.743 369.86Z" fill="#000002"/>
<path d="M373.453 369.005C369.558 365.024 369.192 369.549 366.726 368.419C366.729 366.449 369.553 365.596 371.081 365.219C378.114 367.709 373.948 371.741 370.323 374.826L369.11 373.638C370.685 372.278 372.239 370.698 373.453 369.005Z" fill="#000002"/>
<path d="M237.516 365.937C241.318 368.574 240.14 371.872 236.071 373.002C235.48 373.166 233.555 373.171 232.859 373.169C232.87 374.383 233.049 376.583 232.548 377.545C231.846 377.933 232.126 377.853 231.203 377.666C230.834 377.07 230.957 377.178 231.004 376.348C231.123 372.505 231.866 374.179 232.769 371.465C234.607 371.461 237.635 371.586 237.766 369.155C237.455 368.245 237.052 368.004 236.311 367.414C236.596 367.004 237.178 366.345 237.516 365.937Z" fill="#000002"/>
<path d="M209.626 373.805C210.374 371.605 209.137 367.03 210.378 365.497L211.05 365.35L210.492 365.389L211.135 365.436C211.857 366.612 212.295 376.718 211.029 377.751C209.272 377.849 208.186 375.754 207.336 374.413C208.267 373.428 208.404 373.632 209.626 373.805Z" fill="#262F3E"/>
<path d="M335.734 369C332.167 365.409 331.702 368.842 329.724 368.731C329.325 367.867 329.389 368.228 329.488 367.261C331.692 363.471 343.332 365.99 333.135 374.746L331.593 374.005C333.543 372.217 334.242 371.248 335.734 369Z" fill="#000002"/>
<path d="M67.737 373.189C68.3512 372.49 68.4005 372.179 69.1793 372.032C69.6762 372.498 69.7168 372.573 69.946 373.214C68.2723 379.157 61.1685 379.449 57.85 374.318L59.5079 373.183L59.5586 373.302C60.5536 375.556 63.3508 376.723 65.5971 375.632C66.6094 375.136 67.3803 374.256 67.737 373.189Z" fill="#000002"/>
<path d="M167.693 374.325C167.71 371.765 167.288 368.353 167.8 366.164C168.391 365.493 168.402 365.678 169.464 365.564L170.382 366.465C170.369 366.619 170.36 366.883 170.313 367.016C168.939 367.849 169.468 369.129 169.55 370.67C171.444 370.556 173.04 370.23 174.698 371.131L174.775 371.505C173.729 372.507 171.664 372.255 170.208 372.237L169.575 372.497C169.357 373.164 169.354 373.364 169.323 374.069C168.999 374.863 169.161 374.85 168.564 375.135C168.126 374.844 167.975 374.775 167.693 374.325Z" fill="#000002"/>
<path d="M169.55 370.67C171.444 370.556 173.04 370.23 174.698 371.131L174.775 371.505C173.729 372.507 171.664 372.255 170.208 372.237C170.97 371.901 171.107 371.979 171.547 371.358C171.183 370.902 170.173 370.8 169.55 370.67Z" fill="#071227"/>
<path d="M251.757 377.476C250.447 378.122 248.261 378.024 246.91 377.493C245.341 376.872 244.089 375.646 243.437 374.093C242.733 372.431 242.765 370.474 243.44 368.814C243.782 369.043 244.938 369.763 245.106 370.037C244.626 374.624 247.472 377.54 251.906 375.31C252.185 376.17 251.995 376.618 251.757 377.476Z" fill="#000002"/>
<path d="M307.738 372.86C309.089 371.547 310.31 370.587 310.775 368.732C310.322 366.416 306.03 368.663 304.406 368.227L304.282 367.872C304.705 367.02 306.515 365.608 307.364 365.473C313.721 364.465 313.345 371.233 309.062 373.9L307.738 372.86Z" fill="#000002"/>
<path d="M1.88009 365.668C3.43383 365.428 5.58751 365.436 7.13773 365.623C6.65818 365.977 6.18271 366.337 5.71143 366.702L5.75671 367.188C4.96796 367.279 4.64187 367.175 4.11952 367.638C3.88471 369.25 3.81089 374.369 3.95376 376.056C3.21986 377.043 3.09834 376.919 1.81274 376.966C2.38665 373.967 2.06477 368.771 1.88009 365.668Z" fill="#262F3E"/>
<path d="M2.13039 348.249C2.14968 346.387 1.67222 344.43 2.20179 342.906C2.94655 342.265 2.91437 342.458 4.08221 342.389L3.855 343.204C4.53859 344.093 5.23022 343.523 5.62104 344.004C5.26985 344.018 4.15279 344.017 3.91857 344.166C4.13058 345.634 3.97717 347.084 3.8781 348.562C4.56275 348.693 4.93082 348.647 5.40539 349.064C4.95288 349.712 5.06245 349.526 4.22978 349.907L4.13177 349.926C3.34646 350.73 4.31395 353.109 3.72253 354.422C2.93519 354.649 3.24399 354.652 2.47126 354.381C1.53194 353.271 2.02724 349.841 2.13039 348.249Z" fill="#000002"/>
<path d="M2.13034 348.249C2.14962 346.387 1.67217 344.43 2.20173 342.906C2.94649 342.265 2.91431 342.458 4.08215 342.389L3.85494 343.204C4.53853 344.093 5.23016 343.523 5.62099 344.004C5.2698 344.018 4.15273 344.017 3.91852 344.166C1.34945 345.792 3.6991 346.079 2.13034 348.249Z" fill="#030C18"/>
<path d="M307.738 372.86L309.062 373.9C308.614 374.284 307.743 375.325 307.314 375.814C309.297 375.975 310.803 375.953 312.783 375.939L313.127 376.58C312.578 378.599 305.943 377.869 304.292 377.438L304.188 376.825C304.579 375.179 306.416 373.956 307.738 372.86Z" fill="#262F3E"/>
<path d="M230.353 342.381C232.456 342.654 233.549 342.849 234.927 344.575C236.723 346.825 236.339 350.484 234.621 352.635C233.708 352.548 233.276 352.455 232.397 352.242C234.412 349.471 235.418 344.629 230.902 344.089C230.754 343.749 230.48 342.783 230.353 342.381Z" fill="#000002"/>
<path d="M328.748 342.44C329.501 342.396 329.662 342.384 330.382 342.579C330.904 343.302 330.776 352.923 330.786 354.543C330.06 354.57 329.766 354.636 329.181 354.233C328.587 352.966 328.951 344.802 328.748 342.44Z" fill="#000002"/>
<path d="M36.408 365.466L37.6401 365.775C38.061 366.431 37.98 376.501 37.8946 377.924C37.2339 377.859 36.7791 377.858 36.1991 377.519C35.9812 376.424 35.9676 366.225 36.408 365.466Z" fill="#262F3E"/>
<path d="M369.11 373.638L370.324 374.826C369.856 375.353 369.831 375.21 369.806 375.777C371.282 376.621 374.408 375.289 375.238 376.692L374.955 377.392C373.656 378.007 368.345 378.18 367.021 377.398C365.944 375.782 367.932 374.616 369.11 373.638Z" fill="#262F3E"/>
<path d="M341.517 372.35C341.97 369.968 341.532 367.365 342.701 365.957C343.453 365.426 344.404 365.624 345.357 365.69C346.565 365.704 347.954 365.616 349.023 366.137L349.254 366.501C348.303 367.545 345.53 367.346 344.186 367.245C343.911 367.844 343.448 369.247 343.743 369.86L343.483 370.483L343.686 370.909C344.52 371.17 344.993 371.129 345.857 371.126C344.634 371.268 342.743 371.952 341.517 372.35Z" fill="#071227"/>
<path d="M345.357 365.69C346.565 365.704 347.954 365.616 349.023 366.137L349.254 366.501C348.303 367.545 345.53 367.346 344.186 367.245C343.867 367.105 343.8 367.007 343.547 366.76L343.552 366.319C343.986 365.827 344.691 365.802 345.357 365.69Z" fill="#000002"/>
<path d="M106.41 346.164C106.469 345.095 106.66 344.964 106.14 344.195C104.359 343.325 103.264 344.344 102.424 343.519L102.532 342.775C103.728 342.073 109.581 342.311 110.947 342.656C111.311 342.748 111.667 342.867 112.013 343.013L112.195 343.365C111.288 344.143 109.792 343.963 108.593 343.943L108.545 347.2C107.918 346.436 107.675 346.58 106.783 346.572L106.41 346.164Z" fill="#262F3E"/>
<path d="M271.99 365.262C272.611 365.471 272.896 366.294 272.891 366.867C272.871 368.997 273.54 376.593 272.381 378.091L271.799 377.772C270.98 376.769 271.176 367.667 271.396 366.04C271.396 366.04 271.921 365.352 271.99 365.262Z" fill="#000002"/>
<path d="M275.146 345.177C277.558 341.919 284.041 340.785 285.492 344.71L285.408 345.124C283.898 345.616 282.556 344.244 280.932 343.805C278.516 344.486 278.372 344.463 276.897 346.427C276.3 345.507 276.166 346.333 275.146 345.177Z" fill="#000002"/>
<path d="M277.221 350.661C278.815 352.699 279.382 352.714 281.917 352.569C283.284 351.897 283.878 351.354 285.343 352.019L285.534 352.456C285.044 353.402 284.987 353.453 283.873 353.927C280.481 355.114 279.063 354.687 276.062 352.948L276.367 352.287C276.666 351.554 276.765 351.305 277.221 350.661Z" fill="#030C18"/>
<path d="M281.917 352.569C283.284 351.897 283.878 351.354 285.343 352.019L285.534 352.456C285.044 353.402 284.987 353.453 283.873 353.927C282.311 353.929 282.44 353.866 281.917 352.569Z" fill="#000002"/>
<path d="M331.593 374.005L333.135 374.746L332.583 375.434C333.085 376.751 336.294 375.307 337.641 376.307C337.831 376.942 337.796 376.724 337.566 377.418C336.21 378.058 331.036 378.079 329.654 377.321C328.718 375.924 330.55 374.841 331.593 374.005Z" fill="#262F3E"/>
<path d="M152.601 366.129L152.694 365.843C153.33 365.333 153.409 365.492 154.351 365.476C154.926 365.969 155.407 366.188 155.514 366.811L155.36 367.168L154.766 367.319C154.681 367.527 154.523 367.865 154.496 368.075C154.669 370.153 154.652 371.999 154.644 374.086C153.829 374.666 153.758 374.305 152.603 374.588L152.601 366.129Z" fill="#000002"/>
<path d="M152.601 366.129L152.694 365.843C153.33 365.333 153.409 365.492 154.351 365.476C154.926 365.969 155.407 366.188 155.514 366.811L155.36 367.168L154.766 367.319C154.681 367.527 154.523 367.865 154.496 368.075C154.362 367.68 152.992 366.492 152.601 366.129Z" fill="#071227"/>
<path d="M42.8582 372.829C42.8097 371.269 42.1319 365.708 44.0257 365.305C44.9538 365.64 45.9842 367.272 46.5531 368.084C45.9577 368.715 45.874 369.11 45.2276 369.393C44.7095 370.131 44.8714 371.078 44.8882 372.006C43.8849 371.775 44.0326 371.635 43.2786 372.068L42.8582 372.829Z" fill="#262F3E"/>
<path d="M380.456 346.01C380.872 344.755 382.325 342.019 383.818 342.058C385.254 342.97 384.561 346.805 384.593 348.499C384.157 347.682 383.902 347.421 383.001 347.579L382.82 346.491L382.481 346.263C381.964 346.881 381.58 347.622 381.253 348.009C381.102 347.055 381.082 346.783 380.456 346.01Z" fill="#262F3E"/>
<path d="M243.44 368.814C245.786 365.515 248.351 364.741 252.128 366.073C251.938 366.546 251.66 367.314 251.418 367.731C248.804 367.017 246.319 367.243 245.106 370.037C244.938 369.763 243.782 369.043 243.44 368.814Z" fill="#071227"/>
<path d="M106.41 346.164L106.783 346.572C107.675 346.58 107.917 346.436 108.545 347.2C108.527 349.061 108.862 352.674 108.091 354.107C107.368 354.6 107.691 354.509 106.769 354.423C106.058 353.687 106.425 347.664 106.41 346.164Z" fill="#000002"/>
<path d="M8.31923 375.618C8.94108 375.273 9.37971 374.765 9.87364 374.256C10.6505 374.487 10.9999 374.511 11.789 374.586C11.221 375.552 10.2807 376.581 9.31925 377.148C7.68964 377.684 3.46948 378.282 1.94948 377.586L1.81274 376.966C3.09834 376.919 3.21986 377.043 3.95376 376.056C5.73285 376.002 6.57589 375.907 8.31923 375.618Z" fill="#030C18"/>
<path d="M182.317 351.533C182.304 349.646 181.887 344.159 182.495 342.696C183.1 342.362 182.838 342.399 183.539 342.578C184.485 343.772 184.144 349.196 184.139 351.081C183.613 351.244 182.843 351.523 182.317 351.533Z" fill="#071227"/>
<path d="M359.624 344.106C359.577 343.469 359.584 343.382 359.765 342.771C360.518 342.131 362.295 342.399 363.335 342.449C364.704 342.433 366.251 342.305 367.494 342.834L367.808 343.193C367.046 344.286 362.887 344.068 361.674 343.818L361.741 345.363C361.114 345.734 360.985 345.812 360.28 345.965C359.701 345.396 359.797 345.019 359.624 344.106Z" fill="#000002"/>
<path d="M363.335 342.449C364.704 342.433 366.251 342.305 367.494 342.834L367.808 343.193C367.046 344.286 362.887 344.068 361.674 343.818C362.471 343.642 362.892 343.829 363.738 343.37C363.775 342.801 363.788 342.99 363.335 342.449Z" fill="#030C18"/>
<path d="M201.369 370.197C201.421 368.822 200.714 365.553 202.573 365.347C203.875 366.083 205.206 368.285 206.06 369.574C205.506 370.136 205.335 370.187 204.589 370.475L203.553 369.474L203.188 369.613L201.369 370.197Z" fill="#262F3E"/>
<path d="M353.68 371.438C356.279 371.281 359.218 371.319 361.837 371.481C362.701 371.535 363.109 371.694 363.246 372.528L362.827 372.86C361.102 372.906 353.967 373.539 353.279 372.105L353.68 371.438Z" fill="#000002"/>
<path d="M51.2349 372.935L53.2045 372.987C53.2417 374.597 53.7858 377.442 51.7754 377.72C50.0697 377.006 50.0806 375.998 49.171 374.658C49.812 374.357 49.9038 374.251 50.3856 373.725C50.5126 373.921 50.5522 373.882 50.821 373.988L51.2349 372.935Z" fill="#262F3E"/>
<path d="M4.08219 342.39C7.98525 342.349 10.3189 341.775 10.6771 346.48C10.2879 346.77 9.96333 346.964 9.54993 347.213L9.01292 346.961C8.99346 344.238 7.98612 344.398 5.62103 344.004C5.2302 343.523 4.53857 344.093 3.85498 343.204L4.08219 342.39Z" fill="#000002"/>
<path d="M10.2337 366.772C12.7273 369.12 12.324 370.905 12.0429 374.102L11.789 374.586C10.9999 374.511 10.6505 374.486 9.87364 374.256L10.531 371.411C10.2167 369.707 10.1409 369.103 8.93799 367.873L10.2337 366.772Z" fill="#000002"/>
<path d="M10.5311 371.411C10.5977 373.277 10.3774 373.148 12.0429 374.102L11.789 374.586C11 374.511 10.6506 374.487 9.87366 374.256L10.5311 371.411Z" fill="#030C18"/>
<path d="M51.2349 372.935C51.2587 370.954 51.0609 367.566 51.3547 365.837L51.7484 365.502C54.0623 365.811 53.1728 370.979 53.2045 372.987L51.2349 372.935Z" fill="#000002"/>
<path d="M231.004 376.348C230.924 375.339 230.926 366.558 231.121 366.033C231.871 365.568 232.898 365.624 233.808 365.582C233.462 365.973 232.878 366.553 232.722 367.021C232.846 368.711 232.827 369.788 232.769 371.465C231.866 374.179 231.123 372.505 231.004 376.348Z" fill="#262F3E"/>
<path d="M255.114 369.545C255.292 371.44 255.223 372.477 255.042 374.37C253.992 375.757 253.369 376.726 251.757 377.476C251.995 376.618 252.185 376.17 251.906 375.31C251.982 375.136 252.267 374.813 252.393 374.635C253.175 373.522 253.24 372.14 253.366 370.823C253.879 370.544 254.631 369.92 255.114 369.545Z" fill="#071227"/>
<path d="M275.146 345.177C276.166 346.333 276.3 345.507 276.897 346.427C276.436 348.111 276.268 349.11 277.221 350.661C276.765 351.305 276.666 351.554 276.367 352.287L276.062 352.948C275.471 352.383 275.097 351.312 274.758 350.53C274.112 348.568 274.562 347.159 275.146 345.177Z" fill="#010A17"/>
<path d="M274.758 350.53C275.718 350.54 275.399 350.417 276.102 350.95C276.278 351.502 276.364 351.708 276.367 352.287L276.062 352.948C275.471 352.383 275.097 351.312 274.758 350.53Z" fill="#071227"/>
<path d="M283.578 377.583C281.665 378.059 277.627 377.966 277.035 375.691L277.273 375.348C279.867 375.001 281.321 377.12 283.823 375.133C283.952 376.275 283.94 376.493 283.578 377.583Z" fill="#000002"/>
<path d="M201.369 370.197L203.188 369.613L203.17 369.687C202.641 371.94 203.589 376.594 202.4 377.722C201.745 377.81 201.959 377.878 201.471 377.54C201.337 375.278 201.387 372.498 201.369 370.197Z" fill="#000002"/>
<path d="M46.553 368.084C48.0839 369.918 49.5279 371.471 50.3855 373.725C49.9037 374.251 49.8119 374.357 49.1709 374.658C48.3448 373.394 46.3688 370.1 45.2275 369.394C45.8739 369.11 45.9576 368.715 46.553 368.084Z" fill="#000002"/>
<path d="M42.8582 372.829L43.2785 372.068C44.0326 371.635 43.8848 371.775 44.8882 372.006C44.9204 373.477 45.181 376.859 44.069 377.989L43.4929 377.888C42.6101 376.043 42.8223 374.859 42.8582 372.829Z" fill="#000002"/>
<path d="M336.524 342.866C338.376 342.268 342.488 341.833 343.285 344.129L343.176 344.374L343.253 343.864L342.919 344.582C340.577 345.182 340.804 343.101 337.757 344.271L337.356 344.282C336.663 343.761 336.824 343.78 336.524 342.866Z" fill="#000002"/>
<path d="M383.001 347.579C383.902 347.421 384.157 347.682 384.593 348.499C384.635 350.214 384.848 352.998 384.043 354.491L383.759 354.398C382.776 352.579 382.966 349.623 383.001 347.579Z" fill="#000002"/>
<path d="M3.87805 348.562C5.74206 347.97 7.59767 348.993 9.0129 346.961L9.5499 347.213C9.96331 346.965 10.2879 346.77 10.677 346.48C9.92592 350.572 7.84926 349.85 4.22974 349.907C5.0624 349.526 4.95283 349.712 5.40535 349.064C4.93078 348.647 4.5627 348.693 3.87805 348.562Z" fill="#071227"/>
<path d="M154.351 365.476C157.382 365.428 158.085 365.468 160.946 366.637C160.462 367.248 160.237 367.601 159.537 367.981C157.895 367.514 157.028 367.391 155.36 367.168L155.514 366.811C155.407 366.188 154.926 365.969 154.351 365.476Z" fill="#071227"/>
<path d="M157.316 342.334C159.446 342.268 160.844 341.981 162.68 343.057L162.81 343.44C161.839 344.482 159.316 344.162 157.962 344.117L157.425 343.814C157.048 343.115 157.176 343.247 157.316 342.334Z" fill="#000002"/>
<path d="M310.916 350.833C311.632 352.275 311.778 351.091 312.862 352.614C311.053 354.449 309.929 354.689 307.349 354.529C307.577 353.917 307.785 353.454 308.065 352.863C309.956 352.747 310.387 352.544 310.916 350.833Z" fill="#262F3E"/>
<path d="M118.955 361.905C120.888 362.699 123.009 362.427 123.6 362.994C123.257 363.809 122.793 363.89 121.924 364.459C119.512 363.489 118.764 364.33 117.676 363.751L117.573 363.288C117.939 362.51 118.248 362.365 118.955 361.905Z" fill="#000002"/>
<path d="M103.045 366.539C105.227 365.393 106.478 365.106 108.891 365.668C108.456 366.239 108.049 366.747 107.696 367.376C106.249 367.333 105.9 367.455 104.513 367.903L103.045 366.539Z" fill="#071227"/>
<path d="M68.4341 367.225C70.1319 369.511 69.9896 370.302 69.946 373.214C69.7168 372.573 69.6762 372.498 69.1793 372.032C68.4005 372.179 68.3512 372.49 67.737 373.189C68.072 371.42 68.1542 370.755 67.4221 369.117C68.3123 368.539 68.2465 368.152 68.4341 367.225Z" fill="#030C18"/>
<path d="M284.103 371.248C286.497 372.517 286.24 376.44 283.578 377.583C283.94 376.493 283.952 376.275 283.823 375.133C283.922 374.722 283.866 373.914 283.853 373.456C284.143 372.964 284.088 371.868 284.103 371.248Z" fill="#030C18"/>
<path d="M206.06 369.574C207.007 370.807 208.495 373.041 209.626 373.805C208.404 373.632 208.267 373.428 207.336 374.413C206.841 373.455 205.278 371.279 204.589 370.475C205.335 370.187 205.506 370.136 206.06 369.574Z" fill="#030C18"/>
<path d="M169.464 365.564C171.197 365.55 174.097 365.322 175.472 366.387L175.489 366.683C174.479 367.452 171.441 367.425 170.313 367.016C170.36 366.883 170.369 366.619 170.382 366.465L169.464 365.564Z" fill="#071227"/>
<path d="M169.748 375.892C171.697 376.049 174.496 375.605 175.56 376.585L175.563 377.023C174.277 378.081 172.542 377.83 170.932 377.761C170.743 376.683 170.566 376.546 169.748 375.892Z" fill="#262F3E"/>
<path d="M336.524 342.866C336.824 343.78 336.663 343.761 337.356 344.282L337.757 344.271L336.9 345.672C336.601 346.688 336.425 346.685 336.72 347.589C337.371 348.125 337.72 348.436 338.314 349.053C336.588 348.506 335.113 347.826 335.157 345.554C335.18 344.35 335.608 343.644 336.524 342.866Z" fill="#030C18"/>
<path d="M252.128 366.073C253.43 366.929 254.577 368.037 255.114 369.545C254.631 369.92 253.878 370.544 253.366 370.823C252.967 369.096 252.792 368.798 251.418 367.731C251.66 367.314 251.938 366.546 252.128 366.073Z" fill="#000002"/>
<path d="M173.916 342.368C174.867 342.686 175.981 342.977 176.734 343.609C177.005 344.345 176.946 344.09 176.525 345.019L176.177 345.264C174.641 344.782 174.36 344.191 172.665 343.869L172.582 343.553C172.832 342.858 173.185 342.825 173.916 342.368Z" fill="#000002"/>
<path d="M154.644 374.086C154.642 374.938 154.507 375.319 154.891 376.002L155.285 376.132C154.449 376.512 154.591 376.297 154.312 376.976C154.478 377.249 154.664 377.596 154.886 377.814C154.2 377.825 153.461 377.92 152.896 377.563C152.396 376.959 152.578 375.447 152.603 374.587C153.758 374.305 153.829 374.666 154.644 374.086Z" fill="#071227"/>
<path d="M168.134 343.786C170.11 342.381 171.515 342.129 173.916 342.368C173.185 342.825 172.832 342.858 172.582 343.553L172.665 343.869L170.274 344.526C169.697 344.102 168.846 343.96 168.134 343.786Z" fill="#030C18"/>
<path d="M167.693 374.325C167.975 374.775 168.126 374.844 168.564 375.135C169.161 374.85 168.999 374.863 169.323 374.069C169.392 374.824 169.297 375.462 169.748 375.892C170.566 376.546 170.743 376.683 170.932 377.761L167.733 377.717L167.693 374.325Z" fill="#071227"/>
<path d="M233.808 365.582C235.332 365.618 236.025 365.658 237.516 365.937C237.178 366.345 236.596 367.004 236.311 367.414C235.528 367.44 233.589 367.135 232.722 367.021C232.878 366.553 233.462 365.973 233.808 365.582Z" fill="#030C18"/>
<path d="M304.886 353.348C304.534 353.199 304.324 352.84 304.363 352.463C304.405 352.086 304.688 351.78 305.062 351.708C305.433 351.637 305.812 351.817 305.987 352.152C306.869 352.598 307.119 352.656 308.064 352.863C307.785 353.454 307.577 353.917 307.349 354.529C306.203 354.159 305.846 354.066 304.886 353.348Z" fill="#000002"/>
<path d="M304.886 353.348C304.534 353.199 304.324 352.84 304.363 352.463C304.405 352.086 304.688 351.78 305.062 351.708C305.433 351.637 305.812 351.817 305.987 352.152C306.158 352.474 306.109 352.87 305.861 353.139C305.614 353.407 305.222 353.491 304.886 353.348Z" fill="#000002"/>
<path d="M232.397 352.242C233.276 352.455 233.708 352.548 234.621 352.635C233.027 353.772 232.26 354.175 230.313 354.414C229.889 352.639 230.729 352.979 228.51 352.694C230.12 352.643 230.8 352.635 232.397 352.242Z" fill="#030C18"/>
<path d="M7.13772 365.623C8.40647 365.847 9.1484 366.026 10.2337 366.772L8.93798 367.873C7.96467 367.528 6.78678 367.364 5.7567 367.188L5.71143 366.702C6.18271 366.337 6.65817 365.977 7.13772 365.623Z" fill="#071227"/>
<path d="M108.891 365.668C109.999 366.211 110.825 366.415 111.041 367.731C110.625 368.302 110.839 368.145 110.039 368.286C109.197 368.028 108.501 367.72 107.696 367.376C108.049 366.747 108.456 366.239 108.891 365.668Z" fill="#030C18"/>
<path d="M184.139 351.081C184.208 352.399 184.552 353.852 183.299 354.636C182.072 353.997 182.318 352.78 182.317 351.533C182.843 351.523 183.613 351.244 184.139 351.081Z" fill="#000002"/>
<path d="M222.841 361.856L223.598 361.98L223.802 362.307C223.544 363.088 222.187 364.189 221.52 364.807C220.748 364.609 220.957 364.779 220.558 364.186C220.746 363.128 221.994 362.391 222.841 361.856Z" fill="#000002"/>
<path d="M159.756 338.356C160.273 338.371 160.482 338.482 160.957 338.674C160.975 339.223 159.911 340.357 159.416 341.108C158.831 341.193 158.744 341.178 158.164 341.055L157.96 340.648C158.239 339.767 159.086 339.039 159.756 338.356Z" fill="#000002"/>
<path d="M228.095 342.399L230.353 342.381C230.48 342.783 230.754 343.749 230.902 344.089C230.341 344.071 229.236 343.879 228.639 343.794L228.095 342.399Z" fill="#071227"/>
<path d="M45.8712 345.805L46.812 347.352L45.8854 348.998L44.4819 347.15C44.9991 346.791 45.4405 346.27 45.8712 345.805Z" fill="#030C18"/>
</svg>
