<svg width="838" height="246" viewBox="0 0 838 246" fill="none" xmlns="http://www.w3.org/2000/svg">
<rect width="838" height="246" fill="#012E63"/>
<g clip-path="url(#clip0_11_1856)">
<path d="M93.9313 99.9418C94.5401 101.494 99.3514 110.674 98.8554 111.613C98.4675 111.804 97.9398 111.952 97.5121 111.952C82.6422 111.953 58.3275 112.42 56.972 91.3243C55.9133 74.8477 61.8228 58.8933 69.9741 45.1658C70.2004 44.7845 70.5777 44.6249 70.9738 44.6035C71.7446 45.1755 71.6862 46.3855 72.0102 47.2501C73.878 52.2334 75.1699 57.4067 77.1101 62.3609C78.142 64.9958 79.198 67.6194 80.217 70.2591C80.5193 71.0448 80.9396 71.8984 81.1221 72.7L81.1526 72.8375C81.2775 75.5556 87.2657 86.3134 88.6883 89.4171C89.5107 91.2115 92.9222 99.03 93.9313 99.9418Z" fill="url(#paint0_linear_11_1856)"/>
<path d="M108.486 129.583L108.482 129.428C108.368 126.016 102.696 118.409 104.037 116.337C104.657 115.937 105.729 115.9 106.451 115.966C110.526 116.339 114.769 116.068 118.821 116.507C121.113 116.736 123.388 117.124 125.631 117.669C145.473 122.64 146.023 135.43 142.741 153.972C142.346 156.203 141.342 158.257 140.748 160.351C138.692 167.603 135.479 174.285 131.417 180.519C130.993 181.17 129.795 183.22 129.266 183.623C127.296 183.79 126.866 176.632 126.402 174.985C124.884 169.599 123.536 163.164 121.334 158.06C121.776 155.581 111.469 132.943 109.507 129.503C109 129.284 109.135 129.358 108.486 129.583Z" fill="url(#paint1_linear_11_1856)"/>
<path d="M81.1526 72.8374C81.4066 72.249 81.4116 71.2278 81.7231 70.8578C84.5462 67.5058 88.5086 65.496 91.8493 62.7819C92.2299 62.4728 92.6589 62.2039 93.0572 61.9227C100.873 57.102 109.218 52.801 117.892 49.9808C119.739 49.3793 121.535 48.4352 123.4 47.8711C127.881 46.5494 132.487 45.6113 137.12 45.1239C138.2 45.0101 140.158 44.6809 141.134 45.1836C141.564 46.7448 134.216 53.8953 132.787 55.4691L114.117 76.0563C112.956 77.3591 111.926 78.9343 110.775 80.2731L93.9313 99.9418C92.9222 99.03 89.5107 91.2115 88.6883 89.4171C87.2657 86.3134 81.2775 75.5556 81.1526 72.8374Z" fill="url(#paint2_linear_11_1856)"/>
<path d="M108.486 129.583C109.136 129.358 109 129.284 109.507 129.503C111.469 132.943 121.776 155.581 121.334 158.06C120.69 158.538 119.885 159.394 119.268 159.957C105.509 172.516 86.1896 180.833 67.8738 180.927C67.3161 180.93 65.8415 180.982 65.4546 180.748L65.3864 180.458C65.5588 179.393 66.8566 177.859 67.5641 177.078C71.2692 172.986 75.433 169.57 79.0254 165.329C80.3491 163.766 81.5184 162.07 82.828 160.587C85.5873 157.462 88.627 154.602 91.2507 151.316C94.812 146.543 98.4633 142.035 102.412 137.605C103.616 136.254 104.69 134.38 105.863 132.944C106.703 131.915 107.781 130.775 108.45 129.646L108.486 129.583Z" fill="url(#paint3_linear_11_1856)"/>
<path d="M137.183 78.7342C138.983 78.646 141.954 80.0408 143.668 80.7857C148.478 82.8068 152.961 86.327 157.094 89.5116C159.448 91.3255 171.547 106.116 170.539 108.532C169.491 108.895 159.646 106.816 157.614 106.421C153.326 105.589 150.366 105.771 146.069 105.751C142.517 105.701 138.964 105.721 135.413 105.812C134.716 105.827 133.745 106.047 133.017 106.147C128.939 106.705 124.813 107.369 120.756 108.06C115.768 108.909 110.804 110.128 105.842 111.124C105.216 111.25 104.503 111.324 104.234 110.643C104.541 109.465 106.214 107.88 106.983 106.869C109.597 103.432 112.448 100.236 115.578 97.3123C118.647 94.4654 121.072 90.9193 124.252 88.212C127.695 85.2811 131.163 82.0088 134.951 79.5818C135.609 79.1609 136.439 78.9301 137.183 78.7342Z" fill="url(#paint4_linear_11_1856)"/>
<path d="M97.1192 116.272L97.5046 116.439L97.6383 116.797C97.5382 118.28 90.1568 128.666 88.7576 130.089C87.62 131.245 84.8905 135.156 83.7603 136.409C80.536 139.982 77.1229 144.005 73.5544 147.155C72.4129 147.716 70.1264 150.194 69.1983 150.592C63.6891 152.951 49.571 141.215 46.6064 138.609C45.8511 137.985 45.1019 137.353 44.3586 136.714C42.9781 135.507 35.0624 126.451 34.9415 125.049C35.708 124.193 39.6587 125.059 40.8472 125.129C42.9225 125.254 44.9876 125.33 47.0643 125.391C56.9155 125.683 66.759 124.575 76.3279 122.098C78.2916 121.612 80.2098 120.872 82.1585 120.371C87.1111 119.097 92.2205 117.746 97.1192 116.272Z" fill="url(#paint5_linear_11_1856)"/>
<path d="M90.0581 27.36C92.6466 27.5827 94.3211 27.9863 96.33 29.8306C98.4344 31.726 99.7119 34.4413 99.8673 37.3491C100.02 39.8497 99.2978 42.6802 97.65 44.4965C95.0922 47.3158 93.5324 47.9876 89.9175 48.2025C81.5948 48.2973 77.3232 38.7304 81.7123 31.6896C83.6402 28.5972 86.8583 27.9339 90.0581 27.36Z" fill="#2F9B52"/>
<path d="M164.097 116.612C167.555 116.425 170.842 118.208 172.699 121.28C174.555 124.352 174.694 128.236 173.06 131.445C171.428 134.654 168.277 136.691 164.815 136.775C159.566 136.903 155.193 132.579 154.996 127.066C154.8 121.553 158.854 116.897 164.097 116.612Z" fill="#2F9B52"/>
<path d="M111.162 180.059C124.456 180.817 123.433 198.227 112.488 199.372C99.5683 200.071 99.1774 181.072 111.162 180.059Z" fill="#0661B0"/>
<path d="M25 105.882C25.5957 105.154 26.0484 103.585 26.4001 102.631C28.5059 96.9143 36.4678 95.5036 40.8133 99.1221C44.9636 102.578 45.7668 109.151 42.4076 113.525C40.8698 115.538 38.6214 116.809 36.1759 117.05C33.2856 117.36 31.2127 116.692 28.8402 114.919C26.2828 113.008 26.3975 110.092 25 108.249V105.882Z" fill="white"/>
</g>
<path d="M316.523 64.2215C331.796 62.464 345.59 73.4508 347.289 88.7269C348.988 104.003 337.945 117.75 322.658 119.39C307.454 121.02 293.795 110.053 292.105 94.8607C290.415 79.6678 301.332 65.9694 316.523 64.2215ZM321.963 106.706C325.987 105.847 329.137 104.992 331.388 101.198C337.866 90.2825 331.718 75.5446 317.957 76.7541C313.923 77.8555 309.388 80.1575 307.645 84.0346C302.136 96.2904 308.437 107.622 321.963 106.706Z" fill="white"/>
<path d="M655.334 69.067C667.918 67.713 678.088 74.6178 679.925 87.5038C680.458 91.4067 680.088 95.3525 679.898 99.2151C678.998 117.373 654.519 125.928 643.218 111.24C643.301 114.24 643.342 117.241 643.348 120.242C643.304 123.859 643.081 131.783 643.585 135.124C641.069 135.265 637.665 135.148 635.084 135.134C635.324 131.732 635.193 127.423 635.199 123.956C635.262 118.376 635.288 112.796 635.276 107.216C635.273 95.2132 635.549 81.6505 635.107 69.775C637.958 69.6113 640.548 69.6648 643.401 69.7289C643.224 72.2346 643.203 73.8488 643.292 76.3607C647.159 72.1271 649.905 70.6275 655.334 69.067ZM660.285 110.927C664.766 109.606 667.335 107.87 669.847 103.665C672.209 99.7098 672.328 90.9999 671.033 86.6468C669.916 82.9377 667.376 79.8204 663.968 77.9749C661.154 76.4712 658.202 76.0956 655.058 76.4552C651.263 77.7091 646.673 79.9395 645.09 83.909C640.329 95.8596 644.136 112.783 660.285 110.927Z" fill="white"/>
<path d="M426.736 64.676L426.829 64.6691C438.809 63.8684 452.425 68.392 452.677 82.3742C452.89 94.2019 452.065 106.302 452.792 118.136C450.696 118.174 441.433 118.494 440.199 117.615C439.704 116.255 439.806 114.113 439.793 112.61C438.755 113.471 437.702 114.314 436.634 115.138C432.019 118.651 424.927 119.612 419.26 118.82C413.575 118.026 410.375 115.943 407.006 111.513C404.839 107.342 403.935 103.48 405.168 98.8418C408.824 85.0815 428.338 84.8863 439.228 87.7529C439.208 85.333 439.166 84.047 438.809 81.6627C437.491 79.8764 436.48 78.3594 434.419 77.3845C427.466 74.0956 419.563 77.1836 413.728 80.9751C411.828 77.8655 409.752 74.8665 407.512 71.9925C413.986 67.2857 418.776 65.287 426.736 64.676ZM431.128 108.836C437.5 106.258 439.398 103.801 439.452 96.9806C434.404 95.5782 431 95.0014 425.668 95.4686C411.398 99.1531 418.501 111.758 431.128 108.836Z" fill="white"/>
<path d="M709.485 68.8216C714.457 68.1493 721.729 70.4228 725.75 73.5285C736.545 81.8671 737.389 99.7527 729.306 110.183C724.615 116.234 719.554 117.805 712.188 118.705C679.424 119.547 677.572 71.455 709.485 68.8216ZM711.696 111.268C734.308 107.744 728.586 74.2554 709.678 76.2114C691.727 78.2477 690.201 104.918 706.309 110.629C707.616 111.092 710.119 111.445 711.512 111.291C711.574 111.284 711.634 111.276 711.696 111.268Z" fill="white"/>
<path d="M493.804 50.9593C496.896 50.8368 499.993 50.8423 503.085 50.9756C503.784 53.7482 506.774 60.4042 507.941 63.3741L520.377 94.3322L526.588 110.099C527.409 112.165 528.92 116.307 530.031 118.026C526.736 118.06 523.267 118.212 519.998 117.939C517.933 112.34 515.755 106.783 513.464 101.273C511.1 101.056 506.403 101.244 503.87 101.273L482.739 101.242C480.856 106.664 478.067 112.229 476.147 118.115C473.069 117.943 469.941 117.987 466.861 118.047C468.597 112.839 470.887 107.639 472.952 102.559L482.366 79.3464C484.294 74.6208 491.688 53.2099 493.804 50.9593ZM485.247 93.552C489.651 93.9122 494.664 93.8346 499.129 93.8123L510.993 93.6826C508.972 89.5421 499.353 61.3294 498.083 60.5716C493.735 71.0076 489.206 82.9003 485.247 93.552Z" fill="white"/>
<path d="M262.267 64.6732C262.867 64.6402 263.468 64.6228 264.069 64.621C269.202 64.6167 274.737 65.9682 278.403 69.7188C284.846 76.3107 283.589 87.425 283.566 95.8265L283.539 118.192C278.892 118.103 274.244 118.125 269.598 118.26C269.118 106.748 269.717 94.7734 269.317 83.1459C264.776 75.7395 257.894 74.4111 251.043 80.0488L250.92 80.1685C249.438 81.6129 248.651 82.6071 248.255 84.6695C247.093 90.7331 247.513 97.8542 247.598 103.982C247.669 108.67 247.665 113.358 247.587 118.046C243.293 118.233 238.159 118.129 233.799 118.151C232.983 101.322 234.284 82.6317 233.561 65.7031L247.158 65.685L247.208 73.0273C251.884 67.6452 254.966 65.3468 262.267 64.6732Z" fill="white"/>
<path d="M603.867 68.8224C612.445 67.5748 623.305 72.4943 624.576 81.7488C625.252 86.6645 625.015 91.191 624.994 96.1227C624.953 103.448 624.979 110.774 625.068 118.099C622.425 118.048 619.862 117.999 617.219 118.057C617.266 115.506 617.225 114.238 616.914 111.711C614.819 113.91 612.46 115.934 609.598 117.01C601.061 120.223 589.691 119.257 585.736 109.948C584.53 107.353 584.124 104.46 584.571 101.634C587.039 86.0744 605.606 87.8717 616.988 89.8381C616.766 86.9092 616.855 84.1803 615.45 81.5453C614.208 79.1749 612.06 77.4081 609.494 76.6483C603.028 74.7453 596.655 77.8294 591.14 80.8107C590.382 78.8372 588.598 76.3201 587.389 74.4869C593.167 71.4725 597.307 69.357 603.867 68.8224ZM593.315 106.07C596.115 110.225 601.04 112.846 606.083 111.389C610.688 109.963 614.354 107.718 616.846 103.364C616.855 101.345 616.828 99.154 616.893 97.1512C612.973 95.6617 608.451 94.5224 604.226 95.1774C596.747 95.8703 592.764 98.0932 593.315 106.07Z" fill="white"/>
<path d="M390.389 65.5721C394.619 65.5845 398.848 65.6423 403.077 65.7455C399.403 74.6739 395.585 84.3587 392.169 93.3535C389.754 99.7127 384.68 111.797 383.24 118.059C380.524 118.311 371.153 118.247 368.445 118.114C366.907 115.343 364.288 107.249 363.012 103.824C360.706 97.6341 358.274 91.5186 355.92 85.3558C354.82 82.3822 349.136 67.5231 347.809 65.7943C352.686 65.6072 357.566 65.5686 362.444 65.6788C363.433 67.3421 364.76 72.1235 365.552 74.3317C368.885 83.6228 372.877 93.6553 375.509 103.131C377.692 100.162 379.486 92.1949 380.924 88.3282C383.607 81.1137 386.269 73.776 388.336 66.3779C388.466 65.9117 389.953 65.677 390.389 65.5721Z" fill="white"/>
<path d="M207.57 45.9536C211.947 45.7609 217.358 45.9588 221.994 45.84C222.539 60.76 221.791 76.2312 222.104 91.1978C222.287 99.9918 222.224 109.329 221.97 118.128L207.807 118.11C207.254 114.572 207.511 98.9668 207.512 94.4255L207.57 45.9536Z" fill="white"/>
<path d="M558.641 68.8287C563.017 68.5067 568.632 70.1987 571.776 73.2639C578.138 79.4664 577.045 88.9313 577.021 97.0706C576.956 104.058 576.974 111.045 577.068 118.031C574.369 118.108 571.699 117.865 568.982 118.071C568.286 107.868 569.625 96.2539 568.526 86.1678C567.456 76.3518 557.432 73.8824 549.164 79.1278C542.557 83.5929 543.789 92.3922 543.828 99.4316L543.979 118.186C541.14 118.189 538.53 118.17 535.697 118.028C535.258 108.318 535.697 97.5014 535.593 87.7002C535.531 81.7456 535.881 75.8817 535.46 69.875C538.017 69.6498 541.208 69.7233 543.825 69.72C543.819 72.3483 543.869 74.3463 544.08 76.9621C547.544 71.5869 552.394 69.2264 558.641 68.8287Z" fill="white"/>
<path d="M793.784 68.8229C798.359 68.4677 804.67 70.4308 808.54 72.9392C811.198 74.66 806.988 78.7809 805.574 80.3927C802.252 77.5836 799.615 76.499 795.437 76.0867C791.938 75.7416 786.456 77.7379 786.88 81.945C787.662 89.7199 803.663 89.9773 808.173 95.9716C810.386 98.9141 811.314 100.334 811.204 104.101C811.323 116.354 802.101 118.684 791.692 118.49C785.354 117.892 781.857 116.192 776.844 112.48C778.094 110.53 779.448 108.278 780.965 106.567C787.253 110.53 796.068 114.951 802.211 108.239C803.047 107.327 803.589 105.494 803.301 104.292C801.426 96.4586 787.683 96.8923 782.462 91.4259C780.088 89.3138 778.867 87.0482 778.684 83.7689C778.118 73.6048 784.631 69.4553 793.784 68.8229Z" fill="white"/>
<path d="M522.63 147.433L311.605 147.448L239.729 147.429C229.95 147.415 220.141 147.492 210.359 147.529C209.159 147.534 207.916 147.335 206.822 146.82L206.797 146.348C208.827 144.828 233.672 145.729 238.006 145.731L311.674 145.69L522.917 145.556C521.61 145.692 520.303 145.815 518.997 145.924C520.01 146.333 524.218 146.186 525.581 146.154C528.31 146.091 529.116 146.62 531.439 146.908C528.345 146.956 523.987 146.685 521.145 146.854L520.979 147.199L520.543 147.004C521.234 147.169 521.93 147.312 522.63 147.433Z" fill="white"/>
<path d="M743.787 50.7048C746.24 50.6352 749.005 50.7081 751.479 50.7183C750.839 68.1098 751.606 85.7957 751.189 103.215C751.141 105.198 751.509 117.344 751.037 118.066L749.811 118.134L742.933 117.924C742.673 114.979 742.729 51.322 742.824 51.0294L743.787 50.7048Z" fill="white"/>
<path d="M769.062 69.73L770.182 69.8172C770.582 70.5197 770.304 78.5401 770.298 79.9709L770.271 118.118L763.441 117.995C762.754 118.067 762.603 118.056 761.918 117.957C761.557 117.462 761.64 73.9016 761.619 69.9102C763.551 69.6943 767.009 69.7512 769.062 69.73Z" fill="white"/>
<path d="M522.917 145.556L629.715 145.432L672.787 145.457C675.711 145.461 691.069 144.986 692.192 145.956L692.477 146.946C691.866 147.837 690.737 147.56 689.715 147.534C686.506 147.454 683.294 147.478 680.085 147.475L646.853 147.461L522.63 147.433C521.93 147.312 521.234 147.169 520.543 147.004L520.979 147.199L521.145 146.854C523.987 146.685 528.345 146.956 531.439 146.908C529.116 146.62 528.31 146.091 525.581 146.154C524.218 146.186 520.01 146.333 518.997 145.924C520.303 145.815 521.61 145.692 522.917 145.556Z" fill="white"/>
<path d="M495.854 182.345C492.832 179.452 492.732 174.658 495.63 171.642C498.528 168.626 503.325 168.534 506.338 171.436C509.349 174.339 509.432 179.134 506.525 182.14C503.63 185.132 498.861 185.224 495.854 182.345ZM498.052 181.246C499.758 182.027 501.354 182.227 503.2 181.652C505.363 179.883 507.171 177.679 505.926 174.727C505.417 173.529 504.454 172.581 503.248 172.09C501.028 171.191 499.78 171.692 497.725 172.579C495.139 176.255 495.518 177.686 498.052 181.246Z" fill="white"/>
<path d="M498.052 181.246C499.758 182.027 501.354 182.227 503.2 181.652C504.285 181.777 505.482 181.863 506.525 182.14C503.63 185.132 498.861 185.224 495.854 182.345C496.57 182.08 497.37 181.614 498.052 181.246Z" fill="white"/>
<path d="M277.13 170.316C280.112 168.567 283.902 169.07 286.325 171.535C289.088 174.347 289.219 178.812 286.625 181.78C284.031 184.749 279.588 185.219 276.43 182.859C273.272 180.499 272.465 176.106 274.578 172.778C275.22 171.766 276.095 170.922 277.13 170.316ZM277.713 172.674C276.684 173.475 275.992 174.631 275.771 175.915C275.356 178.331 276.675 180.71 278.943 181.639C281.212 182.568 283.821 181.797 285.22 179.785C286.62 177.772 286.433 175.058 284.772 173.256C283.791 172.193 282.414 171.583 280.967 171.571C279.789 171.562 278.642 171.951 277.713 172.674Z" fill="white"/>
<path d="M277.13 170.316C280.112 168.567 283.902 169.07 286.325 171.535C285.806 172.472 285.62 172.617 284.772 173.256C283.791 172.193 282.414 171.583 280.967 171.571C279.789 171.562 278.642 171.951 277.713 172.674C277.942 171.715 277.579 171.403 277.13 170.316Z" fill="white"/>
<path d="M277.13 170.316C277.579 171.403 277.942 171.715 277.713 172.674C276.684 173.475 275.992 174.631 275.771 175.915C275.036 174.815 275.409 174.431 275.264 173.066L274.578 172.778C275.22 171.766 276.095 170.922 277.13 170.316Z" fill="white"/>
<path d="M555.251 170.72C557.903 168.887 561.432 168.963 564.001 170.911C566.579 172.864 567.604 176.255 566.54 179.308C565.477 182.362 562.567 184.383 559.331 184.313C556.098 184.242 553.277 182.097 552.347 179C551.419 175.903 552.59 172.56 555.251 170.72ZM565.017 177.086C564.413 175.276 563.696 173.99 562.579 172.461C557.106 170.063 557.366 173.408 555.449 173.511C554.14 176.23 554.516 180.033 557.435 181.512C558.516 182.052 559.77 182.135 560.913 181.743C563.358 180.92 563.974 179.23 565.017 177.086Z" fill="white"/>
<path d="M555.251 170.72C557.903 168.887 561.432 168.963 564.001 170.911C563.675 171.272 562.899 172.18 562.579 172.461C557.106 170.063 557.366 173.408 555.449 173.511C555.514 172.542 556.575 171.678 557.278 170.955L557.02 170.696L557.129 170.874L556.869 170.971L556.323 170.515C555.98 170.622 555.609 170.665 555.251 170.72Z" fill="white"/>
<path d="M367.265 197.434C371.331 196.738 375.189 199.479 375.868 203.547C376.547 207.614 373.79 211.459 369.719 212.122C365.67 212.78 361.851 210.043 361.176 205.999C360.5 201.955 363.223 198.125 367.265 197.434ZM369.132 210.109C370.936 209.42 371.778 208.65 373.055 207.195C373.641 202.471 373.434 200.419 368.119 199.399C366.505 199.765 365.17 200.201 364.222 201.678C363.432 202.904 363.167 204.396 363.488 205.818C364.145 208.816 366.235 210 369.132 210.109Z" fill="white"/>
<path d="M455.138 169.453C459.126 168.802 462.905 171.449 463.654 175.419C464.403 179.388 461.848 183.23 457.896 184.075C455.028 184.689 452.066 183.561 450.332 181.195C448.599 178.828 448.418 175.665 449.87 173.116C450.982 171.162 452.919 169.816 455.138 169.453ZM451.186 177.471C452.545 180.683 453.286 181.969 456.916 182.299C460.092 180.904 462.575 178.025 460.929 174.427C460.375 173.244 459.369 172.333 458.137 171.898C457.617 171.715 456.865 171.604 456.309 171.528C452.317 172.531 451.988 173.624 451.186 177.471Z" fill="white"/>
<path d="M695.25 197.304C695.493 197.288 695.739 197.279 695.985 197.274C698.418 197.236 699.473 198.101 701.141 199.713C702.931 204.559 702.934 211.156 696.729 212.302C689.606 213.064 687.365 199.646 695.25 197.304ZM697.117 210.144C701.514 207.475 701.085 199.138 695.529 199.326C690.693 202.173 691.416 209.827 697.117 210.144Z" fill="white"/>
<path d="M589.039 197.377C592.305 197.042 593.093 197.214 595.431 199.523C597.236 201.407 596.447 206.583 596.044 208.998C588.082 219.135 579.566 203.264 589.039 197.377ZM590.98 199.3C586.85 200.96 586.627 203.771 587.78 207.979C588.219 209.576 590.459 210.658 591.952 209.845C595.449 208.036 594.717 203.637 593.41 200.783C592.723 200.073 591.869 199.733 590.98 199.3Z" fill="white"/>
<path d="M589.04 197.377C592.305 197.042 593.093 197.214 595.431 199.523L594.85 200.436C594.355 200.542 593.896 200.632 593.41 200.783C592.723 200.073 591.869 199.733 590.98 199.3C590.702 199.237 589.528 197.844 589.04 197.377Z" fill="white"/>
<path d="M660.585 200.73C662.839 196.654 666.366 196.252 669.924 198.986C671.874 201.344 671.747 203.407 671.462 206.374C671.373 207.24 671.255 208.103 671.104 208.96C664.392 217.123 658.445 209.023 660.585 200.73ZM668.407 200.489C665.326 198.701 664.06 199.364 662.271 202.237C662.22 203.961 662.031 205.402 662.594 207.145C663.788 210.821 667.189 211.542 668.825 207.61C669.835 205.178 669.43 202.937 668.407 200.489Z" fill="white"/>
<path d="M660.585 200.73C662.84 196.654 666.366 196.252 669.924 198.986C669.64 199.256 668.57 200.24 668.407 200.489C665.326 198.701 664.06 199.364 662.271 202.237L660.585 200.73Z" fill="white"/>
<path d="M345.273 169.775C347.86 169.611 354.263 168.939 355.652 171.895C357.066 174.905 355.851 177.111 353.019 178.572L353.769 179.648C354.431 180.605 356.152 182.811 355.953 183.898C355.239 184.251 354.977 184.15 354.176 183.997C352.751 182.67 350.407 177.32 348.075 178.369C346.869 179.778 347.994 182.035 347.452 183.881C346.551 184.287 346.923 184.226 345.938 184.129C345.367 183.298 345.327 171.759 345.273 169.775ZM347.643 176.748C349.814 176.798 351.033 176.904 353.133 176.175C355.765 171.437 350.836 171.35 347.654 171.6C347.632 173.292 347.582 175.063 347.643 176.748Z" fill="white"/>
<path d="M608.993 50.9656C611.713 50.7303 615.88 50.9343 618.683 51.0401C615.533 54.7607 611.885 58.4938 608.928 62.2143L608.872 62.2706C607.461 63.6384 603.669 63.4358 601.497 63.3937L601.369 62.5116C601.808 61.4475 608.22 51.7915 608.993 50.9656Z" fill="white"/>
<path d="M346.95 204.278C347.706 202.403 349.01 197.908 350.479 197.204C352.529 197.294 353.166 199.334 353.829 201.018C355.188 204.467 356.679 207.979 357.889 211.475L357.793 212.009C354.656 212.748 355.71 209.122 352.758 208.601C351.237 208.539 349.271 208.587 347.717 208.585C347.393 209.848 347.263 211.124 346.283 211.897C345.236 212.156 345.575 212.216 344.666 211.883C343.921 210.407 346.27 205.915 346.95 204.278ZM348.623 205.533C348.49 206.036 348.313 206.32 348.466 206.727C349.421 206.518 352.7 206.644 353.847 206.662C352.885 204.742 351.962 202.295 351.166 200.263C350.285 202.004 349.437 203.761 348.623 205.533Z" fill="white"/>
<path d="M346.95 204.278C347.79 205.283 347.52 205.271 348.623 205.533C348.49 206.036 348.313 206.32 348.466 206.727C349.373 207.514 351.521 208.107 352.758 208.601C351.237 208.539 349.271 208.587 347.717 208.585C347.393 209.848 347.263 211.124 346.283 211.897C345.236 212.156 345.575 212.216 344.666 211.883C343.921 210.407 346.27 205.915 346.95 204.278Z" fill="white"/>
<path d="M240.348 183.432C240.259 183.609 239.958 183.84 239.791 183.986C238.816 183.993 238.529 184.18 237.911 183.645C238.213 182.208 242.341 171.043 243.656 169.859C244.223 169.348 244.547 169.396 245.194 169.481C246.315 170.293 248.874 177.162 249.465 178.808C250.19 180.201 251.859 182.674 250.9 184.174C250.026 184.491 250.332 184.421 249.285 184.12C248.715 183.547 248.358 183.137 248.579 182.206C247.871 180.955 248.244 181.223 247.017 180.666C245.15 180.667 243.164 180.63 241.309 180.746C241.034 181.525 240.656 182.704 240.348 183.432ZM242.198 178.205L242.449 178.561C243.907 178.787 245.537 178.672 247.022 178.618C246.17 176.669 245.393 174.224 244.502 172.101C243.78 174.106 243.053 176.263 242.198 178.205Z" fill="white"/>
<path d="M240.348 183.432C240.369 181.936 240.492 178.857 242.198 178.205L242.449 178.561C243.907 178.787 245.537 178.672 247.022 178.618L247.059 179.021C246.126 179.338 245.695 179.271 244.733 179.217C245.927 179.607 246.211 179.689 247.017 180.666C245.15 180.667 243.164 180.63 241.309 180.746C241.034 181.525 240.656 182.704 240.348 183.432Z" fill="white"/>
<path d="M249.465 178.808C250.19 180.201 251.859 182.674 250.9 184.174C250.026 184.491 250.332 184.421 249.285 184.12C248.715 183.547 248.358 183.137 248.579 182.206L248.969 182.067C249.419 180.792 249.403 180.162 249.465 178.808Z" fill="white"/>
<path d="M471.144 196.939C472.175 197.183 472.904 197.389 473.239 198.508C474.052 201.228 478.866 210.059 478.009 212.342C476.841 211.957 475.616 209.814 474.849 208.834C474.539 208.438 472.695 208.512 472.119 208.506C470.87 208.489 469.363 208.664 468.098 208.778C467.572 210.161 467.531 211.095 466.576 211.986C465.538 212.03 465.621 212.188 464.847 211.712C464.79 210.034 469.476 200.339 470.117 198.056C470.186 197.814 470.911 197.132 471.144 196.939ZM468.953 206.503L472.018 206.653C472.873 206.573 473.528 206.686 474.011 206.172C473.35 203.814 472.502 202.237 471.521 200.015C470.699 202.191 469.843 204.354 468.953 206.503Z" fill="white"/>
<path d="M314.827 198.433C315.723 197.383 315.31 197.611 316.551 197.179C318.388 197.723 318.686 199.154 319.154 200.861C319.838 202.159 323.575 210.97 323.273 212.078C322.37 212.228 322.137 212.12 321.252 211.84C320.465 211.245 320.356 209.925 320.141 208.901C317.553 208.635 316.188 208.491 313.61 208.651C313.179 209.761 312.759 211.201 311.861 211.919C311.042 212.131 311.321 212.188 310.667 211.821C309.668 208.909 314.767 201.89 314.827 198.433ZM314.289 206.414C316.374 206.586 317.183 206.604 319.29 206.46C318.479 204.429 317.62 202.417 316.714 200.427L316.479 200.459L314.289 206.414Z" fill="white"/>
<path d="M314.827 198.433C315.723 197.383 315.31 197.611 316.551 197.179C318.388 197.723 318.686 199.154 319.154 200.861C318.544 200.836 317.894 200.41 317.342 200.108L316.714 200.427L316.479 200.459C316.142 199.315 315.771 199.117 314.827 198.433Z" fill="white"/>
<path d="M364.04 174.389C364.69 172.382 365.048 169.541 367.594 169.836C370.126 171.456 372.346 180.186 374.138 183.621C373.671 184.108 373.556 184.008 372.797 184.214C370.468 183.341 371.698 180.799 369.377 180.609C367.56 180.612 365.67 180.673 363.846 180.709C363.451 182.31 363.461 183.435 361.905 184.161C360.94 183.941 361.236 184.13 360.577 183.457C360.73 182.591 363.518 175.805 364.04 174.389ZM364.874 178.767C366.242 178.645 368.144 178.653 369.555 178.616C368.792 176.636 368.571 174.669 367.399 172.85L367.148 173.008C365.935 175.05 365.266 176.125 364.742 178.495L364.874 178.767Z" fill="white"/>
<path d="M364.04 174.389C365.857 174.247 364.931 172.763 367.148 173.008C365.935 175.05 365.266 176.125 364.742 178.495L364.874 178.767C366.645 180.733 368.239 178.782 369.377 180.609C367.56 180.612 365.67 180.673 363.846 180.709C363.451 182.31 363.461 183.435 361.905 184.161C360.94 183.941 361.236 184.13 360.577 183.457C360.73 182.591 363.518 175.805 364.04 174.389Z" fill="white"/>
<path d="M435.602 197.064C435.854 197.159 436.642 197.492 436.761 197.632C438.152 199.28 442.696 210.07 442.966 211.76L442.488 212.398L441.866 212.438C439.352 210.763 440.977 209.047 436.811 208.553C435.577 208.623 434.662 208.625 433.426 208.586C432.846 209.849 432.297 211.46 431.093 212.046C429.964 211.959 430.17 212.151 429.579 211.505C429.849 209.76 434.557 198.711 435.602 197.064ZM437.199 206.513L438.085 206.5C438.456 205.164 437.092 201.582 436.013 200.76C435.49 201.957 434.183 204.546 434.238 205.7C434.853 207.035 435.799 206.617 437.199 206.513Z" fill="white"/>
<path d="M674.879 176.714C675.768 174.64 676.941 170.4 678.417 169.526C680.325 170.036 680.986 172.054 681.673 173.767C683.018 177.12 684.37 180.353 685.884 183.628C685.294 184.334 685.593 184.15 684.675 184.343C682.544 183.446 682.663 180.653 681.084 180.63C679.356 180.655 677.228 180.627 675.537 180.753C675.255 181.536 674.505 183.492 674.396 184.211C673.525 184.207 672.965 184.267 672.182 183.858C671.984 183.014 672.683 182.059 673.13 180.969C673.453 179.297 674.102 178.205 674.879 176.714ZM676.227 178.629L678.719 178.678C679.578 178.695 679.839 178.71 680.666 178.504C681.38 177.304 679.418 173.66 678.947 172.2C677.871 174.418 677.54 176.497 676.227 178.629Z" fill="white"/>
<path d="M674.879 176.714L676.227 178.629L678.719 178.678C677.78 178.733 677.015 178.7 676.197 179.184L676.396 179.535C678.15 179.971 679.786 179.706 681.084 180.63C679.356 180.655 677.228 180.627 675.537 180.753C675.255 181.536 674.505 183.492 674.396 184.211C673.525 184.207 672.965 184.267 672.182 183.858C671.984 183.014 672.683 182.059 673.13 180.969C673.453 179.297 674.102 178.205 674.879 176.714Z" fill="white"/>
<path d="M673.13 180.969C674.022 181.634 674.156 182.476 674.313 183.551C674.345 183.771 674.372 183.991 674.396 184.211C673.525 184.207 672.965 184.267 672.182 183.858C671.984 183.014 672.683 182.059 673.13 180.969Z" fill="white"/>
<path d="M764.235 50.9654C767.05 50.535 769.821 50.9531 771.273 53.7227C771.862 54.8251 771.984 56.1195 771.608 57.3127C770.991 59.2608 769.859 59.9721 768.155 60.8545C761.622 62.4325 757.734 54.9917 764.235 50.9654Z" fill="white"/>
<path d="M521.539 169.716C523.714 169.678 529.694 169.319 531.249 170.735L530.876 171.103C528.76 171.76 526.428 171.552 524.203 171.49L524.221 175.851C525.886 175.823 529.317 175.47 530.488 176.796L530.227 177.244C528.343 178.11 526.888 177.918 524.79 177.972L524.396 178.07C524.061 178.806 524.265 180.916 524.307 181.837C526.251 181.813 529.095 181.589 530.811 182.29C531.442 182.984 531.326 182.664 531.332 183.55C530.292 184.544 523.344 184.202 521.465 184.238C521.64 179.503 521.554 174.477 521.539 169.716Z" fill="white"/>
<path d="M301.588 169.732C303.707 169.683 310.218 169.29 311.559 170.742C310.458 171.803 305.538 171.528 303.994 171.494L304.042 175.85C305.636 175.812 309.085 175.563 310.335 176.293L310.39 176.822C309.129 178.77 306.01 177.081 304.024 178.084L304.066 181.987C306.005 181.908 310.834 181.248 311.483 183.412L311.178 183.979C309.544 184.359 303.704 184.201 301.65 184.192C301.695 179.372 301.674 174.551 301.588 169.732Z" fill="white"/>
<path d="M226.857 197.66C228.761 197.447 235.341 196.922 236.534 198.471L236.197 198.882C233.508 199.695 231.886 199.476 229.074 199.463L229.098 203.418C230.785 203.405 234.257 203.165 235.518 203.994L235.468 204.727C233.806 206.718 231.134 204.351 229.049 205.844L228.954 209.957C230.926 209.905 234.213 209.594 235.925 210.228C236.619 210.998 236.483 210.634 236.451 211.69C235.372 212.451 228.554 212.058 226.798 212.013C227.178 208.279 226.593 201.882 226.857 197.66Z" fill="white"/>
<path d="M319.967 169.461C321.481 169.397 323.807 169.724 324.943 170.808C325.271 171.815 325.274 171.42 324.966 172.404C323.346 172.827 319.951 170.141 318.229 172.702C318.652 175.494 324.724 176.416 325.851 179.466C326.895 182.295 323.414 183.643 321.329 184.276C319.274 184.257 315.733 183.995 315.768 181.397L316.237 180.981C317.896 180.777 322.913 184.053 323.631 179.938C322.638 177.923 316.616 177.76 315.939 174.312C315.266 170.886 317.163 170.081 319.967 169.461Z" fill="white"/>
<path d="M589.617 169.461C591.54 169.364 594.376 169.853 595.188 171.825C593.914 173.416 591.182 170.353 587.768 172.45C586.856 174.952 595.105 176.389 595.458 179.546C595.825 182.834 593.114 183.692 590.527 184.361C588.998 184.2 586.15 183.58 585.294 182.187C585.312 181.295 585.19 181.591 585.718 180.951C587.614 180.534 591.914 184.346 593.238 180.2C592.326 177.675 586.224 177.729 585.478 174.298C584.784 171.097 587.09 170.103 589.617 169.461Z" fill="white"/>
<path d="M438.36 169.484C440.153 169.338 444.439 169.85 445.011 171.822C443.358 174.436 437.184 168.656 434.941 174.623C433.298 178.993 437.923 183.836 441.674 181.486C442.835 181.035 444.107 180.192 444.827 181.471C444.468 182.811 442.808 183.692 441.557 184.047C439.609 184.589 437.526 184.341 435.76 183.356C430.327 180.306 431.217 171.311 438.36 169.484Z" fill="white"/>
<path d="M306.35 197.139L307.013 197.715C307.336 198.774 304.433 205.929 303.952 207.558C303.403 209.416 302.297 212.413 299.913 212.031C298.156 210.848 295.941 203.364 294.959 200.706C294.458 199.716 293.798 198.63 293.999 197.595C294.756 197.404 295.018 197.547 295.77 197.805C297.601 200.043 299.777 206.756 300.501 209.602C301.556 206.644 303.512 200.764 305.151 197.874C305.626 197.583 306.026 197.337 306.35 197.139Z" fill="white"/>
<path d="M652.374 183.195C652.252 181.351 651.858 170.536 652.697 169.767C655.595 169.529 655.577 170.219 656.611 172.836C657.835 175.102 658.534 176.535 660.202 178.493C660.685 177.286 661.506 175.057 662.096 173.989C662.845 174.916 662.869 175.242 663.05 176.387C662.158 178.198 661.195 181.389 658.836 180.763C657.212 179.422 656.054 175.779 654.614 173.906C654.67 176.162 655.052 182.133 654.232 183.898L653.597 184.325C652.723 184.091 653.002 184.269 652.394 183.645L652.374 183.195Z" fill="white"/>
<path d="M652.374 183.195C652.252 181.351 651.858 170.536 652.697 169.767C655.595 169.529 655.577 170.219 656.611 172.836C655.067 172.385 655.316 172.688 653.497 172.939C651.565 174.451 652.584 180.565 652.374 183.195Z" fill="white"/>
<path d="M407.96 171.321C408.811 171.53 409.83 171.7 410.521 172.208C408.788 173.658 407.667 175.741 408.178 178.03C408.479 179.391 409.311 180.575 410.49 181.319C413.627 183.261 416.034 181.376 417.661 178.688C416.671 178.617 413.849 178.59 413.354 177.728C414.236 176.176 417.319 175.575 418.867 176.57C421.625 179.853 417.395 184.101 413.449 184.314C411.486 184.422 409.561 183.739 408.104 182.419C404.85 179.442 405.027 174.477 407.96 171.321Z" fill="white"/>
<path d="M679.264 197.562C681.528 197.236 685.087 198.032 685.617 200.682C685.875 201.965 684.571 203.136 683.783 204.051C692.619 214.479 674.316 213.071 676.108 208.937L677.243 208.65C679.258 209.712 683.223 210.935 683.724 207.552C682.814 204.773 679.688 205.477 678.935 204.508C679.756 202.823 683.173 203.36 683.46 201.221C681.999 198.548 678.944 200.297 676.351 200.253L676.174 199.81C676.796 198.729 678.197 198.09 679.264 197.562Z" fill="white"/>
<path d="M391.808 169.806C392.9 169.667 393.914 169.629 395.011 169.579C394.843 170.674 394.69 170.516 395.142 171.354L395.785 171.718C393.399 172.03 393.474 173.673 394.628 175.432C395.296 175.879 395.897 175.83 396.692 175.858C397.961 175.838 399.764 175.69 400.883 176.151L401.22 176.66C401.095 176.97 400.975 177.337 400.768 177.59C399.293 177.884 395.785 177.934 394.113 177.995C394.029 179.141 394.11 180.652 394.141 181.83C397.103 181.793 398.631 181.591 401.448 182.469L401.728 183.079C400.463 184.377 393.787 184.12 391.817 184.094C391.93 179.332 391.927 174.568 391.808 169.806Z" fill="white"/>
<path d="M396.692 175.858C397.961 175.838 399.763 175.69 400.883 176.151L401.22 176.66C401.095 176.97 400.975 177.337 400.768 177.59C398.838 177.629 397.771 177.633 396.692 175.858Z" fill="white"/>
<path d="M328.478 200.22C328.791 199.754 329.615 199.029 330.051 198.617L331.809 200.254C331.05 200.99 330.176 201.763 329.6 202.638C329.574 203.243 329.564 203.849 329.568 204.455C329.73 214.223 338.073 207.277 340.289 209.305C339.786 211.341 336.081 211.771 334.808 212.55C334.901 214.091 337.283 213.721 336.703 215.734C335.489 216.955 333.936 217.626 332.317 216.803C332.449 216.326 334.174 215.449 334.807 215.04L334.768 214.599L333.12 213.966C332.469 212.774 333.086 212.778 331.858 212.01C327.071 209.017 325.036 205.212 328.478 200.22Z" fill="white"/>
<path d="M328.478 200.22C328.791 199.754 329.615 199.029 330.051 198.617L331.809 200.254C331.05 200.99 330.175 201.763 329.6 202.638C329.346 201.77 329.825 201.451 329.393 200.426L328.478 200.22Z" fill="white"/>
<path d="M637.161 171.704C637.368 172.799 637.253 173.252 637.946 173.934C638.791 173.751 638.945 173.658 639.694 173.213C639.677 174.305 639.665 174.636 639.92 175.725C641.259 176.295 644.708 175.316 646.16 176.137L646.302 176.713C645.437 178.443 641.446 177.838 639.546 177.813C639.706 179.076 639.742 180.66 639.801 181.956C641.538 181.934 646.083 181.513 647.239 182.753C647.333 183.57 647.405 183.272 646.984 183.953C645.342 184.298 639.134 184.169 637.042 184.167C637.306 180.755 637.164 175.265 637.161 171.704Z" fill="white"/>
<path d="M376.448 169.821C378.706 169.604 384.918 169.428 387.218 169.991C387.377 170.03 387.448 170.392 387.529 170.614L387.232 171.239C386.257 171.767 384.396 171.614 383.211 171.606L383.229 181.453C383.269 182.589 383.511 183.25 382.969 184.026C382.049 184.246 381.886 184.282 380.964 184.108C380.192 182.776 380.587 173.736 380.756 171.793C379.455 171.651 376.064 171.73 375.712 170.471L376.448 169.821Z" fill="white"/>
<path d="M224.474 173.13C224.43 172.152 224.222 170.536 224.719 169.776C225.671 169.401 225.771 169.587 226.87 169.76C227.139 173.407 227.029 178.126 227.043 181.858C228.637 181.817 231.702 181.519 232.956 182.205C233.448 183.005 233.346 182.668 233.278 183.657C232.486 184.42 226.207 184.118 224.504 184.213C224.413 180.519 224.403 176.824 224.474 173.13Z" fill="white"/>
<path d="M224.474 173.13C224.43 172.152 224.222 170.536 224.719 169.776C225.671 169.401 225.771 169.587 226.87 169.76C226.584 172.22 226.742 171.923 224.474 173.13Z" fill="white"/>
<path d="M517.222 203.467C517.189 201.827 517.011 199.256 517.471 197.765L517.853 197.371C518.745 197.463 518.893 197.485 519.521 198.103C519.817 199.668 519.714 207.147 519.456 208.644C519.5 208.97 519.551 209.327 519.607 209.715C521.166 210.455 525.042 209.24 526.651 210.521L526.579 211.325C524.979 212.594 519.524 212.107 517.136 212.086L517.222 203.467Z" fill="white"/>
<path d="M517.222 203.467C517.251 205.008 517.023 207.075 517.767 208.259C518.428 208.552 518.736 208.561 519.456 208.644C519.5 208.97 519.551 209.327 519.607 209.715C521.166 210.455 525.042 209.24 526.651 210.521L526.579 211.325C524.979 212.594 519.524 212.107 517.136 212.086L517.222 203.467Z" fill="white"/>
<path d="M578.861 179.775C577.833 177.341 572.63 178.233 571.45 175.156C569.077 168.951 578.544 168.079 580.494 171.394L580.387 171.967C578.028 173.54 576.408 169.468 573.839 172.772C573.572 176.476 582.355 175.274 581.19 181.912C579.892 180.084 579.717 181.505 578.861 179.775Z" fill="white"/>
<path d="M609.962 173.583C612.626 176.303 621.874 177.37 617.047 182.714C614.754 185.251 608.887 184.446 607.373 181.727C608.211 179.609 613.403 183.443 615.527 181.096C615.82 180.31 615.646 180.02 615.352 179.21C614.463 178.473 612.798 178.023 611.654 177.639C610.943 176.899 610.525 176.526 609.746 175.883C609.393 174.799 609.604 174.802 609.962 173.583Z" fill="white"/>
<path d="M626.476 172.265C625.086 171.279 622.864 172.333 621.249 170.601C622.084 168.773 630.63 169.681 632.402 170.33L632.678 170.762C632.052 171.636 629.572 171.653 628.586 171.699L628.414 178.379C628.428 179.938 628.793 183.67 627.4 184.447C626.176 182.834 626.005 174.345 626.476 172.265Z" fill="white"/>
<path d="M626.476 172.265L627.634 172.131C628.873 173.33 628.334 176.599 628.414 178.379C628.429 179.938 628.793 183.67 627.4 184.447C626.177 182.834 626.005 174.345 626.476 172.265Z" fill="white"/>
<path d="M266.353 179.538C266.435 177.831 266.208 170.386 266.875 169.711C269.529 169.782 268.492 178.582 268.606 180.774C268.722 181.864 268.945 182.803 268.419 183.757C267.111 184.786 266.224 183.792 265.331 182.692C264.159 181.234 262.913 179.217 261.635 177.574L262.744 175.599C263.977 177.298 264.643 178.221 266.353 179.538Z" fill="white"/>
<path d="M265.331 182.692L266.382 181.014C267.476 180.473 267.263 180.644 268.606 180.774C268.722 181.864 268.945 182.803 268.419 183.757C267.111 184.785 266.224 183.792 265.331 182.692Z" fill="white"/>
<path d="M476.684 184.221C476.898 180.131 476.449 173.812 476.895 170.051C477.55 169.552 478.845 169.669 479.729 169.656L480.38 171.33C480.184 171.416 479.651 171.59 479.609 171.773C479.234 173.389 478.996 180.73 479.689 181.888L480.226 182.007C482.882 182.35 481.876 181.941 482.384 184.072L476.684 184.221Z" fill="white"/>
<path d="M565.062 195.898C567.406 196.096 564.389 202.06 564.066 204.096C563.453 207.971 566.188 211.943 566.451 214.942L565.761 215.712C560.676 213.615 560.724 199.763 565.062 195.898Z" fill="white"/>
<path d="M399.356 198.734C402.983 201.539 402.175 205.483 401.108 209.399C397.812 212.103 396.387 212.284 392.102 212.144C391.837 211.882 391.614 211.466 391.415 211.139C391.749 210.324 391.58 210.582 392.58 210.126C394.92 209.973 396.433 210.025 398.243 208.309C401.119 205.581 399.929 202.807 397.67 200.347C398.507 199.892 398.776 199.468 399.356 198.734Z" fill="white"/>
<path d="M706.546 195.95C713.234 197.031 711.963 211.021 708.439 215.048L707.21 215.187C706.724 214.89 706.487 214.695 706.819 214.062C710.552 206.921 709.251 203.155 706.546 195.95Z" fill="white"/>
<path d="M546.468 206.915C543.745 204.871 536.604 204.799 539.232 199.359C540.696 196.33 547.253 196.59 548.154 199.629C546.166 200.805 542.545 198.119 540.974 201.349C541.552 202.623 545.229 203.677 546.767 204.267C546.749 205.011 546.815 206.325 546.468 206.915Z" fill="white"/>
<path d="M275.956 207.95C273.415 199.728 281.106 194.091 288.625 199.44C288.4 200.553 288.479 201.017 287.413 201.71C285.237 199.622 282.128 198.506 279.332 200.829C277.622 202.25 278.211 204.681 277.941 206.589L275.956 207.95Z" fill="white"/>
<path d="M256.158 174.997C256.107 173.166 255.623 170.333 257.429 169.412C258.965 169.719 260.024 171.383 260.841 172.593L261.618 173.743C261.103 174.301 260.575 174.926 259.956 175.356L258.49 173.961L258.364 178.44C258.46 180.263 258.885 182.687 257.841 184.05C257.098 184.118 256.913 184.163 256.289 183.781C255.981 182.35 256.162 176.772 256.158 174.997Z" fill="white"/>
<path d="M256.158 174.997C257.088 174.419 256.746 174.442 257.644 174.64C258.356 175.532 258.302 177.256 258.364 178.44C258.46 180.263 258.885 182.687 257.841 184.05C257.098 184.118 256.913 184.163 256.289 183.781C255.98 182.35 256.162 176.772 256.158 174.997Z" fill="white"/>
<path d="M260.841 172.593L261.618 173.743C261.103 174.301 260.575 174.926 259.956 175.356L258.49 173.961C259.637 173.857 260.016 173.372 260.841 172.593Z" fill="white"/>
<path d="M618.152 202.601C623.101 202.382 627.934 203.892 624.126 210.73C623.041 212.681 616.348 213.366 615.302 209.599L615.58 209.231C617.566 209.13 623.204 211.725 623.199 207.374C623.199 206.003 621.886 204.759 620.683 204.121C619.649 204.124 619.083 204.173 618.084 203.86L617.841 203.349L618.152 202.601Z" fill="white"/>
<path d="M653.713 201.576C649.052 196.8 648.614 202.228 645.662 200.872C645.665 198.51 649.046 197.486 650.874 197.034C659.293 200.021 654.306 204.858 649.968 208.559L648.516 207.134C650.4 205.503 652.261 203.607 653.713 201.576Z" fill="white"/>
<path d="M491.005 197.896C495.557 201.059 494.146 205.016 489.276 206.371C488.568 206.568 486.265 206.574 485.431 206.571C485.444 208.028 485.658 210.667 485.059 211.822C484.219 212.287 484.554 212.191 483.449 211.966C483.007 211.252 483.155 211.382 483.212 210.385C483.354 205.775 484.242 207.784 485.323 204.528C487.523 204.523 491.148 204.672 491.305 201.756C490.932 200.664 490.45 200.375 489.564 199.668C489.904 199.176 490.601 198.385 491.005 197.896Z" fill="white"/>
<path d="M457.622 207.334C458.518 204.695 457.037 199.207 458.523 197.367L459.328 197.191L458.659 197.238L459.429 197.294C460.293 198.705 460.817 210.829 459.302 212.068C457.199 212.186 455.899 209.672 454.882 208.064C455.996 206.882 456.16 207.127 457.622 207.334Z" fill="white"/>
<path d="M608.567 201.57C604.297 197.262 603.74 201.38 601.372 201.247C600.895 200.211 600.972 200.643 601.091 199.483C603.728 194.936 617.661 197.958 605.455 208.463L603.609 207.574C605.944 205.429 606.78 204.267 608.567 201.57Z" fill="white"/>
<path d="M287.79 206.595C288.526 205.757 288.585 205.384 289.517 205.208C290.111 205.766 290.16 205.856 290.434 206.626C288.431 213.755 279.928 214.105 275.956 207.95L277.941 206.589L278.001 206.731C279.192 209.435 282.54 210.836 285.229 209.526C286.441 208.931 287.363 207.876 287.79 206.595Z" fill="white"/>
<path d="M407.431 207.958C407.452 204.887 406.947 200.794 407.56 198.168C408.267 197.363 408.281 197.584 409.552 197.447L410.65 198.529C410.634 198.713 410.624 199.03 410.568 199.19C408.922 200.189 409.557 201.725 409.654 203.574C411.921 203.437 413.831 203.046 415.816 204.127L415.908 204.575C414.656 205.777 412.185 205.475 410.442 205.453L409.684 205.765C409.423 206.565 409.42 206.805 409.382 207.651C408.994 208.604 409.189 208.588 408.474 208.93C407.95 208.581 407.769 208.498 407.431 207.958Z" fill="white"/>
<path d="M409.654 203.574C411.921 203.437 413.831 203.046 415.816 204.127L415.908 204.575C414.656 205.777 412.185 205.475 410.442 205.453C411.353 205.05 411.518 205.144 412.045 204.398C411.609 203.852 410.4 203.729 409.654 203.574Z" fill="white"/>
<path d="M508.051 211.739C506.483 212.513 503.867 212.396 502.249 211.759C500.371 211.013 498.873 209.543 498.093 207.68C497.25 205.686 497.288 203.339 498.096 201.347C498.505 201.622 499.889 202.485 500.09 202.814C499.516 208.316 502.922 211.815 508.229 209.14C508.564 210.172 508.335 210.709 508.051 211.739Z" fill="white"/>
<path d="M575.056 206.2C576.674 204.625 578.135 203.474 578.692 201.248C578.15 198.47 573.012 201.165 571.068 200.642L570.92 200.217C571.427 199.194 573.593 197.5 574.609 197.338C582.218 196.129 581.768 204.249 576.642 207.448L575.056 206.2Z" fill="white"/>
<path d="M208.964 197.572C210.824 197.284 213.401 197.294 215.257 197.519C214.683 197.944 214.114 198.375 213.55 198.813L213.604 199.397C212.66 199.505 212.269 199.381 211.644 199.936C211.363 201.87 211.275 208.012 211.446 210.035C210.567 211.219 210.422 211.07 208.883 211.127C209.57 207.528 209.185 201.295 208.964 197.572Z" fill="white"/>
<path d="M209.263 176.675C209.286 174.441 208.715 172.094 209.349 170.265C210.24 169.496 210.202 169.728 211.6 169.645L211.328 170.622C212.146 171.689 212.974 171.006 213.441 171.582C213.021 171.6 211.684 171.598 211.404 171.777C211.657 173.537 211.474 175.278 211.355 177.051C212.175 177.207 212.615 177.152 213.183 177.652C212.642 178.43 212.773 178.207 211.776 178.664L211.659 178.687C210.719 179.651 211.877 182.505 211.169 184.08C210.227 184.353 210.596 184.357 209.671 184.031C208.547 182.7 209.14 178.585 209.263 176.675Z" fill="white"/>
<path d="M209.263 176.675C209.286 174.441 208.715 172.094 209.349 170.265C210.24 169.496 210.202 169.728 211.6 169.645L211.328 170.622C212.146 171.689 212.974 171.006 213.441 171.582C213.021 171.6 211.684 171.598 211.404 171.777C208.329 173.727 211.141 174.072 209.263 176.675Z" fill="white"/>
<path d="M575.056 206.2L576.642 207.448C576.105 207.909 575.062 209.158 574.55 209.745C576.923 209.938 578.725 209.911 581.095 209.894L581.507 210.664C580.849 213.086 572.908 212.21 570.932 211.694L570.807 210.957C571.275 208.982 573.474 207.515 575.056 206.2Z" fill="white"/>
<path d="M482.432 169.635C484.948 169.963 486.257 170.196 487.906 172.267C490.056 174.966 489.597 179.356 487.54 181.937C486.447 181.832 485.93 181.72 484.879 181.465C487.29 178.141 488.494 172.332 483.089 171.684C482.912 171.276 482.584 170.117 482.432 169.635Z" fill="white"/>
<path d="M600.205 169.705C601.105 169.653 601.298 169.639 602.16 169.873C602.785 170.74 602.631 182.283 602.643 184.226C601.775 184.259 601.422 184.337 600.723 183.854C600.012 182.334 600.448 172.539 600.205 169.705Z" fill="white"/>
<path d="M250.292 197.33L251.766 197.701C252.27 198.488 252.173 210.569 252.071 212.276C251.28 212.198 250.736 212.197 250.041 211.79C249.781 210.477 249.764 198.241 250.292 197.33Z" fill="white"/>
<path d="M648.516 207.134L649.968 208.559C649.408 209.191 649.378 209.02 649.348 209.7C651.114 210.712 654.857 209.115 655.85 210.798L655.512 211.637C653.956 212.375 647.6 212.584 646.015 211.645C644.726 209.706 647.105 208.307 648.516 207.134Z" fill="white"/>
<path d="M615.489 205.588C616.031 202.732 615.506 199.608 616.905 197.919C617.806 197.282 618.944 197.52 620.084 197.599C621.53 197.616 623.193 197.51 624.473 198.135L624.748 198.572C623.61 199.825 620.292 199.586 618.683 199.464C618.354 200.183 617.8 201.866 618.152 202.601L617.841 203.349L618.084 203.86C619.083 204.173 619.649 204.124 620.683 204.121C619.219 204.291 616.955 205.112 615.489 205.588Z" fill="white"/>
<path d="M620.084 197.599C621.53 197.616 623.193 197.51 624.473 198.135L624.748 198.572C623.61 199.825 620.292 199.586 618.683 199.464C618.3 199.297 618.22 199.179 617.918 198.883L617.924 198.354C618.443 197.763 619.287 197.733 620.084 197.599Z" fill="white"/>
<path d="M334.079 174.174C334.15 172.891 334.379 172.734 333.756 171.811C331.624 170.768 330.314 171.99 329.308 171.001L329.438 170.107C330.869 169.266 337.876 169.551 339.51 169.966C339.945 170.076 340.372 170.219 340.786 170.393L341.004 170.816C339.918 171.749 338.128 171.533 336.692 171.509L336.635 175.417C335.884 174.5 335.593 174.673 334.527 174.663L334.079 174.174Z" fill="white"/>
<path d="M532.269 197.085C533.012 197.336 533.353 198.324 533.347 199.011C533.323 201.566 534.124 210.679 532.737 212.476L532.04 212.094C531.06 210.891 531.294 199.971 531.557 198.019C531.557 198.019 532.186 197.193 532.269 197.085Z" fill="white"/>
<path d="M536.047 172.989C538.933 169.081 546.693 167.72 548.43 172.43L548.329 172.926C546.521 173.516 544.915 171.87 542.971 171.344C540.079 172.161 539.908 172.133 538.142 174.489C537.427 173.386 537.267 174.377 536.047 172.989Z" fill="white"/>
<path d="M538.53 179.569C540.438 182.013 541.117 182.031 544.151 181.858C545.787 181.051 546.498 180.399 548.252 181.198L548.48 181.722C547.893 182.857 547.825 182.918 546.492 183.487C542.432 184.911 540.734 184.399 537.143 182.312L537.508 181.52C537.866 180.639 537.985 180.342 538.53 179.569Z" fill="white"/>
<path d="M544.151 181.858C545.787 181.051 546.498 180.399 548.252 181.198L548.48 181.722C547.893 182.857 547.825 182.918 546.492 183.487C544.622 183.489 544.776 183.414 544.151 181.858Z" fill="white"/>
<path d="M603.609 207.574L605.455 208.463L604.795 209.289C605.396 210.869 609.236 209.136 610.848 210.336C611.076 211.098 611.035 210.836 610.759 211.669C609.136 212.436 602.943 212.462 601.289 211.552C600.169 209.876 602.362 208.577 603.609 207.574Z" fill="white"/>
<path d="M389.368 198.126L389.479 197.783C390.24 197.171 390.334 197.361 391.462 197.342C392.15 197.934 392.727 198.196 392.855 198.944L392.669 199.372L391.959 199.554C391.857 199.802 391.668 200.208 391.636 200.46C391.843 202.953 391.822 205.168 391.812 207.671C390.838 208.368 390.752 207.934 389.37 208.273L389.368 198.126Z" fill="white"/>
<path d="M389.368 198.126L389.479 197.783C390.24 197.171 390.334 197.361 391.462 197.342C392.15 197.934 392.727 198.196 392.855 198.944L392.669 199.372L391.959 199.554C391.857 199.802 391.668 200.208 391.636 200.46C391.475 199.986 389.835 198.561 389.368 198.126Z" fill="white"/>
<path d="M258.012 206.163C257.954 204.292 257.143 197.62 259.409 197.137C260.52 197.539 261.754 199.497 262.435 200.47C261.722 201.228 261.622 201.702 260.848 202.042C260.228 202.927 260.422 204.063 260.442 205.177C259.241 204.899 259.418 204.731 258.515 205.251L258.012 206.163Z" fill="white"/>
<path d="M662.096 173.989C662.594 172.483 664.333 169.201 666.12 169.248C667.838 170.341 667.009 174.943 667.047 176.975C666.526 175.994 666.22 175.682 665.142 175.871L664.926 174.566L664.52 174.292C663.9 175.033 663.441 175.923 663.05 176.387C662.869 175.242 662.845 174.916 662.096 173.989Z" fill="white"/>
<path d="M498.096 201.347C500.904 197.388 503.974 196.46 508.495 198.059C508.267 198.626 507.935 199.547 507.645 200.048C504.516 199.191 501.542 199.462 500.09 202.814C499.889 202.485 498.505 201.622 498.096 201.347Z" fill="white"/>
<path d="M334.079 174.174L334.527 174.663C335.593 174.673 335.884 174.5 336.635 175.417C336.613 177.649 337.014 181.983 336.092 183.702C335.226 184.294 335.613 184.185 334.509 184.081C333.659 183.199 334.098 175.973 334.079 174.174Z" fill="white"/>
<path d="M216.671 209.509C217.415 209.096 217.94 208.486 218.532 207.876C219.461 208.152 219.88 208.182 220.824 208.271C220.144 209.43 219.019 210.665 217.868 211.345C215.917 211.988 210.866 212.706 209.047 211.87L208.883 211.127C210.422 211.07 210.567 211.219 211.446 210.035C213.575 209.97 214.584 209.856 216.671 209.509Z" fill="white"/>
<path d="M424.936 180.615C424.921 178.351 424.421 171.768 425.148 170.013C425.873 169.612 425.559 169.657 426.398 169.872C427.531 171.304 427.122 177.812 427.116 180.073C426.487 180.268 425.566 180.603 424.936 180.615Z" fill="white"/>
<path d="M637.161 171.704C637.105 170.94 637.114 170.836 637.33 170.103C638.231 169.335 640.358 169.657 641.603 169.717C643.241 169.698 645.093 169.544 646.581 170.178L646.957 170.609C646.044 171.921 641.066 171.659 639.614 171.359L639.694 173.213C638.945 173.658 638.791 173.751 637.946 173.934C637.253 173.252 637.368 172.799 637.161 171.704Z" fill="white"/>
<path d="M641.603 169.717C643.241 169.698 645.093 169.544 646.581 170.178L646.957 170.609C646.044 171.921 641.066 171.659 639.614 171.359C640.569 171.148 641.072 171.373 642.086 170.821C642.13 170.139 642.145 170.365 641.603 169.717Z" fill="white"/>
<path d="M447.739 203.006C447.802 201.356 446.955 197.434 449.181 197.188C450.739 198.07 452.333 200.712 453.354 202.259C452.691 202.933 452.487 202.994 451.594 203.339L450.354 202.138L449.917 202.306L447.739 203.006Z" fill="white"/>
<path d="M630.046 204.494C633.158 204.307 636.675 204.352 639.81 204.547C640.844 204.611 641.333 204.801 641.496 205.802L640.995 206.201C638.93 206.256 630.39 207.015 629.566 205.295L630.046 204.494Z" fill="white"/>
<path d="M268.038 206.291L270.396 206.354C270.44 208.285 271.092 211.698 268.685 212.031C266.644 211.174 266.657 209.965 265.568 208.358C266.335 207.997 266.445 207.87 267.022 207.238C267.174 207.473 267.221 207.427 267.543 207.554L268.038 206.291Z" fill="white"/>
<path d="M211.6 169.645C216.271 169.596 219.065 168.908 219.493 174.553C219.027 174.901 218.639 175.134 218.144 175.432L217.501 175.129C217.478 171.864 216.272 172.055 213.441 171.582C212.974 171.006 212.146 171.689 211.328 170.622L211.6 169.645Z" fill="white"/>
<path d="M218.963 198.897C221.947 201.713 221.465 203.856 221.128 207.69L220.824 208.271C219.88 208.182 219.461 208.152 218.532 207.876L219.318 204.463C218.942 202.418 218.852 201.694 217.412 200.218L218.963 198.897Z" fill="white"/>
<path d="M219.318 204.463C219.398 206.701 219.135 206.546 221.128 207.69L220.824 208.271C219.88 208.182 219.462 208.152 218.532 207.876L219.318 204.463Z" fill="white"/>
<path d="M268.038 206.291C268.067 203.914 267.83 199.85 268.182 197.776L268.653 197.373C271.423 197.744 270.358 203.945 270.396 206.354L268.038 206.291Z" fill="white"/>
<path d="M483.211 210.385C483.115 209.175 483.117 198.64 483.351 198.011C484.249 197.452 485.478 197.52 486.567 197.469C486.153 197.939 485.454 198.635 485.268 199.195C485.415 201.224 485.393 202.515 485.323 204.528C484.242 207.784 483.354 205.775 483.211 210.385Z" fill="white"/>
<path d="M512.069 202.224C512.282 204.497 512.199 205.741 511.983 208.013C510.727 209.677 509.98 210.838 508.051 211.739C508.335 210.709 508.564 210.172 508.229 209.14C508.321 208.931 508.661 208.543 508.812 208.33C509.749 206.995 509.826 205.337 509.977 203.757C510.59 203.422 511.491 202.674 512.069 202.224Z" fill="white"/>
<path d="M536.047 172.989C537.267 174.377 537.428 173.386 538.142 174.489C537.59 176.51 537.389 177.707 538.53 179.569C537.985 180.342 537.866 180.639 537.508 181.52L537.143 182.312C536.435 181.634 535.987 180.35 535.581 179.412C534.808 177.057 535.347 175.367 536.047 172.989Z" fill="white"/>
<path d="M535.581 179.412C536.731 179.424 536.349 179.276 537.19 179.915C537.401 180.578 537.505 180.825 537.507 181.52L537.143 182.312C536.435 181.634 535.987 180.35 535.581 179.412Z" fill="white"/>
<path d="M546.139 211.867C543.849 212.438 539.016 212.327 538.307 209.597L538.592 209.186C541.697 208.769 543.437 211.311 546.432 208.928C546.587 210.298 546.572 210.559 546.139 211.867Z" fill="white"/>
<path d="M447.739 203.006L449.917 202.306L449.895 202.394C449.262 205.096 450.397 210.681 448.973 212.034C448.189 212.139 448.446 212.221 447.862 211.816C447.701 209.102 447.761 205.766 447.739 203.006Z" fill="white"/>
<path d="M262.435 200.47C264.267 202.672 265.995 204.534 267.022 207.238C266.445 207.87 266.335 207.997 265.568 208.358C264.579 206.842 262.214 202.889 260.848 202.042C261.622 201.702 261.722 201.229 262.435 200.47Z" fill="white"/>
<path d="M258.012 206.163L258.515 205.251C259.418 204.731 259.241 204.899 260.442 205.177C260.48 206.941 260.792 210.998 259.461 212.354L258.772 212.233C257.715 210.019 257.969 208.599 258.012 206.163Z" fill="white"/>
<path d="M609.512 170.217C611.728 169.5 616.65 168.978 617.604 171.732L617.474 172.026L617.566 171.414L617.166 172.276C614.362 172.996 614.635 170.499 610.987 171.903L610.507 171.916C609.678 171.29 609.87 171.313 609.512 170.217Z" fill="white"/>
<path d="M665.142 175.871C666.22 175.682 666.526 175.994 667.047 176.975C667.098 179.033 667.352 182.372 666.389 184.163L666.049 184.052C664.872 181.869 665.1 178.324 665.142 175.871Z" fill="white"/>
<path d="M211.355 177.051C213.586 176.34 215.807 177.567 217.501 175.129L218.144 175.432C218.639 175.134 219.027 174.901 219.493 174.553C218.594 179.462 216.109 178.596 211.776 178.664C212.773 178.207 212.642 178.43 213.183 177.652C212.615 177.152 212.175 177.207 211.355 177.051Z" fill="white"/>
<path d="M391.462 197.342C395.09 197.285 395.931 197.333 399.356 198.734C398.776 199.468 398.507 199.892 397.67 200.347C395.705 199.787 394.667 199.639 392.669 199.372L392.855 198.944C392.727 198.196 392.15 197.934 391.462 197.342Z" fill="white"/>
<path d="M395.011 169.579C397.561 169.5 399.234 169.156 401.431 170.446L401.587 170.905C400.425 172.156 397.405 171.772 395.785 171.718L395.142 171.354C394.69 170.516 394.843 170.674 395.011 169.579Z" fill="white"/>
<path d="M578.861 179.775C579.718 181.505 579.892 180.084 581.19 181.912C579.024 184.114 577.679 184.401 574.591 184.209C574.864 183.475 575.113 182.919 575.448 182.21C577.712 182.071 578.227 181.828 578.861 179.775Z" fill="white"/>
<path d="M349.095 193.058C351.409 194.01 353.947 193.684 354.655 194.364C354.245 195.342 353.69 195.44 352.649 196.122C349.761 194.959 348.866 195.968 347.564 195.273L347.441 194.718C347.879 193.784 348.249 193.61 349.095 193.058Z" fill="white"/>
<path d="M330.051 198.617C332.663 197.243 334.162 196.899 337.049 197.572C336.529 198.257 336.042 198.867 335.619 199.622C333.887 199.57 333.469 199.717 331.809 200.254L330.051 198.617Z" fill="white"/>
<path d="M288.625 199.44C290.657 202.182 290.487 203.132 290.435 206.626C290.16 205.856 290.112 205.766 289.517 205.208C288.585 205.384 288.526 205.757 287.79 206.595C288.191 204.473 288.29 203.675 287.414 201.71C288.479 201.017 288.4 200.553 288.625 199.44Z" fill="white"/>
<path d="M546.767 204.267C549.633 205.79 549.325 210.496 546.139 211.867C546.572 210.559 546.587 210.298 546.433 208.928C546.551 208.435 546.483 207.466 546.468 206.915C546.815 206.325 546.75 205.011 546.767 204.267Z" fill="white"/>
<path d="M453.354 202.259C454.488 203.738 456.269 206.418 457.622 207.334C456.16 207.127 455.996 206.882 454.882 208.064C454.289 206.915 452.418 204.305 451.594 203.339C452.487 202.994 452.691 202.933 453.354 202.259Z" fill="white"/>
<path d="M409.552 197.447C411.625 197.431 415.096 197.157 416.742 198.435L416.763 198.79C415.554 199.713 411.918 199.68 410.568 199.19C410.624 199.03 410.634 198.713 410.65 198.529L409.552 197.447Z" fill="white"/>
<path d="M409.891 209.838C412.224 210.027 415.574 209.494 416.847 210.67L416.851 211.195C415.312 212.465 413.236 212.164 411.308 212.081C411.082 210.787 410.871 210.623 409.891 209.838Z" fill="white"/>
<path d="M609.512 170.217C609.87 171.313 609.678 171.29 610.507 171.916L610.987 171.903L609.962 173.583C609.604 174.802 609.393 174.799 609.746 175.883C610.525 176.526 610.943 176.899 611.654 177.639C609.589 176.983 607.823 176.167 607.876 173.442C607.903 171.997 608.415 171.15 609.512 170.217Z" fill="white"/>
<path d="M508.495 198.059C510.054 199.085 511.426 200.414 512.069 202.224C511.491 202.674 510.59 203.422 509.977 203.757C509.5 201.686 509.289 201.327 507.645 200.048C507.935 199.547 508.267 198.626 508.495 198.059Z" fill="white"/>
<path d="M414.88 169.62C416.019 170.001 417.352 170.35 418.253 171.108C418.577 171.991 418.507 171.685 418.003 172.799L417.586 173.093C415.748 172.516 415.412 171.807 413.382 171.421L413.283 171.041C413.583 170.208 414.005 170.168 414.88 169.62Z" fill="white"/>
<path d="M391.812 207.671C391.811 208.693 391.648 209.151 392.108 209.97L392.581 210.126C391.58 210.582 391.749 210.324 391.415 211.139C391.614 211.466 391.837 211.882 392.102 212.144C391.281 212.157 390.397 212.271 389.72 211.843C389.123 211.118 389.34 209.305 389.37 208.273C390.752 207.934 390.838 208.368 391.812 207.671Z" fill="white"/>
<path d="M407.959 171.321C410.324 169.635 412.006 169.333 414.88 169.62C414.005 170.168 413.583 170.208 413.283 171.041L413.382 171.421L410.521 172.208C409.83 171.7 408.811 171.53 407.959 171.321Z" fill="white"/>
<path d="M407.431 207.958C407.769 208.498 407.95 208.581 408.474 208.93C409.189 208.588 408.995 208.603 409.382 207.651C409.466 208.557 409.351 209.322 409.891 209.838C410.871 210.623 411.082 210.787 411.308 212.081L407.48 212.027L407.431 207.958Z" fill="white"/>
<path d="M486.567 197.469C488.392 197.512 489.221 197.56 491.005 197.896C490.601 198.385 489.904 199.176 489.564 199.668C488.626 199.698 486.304 199.333 485.268 199.195C485.454 198.635 486.153 197.939 486.567 197.469Z" fill="white"/>
<path d="M571.643 182.792C571.222 182.613 570.97 182.183 571.018 181.731C571.068 181.278 571.406 180.911 571.853 180.825C572.298 180.739 572.751 180.955 572.962 181.357C574.016 181.893 574.316 181.962 575.448 182.21C575.113 182.919 574.864 183.475 574.591 184.209C573.219 183.765 572.793 183.653 571.643 182.792Z" fill="white"/>
<path d="M571.643 182.792C571.222 182.613 570.97 182.183 571.018 181.731C571.068 181.278 571.406 180.911 571.853 180.825C572.298 180.739 572.751 180.955 572.962 181.357C573.166 181.744 573.107 182.218 572.81 182.541C572.514 182.863 572.046 182.964 571.643 182.792Z" fill="white"/>
<path d="M484.879 181.465C485.93 181.72 486.447 181.832 487.54 181.937C485.632 183.301 484.714 183.785 482.384 184.072C481.876 181.941 482.882 182.35 480.226 182.007C482.153 181.946 482.967 181.936 484.879 181.465Z" fill="white"/>
<path d="M215.257 197.519C216.775 197.787 217.664 198.002 218.963 198.897L217.412 200.218C216.247 199.804 214.837 199.607 213.604 199.397L213.55 198.813C214.114 198.375 214.683 197.944 215.257 197.519Z" fill="white"/>
<path d="M337.049 197.572C338.376 198.223 339.364 198.469 339.623 200.047C339.124 200.732 339.381 200.544 338.423 200.713C337.415 200.404 336.583 200.034 335.619 199.622C336.042 198.867 336.529 198.257 337.049 197.572Z" fill="white"/>
<path d="M427.116 180.073C427.199 181.653 427.61 183.397 426.111 184.337C424.642 183.57 424.936 182.111 424.936 180.615C425.566 180.603 426.487 180.268 427.116 180.073Z" fill="white"/>
<path d="M473.44 192.999L474.346 193.148L474.591 193.541C474.282 194.477 472.657 195.799 471.859 196.54C470.935 196.302 471.185 196.505 470.708 195.794C470.933 194.525 472.427 193.641 473.44 192.999Z" fill="white"/>
<path d="M397.931 164.807C398.551 164.824 398.8 164.957 399.369 165.188C399.39 165.846 398.116 167.207 397.525 168.108C396.825 168.21 396.721 168.192 396.026 168.044L395.782 167.557C396.116 166.499 397.13 165.625 397.931 164.807Z" fill="white"/>
<path d="M479.729 169.656L482.432 169.635C482.584 170.117 482.912 171.276 483.089 171.684C482.418 171.662 481.095 171.432 480.38 171.33L479.729 169.656Z" fill="white"/>
<path d="M261.618 173.743L262.744 175.599L261.635 177.574L259.956 175.356C260.575 174.926 261.103 174.301 261.618 173.743Z" fill="white"/>
<defs>
<linearGradient id="paint0_linear_11_1856" x1="63.6692" y1="88.7123" x2="87.4964" y2="87.7286" gradientUnits="userSpaceOnUse">
<stop stop-color="#033C85"/>
<stop offset="1" stop-color="#0656A8"/>
</linearGradient>
<linearGradient id="paint1_linear_11_1856" x1="124.045" y1="115.94" x2="124.045" y2="183.626" gradientUnits="userSpaceOnUse">
<stop stop-color="#196F44"/>
<stop offset="0.629808" stop-color="#208349"/>
</linearGradient>
<linearGradient id="paint2_linear_11_1856" x1="111.153" y1="44.9126" x2="111.153" y2="99.9418" gradientUnits="userSpaceOnUse">
<stop stop-color="#196F44"/>
<stop offset="0.629808" stop-color="#208349"/>
</linearGradient>
<linearGradient id="paint3_linear_11_1856" x1="93.3673" y1="129.372" x2="93.3673" y2="180.934" gradientUnits="userSpaceOnUse">
<stop stop-color="#196F44"/>
<stop offset="0.629808" stop-color="#208349"/>
</linearGradient>
<linearGradient id="paint4_linear_11_1856" x1="115" y1="100" x2="152" y2="95" gradientUnits="userSpaceOnUse">
<stop stop-color="#033C85"/>
<stop offset="1" stop-color="#0656A8"/>
</linearGradient>
<linearGradient id="paint5_linear_11_1856" x1="45" y1="139" x2="87" y2="125" gradientUnits="userSpaceOnUse">
<stop offset="0.302885" stop-color="#0464B8"/>
<stop offset="1" stop-color="#73C0AC"/>
</linearGradient>
<clipPath id="clip0_11_1856">
<rect width="150" height="173" fill="white" transform="translate(25 27)"/>
</clipPath>
</defs>
</svg>
